<?xml version="1.0" encoding="utf-8"?>
<!-- Generator: Adobe Illustrator 23.0.2, SVG Export Plug-In . SVG Version: 6.00 Build 0)  -->
<svg version="1.1" id="圖層_1" xmlns="http://www.w3.org/2000/svg" xmlns:xlink="http://www.w3.org/1999/xlink" x="0px" y="0px"
	 viewBox="0 0 75 75" style="enable-background:new 0 0 75 75;" xml:space="preserve">
<style type="text/css">
	.st0{fill:#333333;}
	.st1{fill:#EFEBE3;}
</style>
<g>
	<g>
		<g>
			<path class="st0" d="M37.5,68.4c-17,0-30.9-13.9-30.9-30.9S20.5,6.6,37.5,6.6s30.9,13.9,30.9,30.9S54.5,68.4,37.5,68.4z
				 M37.5,8.6c-15.9,0-28.9,13-28.9,28.9s13,28.9,28.9,28.9s28.9-13,28.9-28.9S53.4,8.6,37.5,8.6z"/>
		</g>
		<g>
			<circle class="st0" cx="37.5" cy="37.5" r="25.6"/>
		</g>
	</g>
	<g>
		<path class="st1" d="M33.4,54.4H40V37.9h4.6l0.5-5.5H40c0,0,0-2.1,0-3.1c0-1.3,0.3-1.8,1.5-1.8c1,0,3.6,0,3.6,0v-5.7
			c0,0-3.8,0-4.6,0c-4.9,0-7.1,2.2-7.1,6.3c0,3.6,0,4.4,0,4.4H30V38h3.4V54.4z"/>
	</g>
</g>
</svg>
