<?xml version="1.0" encoding="utf-8"?>
<!-- Generator: Adobe Illustrator 23.0.2, SVG Export Plug-In . SVG Version: 6.00 Build 0)  -->
<svg version="1.1" id="圖層_1" xmlns="http://www.w3.org/2000/svg" xmlns:xlink="http://www.w3.org/1999/xlink" x="0px" y="0px"
	 viewBox="0 0 75 75" style="enable-background:new 0 0 75 75;" xml:space="preserve">
<style type="text/css">
	.st0{fill:#333333;}
	.st1{fill:#FFFFFF;}
</style>
<g>
	<g>
		<g>
			<g>
				<path class="st0" d="M37.5,68.4c-17,0-30.9-13.9-30.9-30.9S20.5,6.6,37.5,6.6s30.9,13.9,30.9,30.9S54.5,68.4,37.5,68.4z
					 M37.5,8.6c-15.9,0-28.9,13-28.9,28.9s13,28.9,28.9,28.9s28.9-13,28.9-28.9S53.4,8.6,37.5,8.6z"/>
			</g>
			<g>
				<circle class="st0" cx="37.5" cy="37.5" r="25.6"/>
			</g>
		</g>
		<g>
			<path class="st1" d="M54.9,35.5c-0.4-7-7.7-12.6-16.6-12.6c-9.2,0-16.6,5.9-16.6,13.2c0,6.7,6.3,12.2,14.4,13.1
				c0.5,0.1,0.9,0.5,0.8,1l-0.3,3.1c-0.1,0.7,0.7,1.2,1.3,0.9c6.9-3.3,11-6.7,13.4-9.7c0.4-0.5,1.9-2.6,2.2-3.1
				c0.6-1.1,1.1-2.4,1.3-3.6c0.1-0.4,0.1-0.7,0.1-1C54.9,36.4,54.9,35.7,54.9,35.5z M31.7,40.5h-3.4c-0.5,0-0.8-0.4-0.8-0.8v-6.4
				c0-0.5,0.4-0.8,0.8-0.8c0.5,0,0.8,0.4,0.8,0.8v5.6h2.5c0.5,0,0.8,0.4,0.8,0.8C32.6,40.1,32.2,40.5,31.7,40.5z M35.1,39.8
				c0,0.4-0.3,0.7-0.7,0.7H34c-0.4,0-0.7-0.3-0.7-0.7V33c0-0.4,0.3-0.7,0.7-0.7h0.4c0.4,0,0.7,0.3,0.7,0.7
				C35.1,33,35.1,39.8,35.1,39.8z M43,39.6c0,0.5-0.4,0.9-0.9,0.9c-0.2,0-0.4-0.1-0.6-0.2c-0.1,0-3.5-4.5-3.5-4.5v3.9
				c0,0.5-0.4,0.8-0.8,0.8c-0.5,0-0.8-0.4-0.8-0.8v-6.4c0-0.5,0.4-0.9,0.8-0.9c0.3,0,0.5,0.1,0.7,0.3c0.1,0.1,3.4,4.5,3.4,4.5v-3.9
				c0-0.5,0.4-0.8,0.8-0.8c0.5,0,0.8,0.4,0.8,0.8L43,39.6L43,39.6z M48.5,35.6c0.5,0,0.8,0.4,0.8,0.8c0,0.5-0.4,0.8-0.8,0.8H46v1.5
				h2.5c0.5,0,0.8,0.4,0.8,0.8c0,0.5-0.4,0.8-0.8,0.8h-3.4c-0.5,0-0.8-0.4-0.8-0.8v-6.4c0-0.5,0.4-0.8,0.8-0.8h3.4
				c0.5,0,0.8,0.4,0.8,0.8c0,0.5-0.4,0.8-0.8,0.8H46v1.5h2.5V35.6z"/>
		</g>
	</g>
</g>
</svg>
