<?xml version="1.0" encoding="UTF-8"?>
<svg width="16px" height="16px" viewBox="0 0 16 16" version="1.1" xmlns="http://www.w3.org/2000/svg" xmlns:xlink="http://www.w3.org/1999/xlink">
    <title>Group</title>
    <defs>
        <linearGradient x1="16.7184079%" y1="26.4260434%" x2="160.124735%" y2="173.710675%" id="linearGradient-1">
            <stop stop-color="#FFFFFF" offset="0.1963459%"></stop>
            <stop stop-color="#CCCCCC" offset="100%"></stop>
        </linearGradient>
        <linearGradient x1="-15.3728664%" y1="-2.11169676%" x2="101.860726%" y2="95.4270373%" id="linearGradient-2">
            <stop stop-color="#FFFFFF" offset="0.1963459%"></stop>
            <stop stop-color="#CCCCCC" offset="100%"></stop>
        </linearGradient>
        <linearGradient x1="26.1979949%" y1="-4.75900475%" x2="64.9536708%" y2="77.4057077%" id="linearGradient-3">
            <stop stop-color="#FFFFFF" offset="0.1963459%"></stop>
            <stop stop-color="#CCCCCC" offset="100%"></stop>
        </linearGradient>
    </defs>
    <g id="组件" stroke="none" stroke-width="1" fill="none" fill-rule="evenodd">
        <g id="在线客服" transform="translate(-15.000000, -15.000000)" fill-rule="nonzero">
            <g id="Group" transform="translate(15.000000, 15.000000)">
                <path d="M0.00155732965,8.22425789 L0.00155732965,2.07280577 C0.00155732965,0.928168472 0.931283132,8.85239417e-15 2.07903508,8.85239417e-15 L6.52521124,8.85239417e-15 C6.76815466,0.154175635 6.99708212,0.319252579 7.20732163,0.498345488 L7.29453209,0.571539982 C7.69320848,0.926611143 8.05450896,1.34553282 8.2881084,1.82986234 C8.4033508,2.07124844 8.48433194,2.31886385 8.53260916,2.56492194 C8.82227248,4.13782488 7.6573899,5.53163492 6.44578743,6.40062487 C5.2995928,7.21822293 3.96340396,7.75394433 2.58516722,8.03114901 C1.72863591,8.20712726 0.851859319,8.2772071 0.00155732965,8.22425789 Z" id="Path" fill="url(#linearGradient-1)"></path>
                <path d="M10.3873888,11.5989912 C10.1864932,12.3060189 9.72396634,12.9709987 9.12750909,13.548768 C8.53105183,14.1280946 7.80533621,14.6202108 7.0219994,15.0188872 C6.23866258,15.4175635 5.43663781,15.7181282 4.42904553,15.9641863 L2.07747775,15.9641863 C0.929725802,15.9641863 0,15.0360178 0,13.8913805 L0,10.8623743 C0.317695249,10.8935209 0.635390498,10.9028649 0.951528417,10.9044222 C2.77048945,10.8950782 4.58945048,10.4372233 6.19194269,9.57757736 C6.51430993,9.40782842 6.82733319,9.21316222 7.13101247,9.00603737 C7.43469176,8.79891253 7.7259124,8.56998507 8.00778907,8.32704165 C8.20089794,8.15885004 8.38466284,7.97975713 8.56219842,7.79287758 C8.78801122,7.95795452 9.00292271,8.12770345 9.19914625,8.30835369 C9.2225062,8.32859898 9.24430881,8.34728693 9.26611143,8.36908955 L9.32996194,8.43294006 C9.868798,8.95308817 10.3188663,9.61028128 10.449682,10.3577995 C10.5306631,10.7736065 10.5026312,11.1956429 10.3873888,11.5989912 Z" id="Path" fill="url(#linearGradient-2)"></path>
                <path d="M16.0000048,2.07280577 L16.0000048,13.8898232 C15.9626289,16.7506377 12.1580726,15.8224693 10.3609142,15.9626289 C13.4397549,13.2341874 13.374347,8.42048143 8.85341907,7.47518233 C10.9589288,5.17656376 11.0290086,1.44831658 7.93459457,8.85239417e-15 L13.9209698,8.85239417e-15 C15.070279,8.85239417e-15 16.0000048,0.928168472 16.0000048,2.07280577 Z" id="Path" fill="url(#linearGradient-3)"></path>
            </g>
        </g>
    </g>
</svg>