<?xml version="1.0" encoding="utf-8"?>
<!-- Generator: Adobe Illustrator 23.0.3, SVG Export Plug-In . SVG Version: 6.00 Build 0)  -->
<svg version="1.1" id="_x34_04" xmlns="http://www.w3.org/2000/svg" xmlns:xlink="http://www.w3.org/1999/xlink" x="0px" y="0px"
	 viewBox="0 0 500 500" style="enable-background:new 0 0 500 500;" xml:space="preserve">
<style type="text/css">
	.st0{fill:#EBEBEB;}
	.st1{fill:#E0E0E0;}
	.st2{fill:#F5F5F5;}
	.st3{fill:#FF725E;}
	.st4{opacity:0.3;}
	.st5{fill:var(--white-color-100)FFF;}
	.st6{fill:#263238;}
	.st7{fill:#6B6B6B;}
	.st8{opacity:0.7;}
	.st9{fill:var(--white-color-100)FFF;stroke:#434C4F;stroke-miterlimit:10;}
	.st10{fill:#F0B31A;}
	.st11{fill:#29B5B2;}
	.st12{opacity:0.8;fill:#F5F5F5;}
	.st13{opacity:0.6;fill:#F5F5F5;}
</style>
<g>
	<path class="st0" d="M82.5,82.5c0,0-4.6,4,5.4,13.2c5.1,4.8,10.4,9.3,16.1,13.4c0,0,2,2.3-0.1,3.5s-7.2,2.2-7.2,5.3s3,5.1,8.1,5.9
		s16,3,16.9,3.2s2.2,1.1,0.9,2.2s-11.9,6.3-9.1,11.1s17.1,4.8,18.7,4.8s2.1,0.5,2.3,1.3c0.2,0.8-3.6,2.2-6.5,3.8
		c-2.9,1.6-6.1,4-4.3,6.7s11.6,6.1,30.5,1.2l8.6-2.9l2-8.9c3.1-19.2-1.3-28.6-4.2-30.2s-4.9,1.8-6.2,4.9s-2.4,6.9-3.2,6.9
		s-1.3-0.6-1.5-2.2s-1.5-15.8-6.6-18.1s-9.3,8.8-10.2,10.1s-2,0.2-2.3-0.7s-3.5-11.6-4.8-16.6s-3.5-7.7-6.7-7.4s-3.6,5.6-4.6,7.7
		s-3.5,0.4-3.5,0.4c-4.6-5.2-9.6-10.2-14.9-14.7C86,77.6,82.4,82.6,82.5,82.5"/>
	<path class="st1" d="M164,157.1c-7.4-6.7-20.5-18.8-31.7-29.1s-21.4-19.7-28.8-26.4l-8.8-7.9c-1-0.9-1.8-1.7-2.4-2.2l-0.6-0.6
		l-0.3-0.1c0.1,0.1,0.2,0.1,0.2,0.2c0.2,0.1,0.4,0.3,0.6,0.6l2.4,2.1c2.1,1.8,5.1,4.5,8.8,7.9c7.4,6.7,17.7,16,28.9,26.3
		S156.6,150.3,164,157.1"/>
	<path class="st1" d="M104,116.8c0.2,0,0.5,0,0.7,0h1.8c1.5,0,3.6,0,5.9,0.1l5.9,0.3l1.8,0.1c0.2,0,0.4,0,0.7,0
		c-0.2,0-0.4,0.1-0.7,0.1c-0.4,0-1,0-1.8,0c-1.5,0-3.6-0.1-5.9-0.2l-5.9-0.2l-1.8-0.1C104.5,116.9,104.2,116.9,104,116.8z"/>
	<path class="st1" d="M121,116.5c-0.1,0-0.2-4.3-0.2-9.6s0-9.6,0.1-9.6s0.2,4.3,0.2,9.6S121,116.5,121,116.5z"/>
	<path class="st1" d="M137.5,133.1c0-0.2,0.1-0.4,0.2-0.6c0.1-0.5,0.3-1,0.5-1.7c0.4-1.5,1-3.5,1.5-5.8s1-4.3,1.3-5.8
		c0.1-0.7,0.3-1.3,0.4-1.8c0-0.2,0.1-0.4,0.2-0.7c0,0.2,0,0.4-0.1,0.7c-0.1,0.4-0.1,1-0.3,1.8c-0.2,1.5-0.6,3.6-1.2,5.9
		c-0.6,2.3-1.1,4.3-1.6,5.8c-0.2,0.7-0.4,1.3-0.6,1.7C137.7,132.7,137.6,132.9,137.5,133.1z"/>
	<path class="st1" d="M122.2,136.8c0.2-0.1,0.4-0.2,0.6-0.2l1.6-0.4c1.4-0.4,3.3-0.9,5.4-1.4c2.1-0.5,4-1,5.4-1.3l1.6-0.4
		c0.2,0,0.4-0.1,0.6-0.1c-0.2,0.1-0.4,0.2-0.6,0.2l-1.6,0.4c-1.4,0.4-3.3,0.9-5.4,1.4c-2.1,0.5-4,1-5.4,1.3l-1.6,0.4
		C122.6,136.8,122.4,136.8,122.2,136.8z"/>
	<path class="st1" d="M135,153.3c0.2-0.1,0.5-0.2,0.8-0.2l2.1-0.6c1.8-0.5,4.2-1.1,6.9-1.9s5.1-1.3,6.9-1.8l2.1-0.5
		c0.3-0.1,0.5-0.1,0.8-0.1c-0.2,0.1-0.5,0.2-0.7,0.3l-2.1,0.6c-1.8,0.5-4.2,1.1-6.9,1.8s-5.1,1.3-6.9,1.8l-2.1,0.5
		C135.5,153.2,135.2,153.3,135,153.3z"/>
	<path class="st1" d="M153.9,148.2c0-0.3,0.1-0.6,0.2-0.8c0.1-0.6,0.3-1.3,0.6-2.2c0.5-1.9,1.1-4.5,1.7-7.4s1.1-5.6,1.4-7.5
		c0.2-0.9,0.3-1.7,0.4-2.3c0-0.3,0.1-0.6,0.2-0.8c0,0.3,0,0.6-0.1,0.9c-0.1,0.5-0.2,1.3-0.3,2.3c-0.3,1.9-0.8,4.6-1.4,7.5
		s-1.3,5.5-1.8,7.4c-0.3,0.9-0.5,1.7-0.6,2.2C154.1,147.7,154,147.9,153.9,148.2z"/>
	<path class="st2" d="M365,138.2c-13.3-11.6-14.6-30.7-12.2-47.4c0.4-2.8,0.4-5.8,2-8.1s4.9-3.7,7.3-2.2c2,1.2,2.6,3.7,3.6,5.9
		c1.3,2.8,3.3,5.3,5.9,7c1.7,1.1,3.8,1.9,5.7,1.1c2.6-1.1,3.2-4.4,3.5-7.2c0.5-5.2,1.1-10.4,1.6-15.6c0.1-2.8,0.7-5.6,1.7-8.2
		c1.1-2.6,3.3-4.8,6.1-5.3s5.9,1.4,6.1,4.2c0,1.2-0.1,2.3-0.3,3.5c-0.2,1.2,0.4,2.4,1.4,3c1.1,0.4,2.3-0.2,3.2-1
		c3.2-2.5,5.5-5.9,7.8-9.3s4.4-7,7.4-9.8s6.8-4.8,10.8-4.6s8,3.1,8.6,7.2s-2.1,7.8-5,10.7c-4.2,4.3-9,8-14.3,11
		c-1,0.4-1.9,1.2-2.4,2.1c-0.8,1.8,0.8,3.8,2.5,4.6c2,0.9,4.3,0.9,6.4,1.4s4.4,1.7,5,3.8c0.8,3-1.9,5.7-4.4,7.4
		c-5.1,3.4-10.8,5.9-16.8,7.4c-2.1,0.5-4.4,1-6.2,2.2s-3.1,3.7-2.3,5.7s3.3,3,5.5,2.8s4.2-1.1,6.4-1.7c4-1,8.9-0.2,11,3.3
		c1.3,2.5,1.3,5.4,0.1,7.9c-1.2,2.5-2.9,4.7-5,6.4c-6.9,6.6-15.4,11.3-24.6,13.6C381.8,142.4,373.5,142.3,365,138.2"/>
	<path class="st1" d="M370.5,128.1c3.8-8.9,8.1-17.5,12.8-25.8c1.3-2.2,2.5-4.4,3.7-6.6s2.4-4.3,3.8-6.3c2.5-3.9,5.3-7.6,8.2-11.2
		c2.8-3.4,5.6-6.6,8.2-9.5s5.1-5.6,7.5-8c3.7-3.7,7.7-7.2,12-10.2c1.5-1.1,2.7-1.9,3.5-2.5l0.9-0.6c0.1-0.1,0.2-0.1,0.3-0.2
		c-0.1,0.1-0.2,0.2-0.3,0.2l-0.9,0.7c-0.8,0.6-2,1.4-3.5,2.5c-4.2,3.2-8.2,6.6-11.9,10.3c-2.4,2.4-4.8,5.1-7.4,8s-5.4,6.1-8.1,9.6
		c-2.9,3.6-5.7,7.3-8.2,11.2c-1.3,2-2.5,4.1-3.7,6.3l-3.7,6.6c-4.8,8.3-9,17-12.8,25.8"/>
	<path class="st1" d="M390.9,89.3c-0.1-0.4-0.1-0.8-0.1-1.2c-0.1-0.8-0.1-1.9-0.2-3.3c-0.1-2.8-0.1-6.7-0.1-11s0-8.2-0.2-11
		c-0.1-1.4-0.1-2.5-0.2-3.3c0-0.4,0-0.8,0-1.2c0.1,0.4,0.2,0.8,0.2,1.2c0.1,0.8,0.2,1.9,0.4,3.3c0.2,2.8,0.3,6.7,0.3,11
		s0,8.1-0.1,11v3.3C391,88.5,391,88.9,390.9,89.3z"/>
	<path class="st1" d="M427.5,86.5c-0.5,0-1,0-1.5,0c-0.9,0-2.3,0-3.9,0c-3.3,0-7.9,0.2-13,0.6s-9.6,1-12.9,1.5
		c-1.6,0.2-3,0.5-3.9,0.6c-0.5,0.1-1,0.2-1.4,0.2c0.5-0.2,0.9-0.3,1.4-0.4c0.9-0.2,2.2-0.5,3.9-0.8c3.3-0.6,7.9-1.2,12.9-1.6
		c4.3-0.4,8.7-0.5,13-0.4c1.7,0,3,0.1,3.9,0.2C426.5,86.3,427,86.4,427.5,86.5z"/>
	<path class="st1" d="M371,127.5c-0.1-0.1-0.2-0.3-0.2-0.5l-0.5-1.4c-0.4-1.2-1-2.9-1.6-5.1c-1.3-4.3-2.9-10.3-4.5-16.9
		s-3.2-12.6-4.4-17l-1.4-5.1c-0.1-0.6-0.3-1-0.4-1.4c-0.1-0.2-0.1-0.3-0.1-0.5c0.1,0.2,0.1,0.3,0.2,0.5c0.1,0.4,0.3,0.8,0.5,1.4
		c0.4,1.2,1,2.9,1.6,5.1c1.3,4.3,2.9,10.3,4.5,16.9s3.2,12.6,4.4,17l1.4,5.1c0.1,0.6,0.3,1,0.4,1.4C370.9,127.2,371,127.3,371,127.5
		z"/>
	<path class="st1" d="M420.3,117.3c-0.2,0.1-0.3,0.1-0.5,0.1l-1.4,0.3l-5.3,1.1c-4.5,0.9-10.6,2.3-17.4,3.8s-13,2.8-17.4,3.7
		c-2.2,0.4-4.1,0.7-5.3,1l-1.5,0.2c-0.2,0-0.3,0-0.5,0c0.2-0.1,0.3-0.1,0.5-0.1l1.4-0.3l5.3-1.1c4.5-0.9,10.6-2.3,17.4-3.8
		s13-2.8,17.4-3.7c2.2-0.4,4.1-0.7,5.3-0.9l1.5-0.2C419.9,117.3,420.1,117.3,420.3,117.3z"/>
	<g id="freepik--Character--inject-2">
		<path class="st3" d="M325.1,219.8c0.5-9.3,1.1-18.5,1.7-27.8c0.1-1.1,0.2-2.4,1.2-3c0.9-0.4,2-0.3,2.9,0.2
			c16.4,6.6,28.5,24.9,29.9,42.6"/>
		<g class="st4">
			<path class="st5" d="M330.7,198.6c7.8,5.1,12.8,13.6,13.4,22.9c0.2,1.1-0.1,2.2-0.7,3.2c-0.6,0.7-1.5,1.1-2.5,1.1
				c-0.9,0-1.8-0.2-2.7-0.4c-2.2-0.6-4.5-1.2-6.2-2.8c-1.5-1.6-2.4-3.7-2.4-5.9s0.2-4.3,0.7-6.4l2.8,4.8l-3-15.5
				c-0.1-0.3-0.1-0.6,0.1-0.8s0.6-0.1,0.6,0.1"/>
		</g>
		<path class="st3" d="M229.9,239.5c-8.6-10.2-13.5-22.9-14-36.2l9.1,4.3l-2.3-2.8c13.4,1.1,25.7,7.4,34.5,17.5"/>
		<g class="st4">
			<path class="st5" d="M235,235.4c-7.3-5.3-12-13.3-13.1-22.2c-0.1-0.6,0-1.4,0.6-1.6c0.4-0.1,0.9,0,1.2,0.3l16.5,10.8
				c-0.7-1-1.2-2.2-1.3-3.5l7,5.1c0.5,0.3,0.9,0.8,1.1,1.4c0,0.7-0.3,1.3-0.9,1.7c-2.4,2.1-5.7,2.9-8.8,1.9l3,2.6
				c-1.8,1.2-4,1.5-6.1,1.1c-0.2,1,0.2,2,1.1,2.6"/>
		</g>
		<path class="st3" d="M416.4,326.8c0,0,12.8,13.2,18.6,12.1c0,0-20.2-21.5-28.7-41.4c-4.1-9.4-8.9-18.4-14.5-27
			c3.8-6.6,7.2-14.1,8.8-21.6c-4.3,5-9.2,9.4-14.6,13.2c-0.4-0.6-0.9-1.2-1.4-1.9c4.5-4.1,7.5-9.6,8.6-15.6l-20.2-0.9
			c0.6-0.9,1.2-1.9,1.7-2.9c-9.9-8.5-21-15.6-33-20.9c-23.2-13.2-75-17.6-100.2,3.9c-22.6,13.2-28.6,30-46.4,34.2l-10.5-1.1
			c0,0-4.1,22,9.4,31.8l-10-2.3c0,0,1.8,8.8,11.7,18.4l-6.1-0.8c0,0,2.7,13.8,11.2,17.1c0,0-13.3,1.7-17-3.3c0,0-4.4,20.6,15.7,28.4
			c0,0-60.3,7.1-43.3,80.8c4,17.2,27.8,29.1,55.1,35.1h197c12-3.9,26.3-44,26.9-60s-7.4-46.9-7.4-46.9l7.5,9.9L416.4,326.8z"/>
		<path class="st3" d="M191.2,357.5c-11.3-0.7-22.4,8.1-24.4,19.3c7.4-4.9,15.8-8,24.5-9c-7.1,6.5-9.4,16.7-5.8,25.6
			c2.9-7.9,9-14.2,16.7-17.5c-5.3,6.4-6.9,15.1-4.2,23"/>
		<path class="st6" d="M198.2,398.9c-0.1-0.1-0.1-0.3-0.2-0.4c-0.1-0.3-0.2-0.7-0.4-1.2c-0.4-1.6-0.7-3.2-0.8-4.8
			c-0.2-2.6,0.1-5.2,0.8-7.7c0.9-3.3,2.4-6.4,4.6-9l0.2,0.3c-7.7,3.3-13.6,9.6-16.6,17.4l-0.2,0.6l-0.2-0.6
			c-2.4-6.2-2.2-13.1,0.7-19c1.3-2.6,3-4.9,5.2-6.9l0.2,0.5c-8.7,1-17.1,4.1-24.4,8.9l-0.4,0.3l0.1-0.5c0.4-2.4,1.3-4.7,2.5-6.9
			c1.1-1.9,2.4-3.7,4-5.2c2.5-2.6,5.6-4.5,8.9-5.8c2.2-0.8,4.4-1.3,6.7-1.4c0.8,0,1.4,0,1.8,0h0.5h0.1h-0.1h-0.5c-0.4,0-1,0-1.8,0
			c-2.3,0.2-4.5,0.7-6.6,1.5c-3.3,1.3-6.3,3.2-8.8,5.8c-1.5,1.5-2.8,3.3-3.9,5.2c-1.2,2.1-2,4.4-2.4,6.8l-0.4-0.2
			c7.4-4.9,15.8-8,24.6-9l0.8-0.1l-0.6,0.5c-2.1,1.9-3.8,4.2-5,6.7c-2.9,5.8-3.1,12.6-0.7,18.6h-0.5c1.6-4.2,4.1-8,7.2-11.1
			c2.8-2.7,6-4.9,9.6-6.5l0.8-0.3l-0.5,0.6c-2.2,2.6-3.7,5.6-4.6,8.8c-0.7,2.5-1,5-0.9,7.6c0.1,1.6,0.3,3.2,0.7,4.8
			c0.1,0.5,0.3,1,0.3,1.2C198.1,398.6,198.1,398.8,198.2,398.9z"/>
		<path class="st3" d="M397.7,388.5c12.6-2.7,25.3,3.9,30.5,15.6"/>
		<path class="st6" d="M428.2,404.2c-0.1,0-0.9-1.9-2.8-4.6c-5.2-7.2-13.4-11.4-22.3-11.4c-3.3,0-5.4,0.5-5.4,0.4
			c0.5-0.2,0.9-0.3,1.4-0.4c1.3-0.2,2.7-0.4,4-0.4c9-0.2,17.5,4.2,22.6,11.6c0.8,1.1,1.4,2.3,2,3.5
			C427.9,403.2,428.1,403.7,428.2,404.2z"/>
		<g class="st4">
			<path d="M328.3,405.1c-7.3,1.2-16.5,6.6-19.9,13.2c-0.7,1.4-0.1,1.6,0,3.1c0,1.6,0.9,3.1,2.4,3.8c1.4,0.6,3-0.1,3.6-1.5
				c0-0.1,0.1-0.2,0.1-0.3c-0.9,5.3,0.3,10.8,3.3,15.3c2-1.2,3.7-2.9,4.7-5c-0.4,7.9,2.5,15.6,8,21.3l-3.5-13.8
				c-1.3-5-2.5-9.2-2.2-14.4c0.4-5.5,3.6-10.1,6.1-14.6c-3.5,1.5-7.5,8.4-10.9,12.5c-0.4-7.4,2.6-14.5,8.1-19.4"/>
		</g>
		<path class="st6" d="M326.9,441.4c-0.1-0.2-0.2-0.4-0.3-0.6c-0.1-0.4-0.4-1-0.7-1.8c-0.8-2.2-1.2-4.6-1.4-6.9
			c-0.2-3.6,0.2-7.2,1.2-10.6c1.3-4.4,3.6-8.4,6.8-11.7l0.4,0.4c-2.9,2.6-5.7,5.4-8.3,8.3c-1.7,1.9-3.2,4-4.5,6.2l-0.4,0.7l-0.1-0.8
			c-0.4-4.1,0.3-8.3,2.2-12c1.5-3.1,3.8-5.9,6.6-7.9l0.2,0.3c-2,0.7-3.8,1.9-5.4,3.3c-1.2,1.1-2.2,2.3-3,3.7c-0.5,0.9-1,1.8-1.3,2.7
			c-0.1,0.3-0.2,0.7-0.4,1c0-0.1,0-0.2,0-0.3c0-0.2,0.1-0.4,0.2-0.8c0.3-1,0.8-1.9,1.3-2.8c0.8-1.4,1.8-2.7,3-3.8
			c1.6-1.5,3.4-2.7,5.4-3.4l1.3-0.5l-1.2,0.9c-2.7,2.1-4.9,4.7-6.4,7.8c-1.8,3.6-2.5,7.7-2.1,11.7l-0.5-0.1c1.3-2.3,2.8-4.4,4.5-6.3
			c2.6-2.9,5.4-5.7,8.4-8.4l0.4,0.4c-3.1,3.2-5.4,7.1-6.8,11.4c-1.1,3.4-1.5,7-1.3,10.5c0.1,2.3,0.5,4.7,1.2,6.9
			c0.2,0.8,0.5,1.4,0.6,1.8C326.8,440.9,326.9,441.1,326.9,441.4z"/>
		<path class="st3" d="M208.3,440.3c3.9,4.4,9.1,7.4,14.8,8.7c0.6,0.3,1.3,0.2,1.9-0.3c0.6-0.6,0.1-1.6-0.4-2.4l-6.4-9.4
			c4.5,3.6,9.9,5.9,15.6,6.8c0.9,0.1,2.1,0.1,2.6-0.7c0.3-0.7,0.2-1.6-0.2-2.2c-1-2.1-2-4.2-3.2-6.3"/>
		<path class="st6" d="M233,434.7c0.1,0.2,0.2,0.3,0.3,0.5l0.8,1.5c0.4,0.7,0.8,1.5,1.2,2.4c0.3,0.5,0.5,1,0.8,1.5
			c0.3,0.6,0.5,1.2,0.6,1.8c0,0.4-0.1,0.8-0.3,1.1c-0.3,0.3-0.6,0.5-1,0.6c-0.8,0.1-1.6,0.1-2.3-0.1c-1.7-0.3-3.3-0.7-4.9-1.2
			c-3.7-1.2-7.1-3.1-10.2-5.5l0.4-0.4l1.1,1.6l3.5,5.2l1.7,2.5c0.3,0.4,0.5,0.9,0.6,1.4c0.2,0.6-0.1,1.2-0.6,1.5
			c-0.5,0.2-1,0.3-1.5,0.2c-0.5-0.1-0.9-0.2-1.3-0.3c-0.9-0.2-1.7-0.5-2.5-0.8c-1.5-0.5-2.9-1.2-4.2-2c-2-1.1-3.8-2.5-5.4-4
			c-0.6-0.6-1-1-1.3-1.3c-0.2-0.2-0.3-0.3-0.4-0.5c0.2,0.1,0.3,0.3,0.5,0.4c0.3,0.3,0.7,0.7,1.3,1.3c1.7,1.5,3.5,2.8,5.4,3.9
			c1.3,0.8,2.7,1.4,4.2,1.9c0.8,0.3,1.6,0.5,2.4,0.8s1.8,0.6,2.5,0.2c0.3-0.2,0.5-0.6,0.3-1c-0.1-0.4-0.3-0.9-0.6-1.2
			c-0.6-0.8-1.1-1.6-1.7-2.5c-1.1-1.7-2.3-3.4-3.6-5.2l-1.1-1.6l-1-1.4l1.4,1c4.3,3.4,9.4,5.7,14.8,6.7c0.7,0.2,1.4,0.2,2.2,0.1
			c0.6-0.1,1.1-0.6,1.1-1.3c-0.1-0.6-0.3-1.2-0.6-1.7s-0.5-1-0.7-1.5l-1.2-2.4l-0.7-1.5C233.1,435,233,434.8,233,434.7z"/>
		<g class="st4">
			<path d="M232.9,378.1c2.2,3.7,5.4,6.7,9.3,8.7c-0.2-2.1-1.1-4-2.4-5.5c4.2,4,9.2,7.1,14.7,9.1c-8.1,3.6-17.6,0-21.2-8.2
				c-0.7-1.6-1.1-3.3-1.3-5"/>
		</g>
		<g class="st4">
			<path d="M206.2,312.9c7.9,15.3,33.6,22.8,53.8,23.1c6.2,0.1,15,4.7,21.2,4.1c13.8-1.3,25.1-8.8,38.9-10c8.6-0.7,17.3-1,25.8-2.5
				s8.1-2.5,14.9-7.9s14.1-10.7,14-19.4c-12.7,15.6-25.3,20.4-44.9,25s-40,4.5-60.1,3.5C247.6,328,224.4,325.5,206.2,312.9"/>
		</g>
		<path class="st3" d="M274.5,195.8c0.1,0,0.2,1.1,0.5,2.9c0.4,2.3,1,4.6,1.9,6.8s2,4.3,3.3,6.3c0.6,0.8,1.2,1.6,1.7,2.4
			c0,0-0.2-0.2-0.6-0.6c-0.5-0.5-1-1.1-1.4-1.7c-1.4-1.9-2.6-4-3.5-6.3c-0.9-2.2-1.5-4.6-1.8-7c-0.1-0.7-0.1-1.4-0.2-2.2
			C274.4,196.3,274.4,196,274.5,195.8z"/>
		<path class="st3" d="M281,193.3c0.1,0-0.3,1-0.7,2.7c-0.5,2.2-0.7,4.4-0.5,6.6c0.2,2.2,0.7,4.4,1.5,6.4c0.6,1.6,1.2,2.5,1.1,2.5
			s-0.2-0.2-0.5-0.6c-0.4-0.6-0.7-1.2-1-1.8c-1.9-4.1-2.3-8.8-1-13.2c0.2-0.7,0.4-1.3,0.7-1.9C280.9,193.5,281,193.2,281,193.3z"/>
		<path class="st3" d="M158.6,359.5c0.1-0.1,0.3-0.3,0.4-0.4c0.3-0.2,0.7-0.6,1.2-1c1.5-1.2,3.2-2.3,4.9-3.3
			c5.6-3.2,11.8-5.4,18.2-6.6s12.8-1.8,19.3-1.9c2.5-0.1,4.5-0.1,5.9-0.1h1.6c0.2,0,0.4,0,0.6,0c-0.2,0-0.4,0.1-0.6,0.1l-1.6,0.1
			l-5.9,0.2c-6.4,0.2-12.8,0.9-19.2,2c-6.3,1.2-12.4,3.3-18.1,6.4c-1.7,1-3.3,2-4.9,3.2C159.3,359.1,158.7,359.5,158.6,359.5z"/>
		<path class="st3" d="M302,197.6c0,0.1-1.7-0.5-4.5-1.2c-1.6-0.4-3.3-0.6-4.9-0.6c-2,0-4,0.6-5.7,1.6c-0.9,0.5-1.6,1.3-2.2,2.1
			c-0.5,0.8-0.9,1.7-1.1,2.6c-0.3,1.6-0.2,3.3,0.2,4.9c0.7,2.8,1.4,4.4,1.3,4.4c-0.2-0.4-0.4-0.7-0.5-1.1c-0.5-1-0.8-2.1-1.1-3.2
			c-0.5-1.6-0.6-3.4-0.3-5.1c0.2-1,0.6-2,1.2-2.8c0.6-0.9,1.5-1.7,2.4-2.2c1.8-1.1,3.9-1.7,6-1.7c1.7,0,3.4,0.3,5,0.7
			c1.4,0.4,2.5,0.8,3.2,1C301.2,197.3,301.6,197.4,302,197.6z"/>
		<path class="st3" d="M452,448.2c-1.1-7.2-4.6-14.2-10.6-18.3s-14.7-4.6-20.4-0.1l-23.7,32.3h50.5C450.6,459.5,452.6,452,452,448.2
			z"/>
		<g class="st4">
			<path d="M419.7,462.1c4.3-1.8,7.4-6.2,9.4-10.4c2-4.2,2.8-8.8,3.6-13.4c0.7-3.8,0-11.3-3-11.7c-0.5,1.6-0.6,2.9-0.8,3.7
				c-3.9,12.3-10.3,23.4-20.2,31.8H419.7z"/>
		</g>
		<g class="st4">
			<path class="st5" d="M268.3,210.7c5,14.4,5.6,30,5.1,45.2c-0.3,7.6-0.8,15.2-3.2,22.5s-6.7,14-13.2,18
				c-6.1,3.8-13.6,4.8-20.8,3.8s-13.9-3.7-20.3-6.9c-7.3-3.7-14.4-8.1-20.1-14s-10.3-14.2-11.3-22.3l10.5,1.1c0,0,8.1-0.9,20.7-13.1
				c13.8-13.3,16.3-14.9,26.6-21.9C250.5,217.9,259.2,213.7,268.3,210.7z"/>
		</g>
		<g class="st4">
			<path d="M311.8,299.5c4.1-2.3,9.2-1.6,12.6,1.7c3.3-4.3,8.7-6.3,14-5.1c-3.1,1.2-6,2.9-8.6,5.1c-2.5,2.3-4.2,5.5-3.9,8.9
				c-3.1-3.3-6.6-6.2-10.5-8.5c-1.6-1-3.8-1.8-5.3-0.7"/>
		</g>
		<path class="st3" d="M346.3,412.2c-11.9,8.6-16.7,24-11.6,37.8"/>
		<path class="st6" d="M334.7,450c-0.1-0.1-0.1-0.3-0.2-0.4c-0.1-0.3-0.3-0.6-0.4-1.2c-0.5-1.4-0.9-2.9-1.1-4.4
			c-1.8-10.1,1.4-20.5,8.5-27.9c1.1-1.1,2.2-2.1,3.4-3c0.4-0.3,0.8-0.6,1-0.7s0.4-0.2,0.4-0.2c-0.4,0.4-0.8,0.7-1.3,1.1
			c-1.2,1-2.2,2-3.3,3.1c-6.9,7.4-10,17.6-8.5,27.6c0.2,1.5,0.5,3,1,4.4C334.4,448.9,334.6,449.5,334.7,450z"/>
		<path class="st3" d="M366.2,377.6c4.1-3.1,9.4-6.4,14-4.2c2.6,1.4,4.4,4,4.8,6.9s0.2,5.8-0.5,8.7c-3.4,16.5-10.7,32-21.3,45.1
			c-3.9,4.8-9.3,9.6-15.3,8.3c-5.6-1.2-8.8-7.6-8.4-13.3s3.2-10.9,5.9-16C351.6,401.1,357.8,387.9,366.2,377.6"/>
		<path class="st6" d="M366.2,377.6c-0.1,0.1-0.2,0.3-0.3,0.4l-0.8,1.1c-0.7,0.9-1.7,2.4-3,4.2c-3.5,5.3-6.7,10.7-9.6,16.4l-6,11.6
			c-2.1,4.2-4.8,8.5-6.2,13.6c-0.7,2.6-0.9,5.3-0.4,7.9c0.5,2.8,1.9,5.3,3.9,7.2c1,0.9,2.3,1.6,3.7,2c1.4,0.4,2.9,0.4,4.3,0.1
			c2.9-0.7,5.5-2.3,7.6-4.4c2.2-2.1,4.1-4.4,5.9-6.8s3.4-4.8,5-7.2c5.6-8.9,9.8-18.7,12.6-28.9c0.6-2.3,1.1-4.5,1.5-6.6
			c0.5-2,0.7-4.1,0.6-6.2c-0.1-3.9-2.2-7.5-5.1-8.7c-1.3-0.6-2.8-0.7-4.3-0.5c-1.2,0.2-2.4,0.6-3.5,1.1c-1.6,0.7-3,1.6-4.4,2.6
			l-1.1,0.8C366.4,377.5,366.2,377.5,366.2,377.6l0.4-0.3c0.2-0.2,0.6-0.5,1.1-0.8c1.4-1,2.8-1.9,4.4-2.7c1.1-0.6,2.3-0.9,3.6-1.1
			c3.3-0.6,6.6,1,8.2,3.9c1,1.7,1.5,3.6,1.6,5.5c0.1,2.1-0.1,4.2-0.6,6.3c-0.4,2.2-0.9,4.4-1.5,6.7c-2.7,10.2-6.9,20-12.5,29
			c-1.6,2.4-3.2,4.9-5,7.3c-1.8,2.5-3.8,4.8-5.9,6.9c-2.2,2.2-4.9,3.7-7.9,4.5c-1.5,0.3-3,0.3-4.5-0.1c-1.4-0.4-2.8-1.1-3.9-2.1
			c-2.1-2-3.5-4.6-4-7.5c-0.5-2.7-0.3-5.5,0.4-8.2c1.4-5.2,4.1-9.5,6.2-13.7s4.2-8.1,6.1-11.6c2.9-5.6,6.2-11.1,9.7-16.3
			c1.3-1.8,2.3-3.2,3.1-4.1l0.9-1C366,377.8,366.1,377.7,366.2,377.6z"/>
		<g class="st4">
			<path d="M366.7,391.8L366.7,391.8c1-2.8,3.1-3.6,5.4-4.4s5.1-0.7,6.9,0.9c2.1,1.8,2.4,5.1,1.8,7.8c-0.1,1-0.5,1.9-1.1,2.6
				c-0.7,0.8-1.7,1-2.6,0.6c-1-0.5-1.3-2-2.4-2.4s-2.5,0.5-3.7,0.9c-1.8,0.3-3.6-0.6-4.3-2.3C366.1,394.3,366.2,393,366.7,391.8z"/>
		</g>
		<g class="st4">
			<path d="M371,377.8c1.1,0.5,1.7,1.6,1.6,2.7c0,1.3-0.3,2.5-0.8,3.6c-0.4,1-0.9,2.1-2,2.1c-0.6,0-1.2-0.3-1.5-0.9
				c-0.3-0.5-0.4-1.1-0.5-1.7c-0.1-1.4,0.1-2.7,0.6-4c0.2-0.7,0.6-1.2,1.2-1.7c0.6-0.4,1.4-0.4,1.9,0"/>
		</g>
		<g class="st4">
			<path class="st7" d="M383,380.2c1.1,0.5,1.7,1.6,1.6,2.7c-0.1,1.3-0.3,2.5-0.8,3.6c-0.4,1-1,2.1-2,2.1c-0.6,0-1.2-0.3-1.5-0.9
				c-0.3-0.5-0.5-1.1-0.5-1.7c-0.1-1.4,0.1-2.7,0.6-4c0.2-0.7,0.6-1.2,1.2-1.7c0.6-0.4,1.4-0.4,1.9,0"/>
		</g>
		<g class="st4">
			<path d="M377.9,375.6c1,0.5,1.7,1.6,1.6,2.7c-0.1,1.3-0.3,2.5-0.8,3.6c-0.4,1-1,2.1-2,2.1c-0.6,0-1.2-0.3-1.5-0.9
				c-0.3-0.5-0.4-1.1-0.5-1.7c-0.1-1.4,0.1-2.7,0.6-4c0.2-0.7,0.6-1.2,1.2-1.7c0.6-0.4,1.4-0.4,1.9,0"/>
		</g>
		<g class="st4">
			<path d="M374.1,416.5c-0.8,6.1-2.4,12-4.9,17.5c-2.5,5.6-6.2,10.6-11,14.4c-2.2,1.7-4.8,3.2-7.6,3.3c-4,0.1-7.5-2.7-9.3-6.3
				s-2-7.6-1.8-11.6c1.9,3.2,4.1,6.6,7.5,8c3.1,1,6.5,0.7,9.3-1s5.2-3.9,7.1-6.4c4.3-5.2,7.8-11,10.5-17.3"/>
		</g>
		<path class="st3" d="M150.1,378.4c-4.9-1.5-11-2.8-14.6,0.9c-1.9,2.3-2.7,5.3-2,8.2c0.7,2.8,1.9,5.5,3.5,8
			c8.9,14.3,21.2,26.3,35.7,34.9c5.3,3.1,12.1,5.7,17.2,2.4c4.8-3.1,5.5-10.2,3.2-15.4s-6.8-9.1-11.1-12.9
			C172,395.3,161.6,385.1,150.1,378.4"/>
		<path class="st6" d="M150.1,378.4c0,0,0.1,0.1,0.4,0.2l1.1,0.7c1,0.6,2.5,1.5,4.3,2.8c5.2,3.7,10.1,7.6,14.8,11.9l9.8,8.7
			c3.4,3.2,7.5,6.3,10.6,10.6c1.7,2.2,2.8,4.8,3.3,7.5c0.5,2.9,0.1,5.8-1.1,8.4c-0.7,1.3-1.7,2.5-2.9,3.4s-2.7,1.5-4.2,1.7
			c-3.1,0.3-6.2-0.2-9-1.4c-2.8-1.2-5.5-2.7-8-4.4c-2.5-1.6-4.9-3.3-7.2-5c-4.4-3.4-8.5-7.1-12.3-11.1c-3.5-3.6-6.7-7.5-9.6-11.6
			c-1.4-1.9-2.6-3.8-3.8-5.7c-1.1-1.8-2.1-3.7-2.8-5.7c-0.6-1.8-0.8-3.8-0.5-5.7c0.5-3.3,3-5.9,6.3-6.5c1.2-0.2,2.5-0.3,3.8-0.2
			c1.7,0.2,3.4,0.5,5.1,1c0.6,0.2,1,0.3,1.3,0.4L150.1,378.4l-0.4-0.1l-1.3-0.3c-1.7-0.4-3.4-0.7-5.1-0.9c-1.2-0.1-2.5,0-3.7,0.2
			c-1.4,0.3-2.8,1-3.8,2c-2.3,2.1-3,6.2-1.7,9.9c0.7,2,1.6,3.8,2.7,5.6c1.2,1.9,2.4,3.8,3.8,5.7c6.1,8.6,13.5,16.2,21.9,22.6
			c2.3,1.7,4.7,3.4,7.2,5c2.5,1.7,5.1,3.1,7.9,4.3c2.7,1.2,5.7,1.7,8.7,1.4c1.4-0.2,2.8-0.8,4-1.6c1.1-0.8,2.1-1.9,2.7-3.2
			c1.2-2.5,1.6-5.3,1.1-8.1c-0.5-2.6-1.6-5.1-3.2-7.3c-3.1-4.3-7.1-7.4-10.6-10.6l-9.7-8.8c-4.7-4.3-9.6-8.3-14.7-12
			c-1.8-1.3-3.3-2.2-4.3-2.9l-1.1-0.7L150.1,378.4z"/>
		<g class="st4">
			<path d="M154.6,391.9L154.6,391.9c-1.9-2.3-4.2-2.3-6.6-2.3s-5,1.1-6.2,3.2c-1.3,2.5-0.5,5.6,1,8c0.5,0.9,1.2,1.6,2,2.1
				c0.9,0.5,2,0.3,2.7-0.4c0.8-0.9,0.5-2.3,1.4-3.1s2.5-0.4,3.8-0.5c1.8-0.3,3.2-1.8,3.2-3.7C156,394,155.5,392.8,154.6,391.9z"/>
		</g>
		<g class="st4">
			<path d="M145.6,380.2c-0.8,0.8-1,2.1-0.5,3.1c0.5,1.2,1.2,2.2,2,3.1c0.7,0.8,1.6,1.6,2.6,1.3c0.6-0.2,1-0.7,1.1-1.3
				c0.1-0.6,0-1.2-0.1-1.8c-0.4-1.3-1.1-2.5-2-3.5c-0.4-0.5-1-0.9-1.7-1.1s-1.4,0.1-1.8,0.7"/>
		</g>
		<g class="st4">
			<path d="M135.3,386.7c-0.8,0.8-1,2.1-0.5,3.1c0.5,1.2,1.2,2.2,2,3.1c0.7,0.8,1.6,1.6,2.6,1.3c0.6-0.2,1-0.7,1.1-1.3
				c0.1-0.6,0-1.2-0.2-1.8c-0.4-1.3-1.1-2.5-2-3.5c-0.4-0.5-1-0.9-1.7-1.1s-1.4,0.1-1.8,0.7"/>
		</g>
		<g class="st4">
			<path d="M138.4,380.7c-0.8,0.8-1,2.1-0.5,3.1c0.5,1.2,1.2,2.2,2,3.1c0.7,0.8,1.6,1.6,2.6,1.3c0.6-0.2,1-0.7,1.1-1.3
				c0.1-0.6,0-1.2-0.2-1.8c-0.4-1.3-1.1-2.5-2-3.5c-0.4-0.5-1-0.9-1.7-1.1s-1.4,0.1-1.8,0.7"/>
		</g>
		<g class="st4">
			<path d="M156.4,417.6c2.9,5.4,6.5,10.3,10.7,14.7c4.3,4.4,9.5,7.7,15.3,9.7c2.7,0.9,5.6,1.3,8.2,0.4c3.7-1.3,6.1-5.2,6.5-9.1
				s-0.8-7.9-2.4-11.5c-0.7,3.7-1.5,7.6-4.2,10.1c-2.5,2.1-5.8,2.9-9,2.3s-6.2-1.8-8.9-3.5c-5.8-3.4-11.2-7.6-15.8-12.5"/>
		</g>
		<g class="st4">
			<path class="st5" d="M152.7,412.2c-0.3,0.4-0.6,0.8-0.9,1.2c5-8.1,15.7-10.6,23.9-5.6c8.1,5,10.6,15.7,5.6,23.9
				c-0.3,0.4-0.6,0.9-0.9,1.3c-11.2-4.6-21.4-11.5-29.9-20.1"/>
		</g>
		<path class="st6" d="M427.3,435.8c-1.5,3.7-3.4,8-5.6,11.7c-0.5,0.9-1.1,1.7-1.6,2.5l-0.8,1.2l-0.8,1.1l-1.5,2
			c-0.5,0.6-1.1,1.2-1.6,1.8s-1,1.1-1.5,1.6l-1.4,1.3l-1.2,1.1l-1.1,0.9l-0.9,0.7c-0.2,0.2-0.4,0.3-0.6,0.4c0.2-0.2,0.3-0.3,0.5-0.5
			l0.9-0.8l1-1l1.1-1.2l1.3-1.4c0.5-0.5,0.9-0.9,1.4-1.5l1.6-1.9l1.5-2l0.8-1.1c0.3-0.5,0.5-0.7,0.8-1.1c0.5-0.8,1.1-1.6,1.6-2.5
			c2.1-3.7,4.1-7.6,5.6-11.6c2.7-7.3,6.2-21.9,6.2-21.9c0.6-2.9,1.1-6,1.4-7.7c0.1-0.8,0.3-1.4,0.4-1.9c0-0.2,0.1-0.3,0.2-0.5
			c0,0.1,0.2,0.3,0.2,0.6c0,0.5-0.1,1.2-0.2,2c-0.2,1.7-1.8,10.5-3,14.5L427.3,435.8z"/>
		<path class="st6" d="M204.9,341.6c0.1-0.2,0.3-0.3,0.5-0.5l1.4-1.3c0.6-0.6,1.4-1.2,2.3-2s1.9-1.7,3.1-2.6c2.3-1.9,5.1-4,8.3-6.3
			s6.8-4.6,10.8-6.9s7.8-4.2,11.3-5.9s6.8-3,9.6-4.1c1.4-0.5,2.6-1,3.8-1.4s2.1-0.7,2.9-1l1.8-0.6c0.2-0.1,0.4-0.1,0.6-0.2
			c-0.2,0.1-0.4,0.2-0.6,0.3l-1.8,0.6c-0.8,0.3-1.7,0.6-2.8,1s-2.4,0.9-3.7,1.4c-2.8,1.1-6,2.5-9.5,4.2s-7.3,3.7-11.3,5.9
			s-7.5,4.6-10.8,6.8s-6,4.3-8.4,6.2c-1.2,0.9-2.2,1.8-3.1,2.5s-1.7,1.4-2.3,1.9l-1.5,1.2C205.3,341.4,205.1,341.5,204.9,341.6z"/>
		<path class="st6" d="M176.8,324.9c0,0,0.1,0,0.2-0.1l0.6-0.4l2.2-1.4c0.9-0.6,2.1-1.3,3.5-2.1s3-1.8,4.8-2.7l2.8-1.5
			c1-0.5,2-1,3.1-1.5c2.1-1.1,4.5-2.1,6.9-3.2c4.9-2.1,10.4-4.2,16.3-6s11.6-3.2,16.9-4.2c2.6-0.5,5.1-1,7.5-1.3
			c1.2-0.2,2.3-0.4,3.4-0.5l3.2-0.4c2-0.2,3.8-0.3,5.4-0.5s3-0.2,4.1-0.2l2.6-0.1h0.7c0.1,0,0.2,0,0.2,0H261l-0.7,0.1l-2.6,0.2
			c-1.1,0.1-2.5,0.1-4.1,0.3s-3.4,0.3-5.4,0.5l-3.1,0.4c-1.1,0.1-2.2,0.3-3.4,0.5c-2.4,0.3-4.8,0.8-7.5,1.3
			c-5.2,1.1-10.9,2.5-16.8,4.2s-11.4,3.9-16.3,5.9c-2.4,1.1-4.8,2.1-6.9,3.1c-1.1,0.5-2.1,1-3.1,1.5l-2.8,1.5
			c-1.8,0.9-3.4,1.8-4.8,2.6s-2.6,1.5-3.6,2l-2.2,1.3l-0.6,0.3C176.9,324.9,176.8,324.9,176.8,324.9z"/>
		<path class="st6" d="M296,292c0.1,0.1-2.5,1.2-5.4,3.1s-4.9,3.9-5,3.7C288.3,295.6,291.9,293.3,296,292L296,292z"/>
		<path class="st6" d="M312.9,297.4c0,0.1-1.5-0.6-3.9-1.2c-3.2-0.8-6.5-1.1-9.8-0.9c-3.3,0.1-6.5,1-9.4,2.5
			c-1.2,0.7-2.2,1.6-2.9,2.8c0.1-0.4,0.3-0.7,0.5-1c0.6-0.8,1.4-1.5,2.2-2.1c2.2-1.4,5.7-2.4,9.6-2.7c3.3-0.2,6.7,0.1,9.9,1.1
			c1,0.3,1.9,0.6,2.9,1C312.2,297,312.6,297.2,312.9,297.4z"/>
		<path class="st2" d="M280,305.8l1.2,2.8c0.3,0.7,0.6,1.5,0.7,2.3s-0.1,1.6-0.7,2.2c-0.9,0.8-2.3,0.9-3.3,0.2
			c-0.9-0.7-1.6-1.7-2-2.8c-0.4-1.1-0.7-2.3-1.2-3.3c1.3-1.2,1.9-3,1.6-4.8C276.4,302.4,277.4,305.6,280,305.8z"/>
		<path class="st6" d="M263.7,295.5c1.8-3.6,5-6.3,8.9-7.4c6.4-1.7,13,5,13,5s-7.7-2.3-7.6,1.6s2.4,3.7-0.2,6.3s-7-0.1-8-3.1
			l-2.1-2.9L263.7,295.5z"/>
		<path class="st6" d="M290.1,299.3c0,0,0,0.1,0,0.4s0,0.7,0,1c-0.2,1.3-0.7,2.5-1.5,3.5c-1.2,1.6-2.9,2.6-4.9,2.8
			c-2.4,0.2-4.8-0.8-6.3-2.6c-0.8-0.9-1.3-1.9-1.6-3.1l0.5-0.1c0.6,1.9,0.3,4-0.8,5.6c-1.6,2.2-4.3,3.1-6.9,2.3
			c-0.3-0.1-0.5-0.2-0.8-0.3c-0.2-0.1-0.2-0.1-0.2-0.2s0.4,0.1,1,0.3c1,0.2,2,0.2,2.9,0c1.4-0.3,2.7-1.2,3.5-2.4
			c1-1.5,1.3-3.5,0.7-5.2l0.5-0.1c0.3,1.1,0.8,2,1.5,2.8c1.5,1.7,3.6,2.6,5.9,2.5c1.8-0.2,3.5-1.1,4.6-2.6c0.8-1,1.3-2.1,1.6-3.3
			C290.1,299.8,290.1,299.3,290.1,299.3z"/>
		<path class="st5" d="M277.8,289.1c-0.7,0.1-1.3,0.1-2,0.1c-1.6,0-3.2,0.2-4.8,0.6c-1.5,0.4-2.9,1.3-4.1,2.4
			c-0.8,0.9-1.1,1.6-1.2,1.6c0.1-0.7,0.5-1.3,0.9-1.9c1.1-1.3,2.5-2.2,4.2-2.7c1.6-0.4,3.3-0.6,5-0.5
			C276.4,288.8,277.1,288.9,277.8,289.1z"/>
		<path class="st6" d="M279.7,313.9c-1-1.6-1.7-3.4-2.2-5.2c-0.6-1.8-1-3.6-1.1-5.5c0.1,0,0.7,2.4,1.6,5.4S279.8,313.9,279.7,313.9z
			"/>
		<path class="st6" d="M208.5,325.2c0.1-0.1,0.3-0.2,0.4-0.4l1.2-0.9c1-0.8,2.6-1.9,4.6-3.2s4.4-2.8,7.2-4.3s5.9-3,9.2-4.4
			s6.6-2.5,9.6-3.4s5.8-1.6,8.1-2s4.2-0.8,5.6-1l1.5-0.2c0.2,0,0.4,0,0.5,0c-0.2,0.1-0.3,0.1-0.5,0.1l-1.5,0.3
			c-1.3,0.2-3.2,0.6-5.5,1.1s-5,1.2-8,2.1s-6.2,2.1-9.6,3.4s-6.4,2.9-9.2,4.3s-5.2,2.9-7.2,4.1s-3.6,2.3-4.7,3.1l-1.3,0.9
			C208.6,325.1,208.5,325.2,208.5,325.2z"/>
		
			<ellipse transform="matrix(0.2319 -0.9727 0.9727 0.2319 -86.6666 442.1544)" class="st2" cx="236.6" cy="276" rx="22.6" ry="22.5"/>
		<path class="st6" d="M259.2,275.9c0,10.9-7.4,19.7-13.6,19.7s-11.2-8.8-11.2-19.7s5-19.7,11.3-19.7S259.2,265,259.2,275.9z"/>
		<circle class="st5" cx="250.6" cy="264.8" r="3.9"/>
		<path class="st5" d="M240.7,290.2c-0.2-0.3-0.4-0.6-0.6-0.9c-0.5-0.9-0.9-1.8-1.2-2.8c-0.5-1.4-0.9-2.8-1.2-4.3
			c-0.3-1.8-0.5-3.6-0.6-5.4c0-1.8,0.1-3.7,0.4-5.5c0.3-1.5,0.6-2.9,1.1-4.3c0.3-1,0.7-1.9,1.1-2.8c0.1-0.4,0.3-0.7,0.5-1
			c0.1,0-0.6,1.5-1.3,3.9c-0.4,1.4-0.8,2.8-1,4.3c-0.3,1.8-0.4,3.6-0.4,5.4s0.2,3.6,0.5,5.4c0.3,1.4,0.6,2.9,1.1,4.3
			C240,288.8,240.8,290.2,240.7,290.2z"/>
		<path class="st6" d="M230.9,247.2c-0.1,0.7-0.9,1.3-2,1.8s-2.6,1-4.1,1.7s-2.8,1.2-3.9,1.7c-1.1,0.5-2,0.8-2.6,0.4s-0.7-1.5,0-2.9
			c1-1.8,2.6-3.2,4.5-4s3.9-1,5.9-0.5C230.2,245.7,231,246.5,230.9,247.2z"/>
		<path class="st3" d="M123.3,439.3l5.1-7.9c24.1,26.5,103.9,58.1,175.3-13.2c30.7-30.6,28.2-82.4,28.2-82.4l-6.1-19.2h6.1
			c0,0,17.7,32.6-0.8,75.3c0,0-19,50.6-77.2,69C162.1,489.9,123.3,439.3,123.3,439.3z"/>
		<g class="st8">
			<path class="st5" d="M123.3,439.3l5.1-7.9c24.1,26.5,103.9,58.1,175.3-13.2c30.7-30.6,28.2-82.4,28.2-82.4l-6.1-19.2h6.1
				c0,0,17.7,32.6-0.8,75.3c0,0-19,50.6-77.2,69C162.1,489.9,123.3,439.3,123.3,439.3z"/>
		</g>
		<circle class="st3" cx="91.3" cy="418.3" r="43.4"/>
		<g class="st8">
			<circle class="st5" cx="91.3" cy="418.3" r="43.4"/>
		</g>
		<path class="st3" d="M101.7,376.2c0,0.3-0.1,0.6-0.2,0.8c-0.1,0.6-0.3,1.4-0.5,2.4c-0.1,0.5-0.2,1.1-0.4,1.7s-0.4,1.3-0.6,2
			c-0.4,1.4-0.8,3.1-1.5,4.8l-1,2.8c-0.3,1-0.8,1.9-1.2,3c-0.8,2-1.8,4.2-2.9,6.4c-2.4,4.8-5.2,9.4-8.2,13.8
			c-3.1,4.4-6.6,8.5-10.3,12.3c-1.8,1.7-3.4,3.4-5.1,4.8c-0.8,0.7-1.6,1.5-2.4,2.1l-2.3,1.8c-1.4,1.2-2.8,2.1-4,3
			c-0.6,0.4-1.2,0.8-1.7,1.2l-1.5,0.9l-2,1.3c-0.2,0.2-0.5,0.3-0.7,0.4c0.2-0.2,0.4-0.3,0.7-0.5l2-1.3l1.4-1
			c0.5-0.4,1.1-0.8,1.7-1.2c1.2-0.9,2.6-1.9,4-3.1l2.3-1.8c0.8-0.6,1.5-1.4,2.4-2.1c1.7-1.4,3.3-3.1,5-4.8
			c3.7-3.8,7.1-7.9,10.2-12.3s5.8-8.9,8.2-13.7c1.1-2.2,2.1-4.3,2.9-6.3c0.4-1,0.9-2,1.2-2.9s0.7-1.9,1-2.7c0.7-1.7,1.1-3.4,1.6-4.8
			c0.2-0.7,0.4-1.4,0.6-2s0.3-1.2,0.4-1.7c0.3-1,0.5-1.8,0.6-2.3C101.5,376.7,101.6,376.5,101.7,376.2z"/>
		<path class="st3" d="M111.9,380.6c0,0.3-0.1,0.6-0.2,0.9c-0.1,0.6-0.3,1.4-0.6,2.5c-0.1,0.5-0.3,1.1-0.4,1.8s-0.4,1.3-0.6,2.1
			c-0.5,1.5-0.9,3.2-1.7,5.1l-1.1,2.9c-0.4,1-0.9,2-1.3,3.1c-0.9,2.1-2,4.4-3.2,6.7c-2.7,5-5.7,9.8-9.1,14.3
			c-3.5,4.5-7.2,8.7-11.3,12.6c-1.9,1.8-3.7,3.5-5.6,4.9c-0.9,0.7-1.7,1.5-2.6,2.1l-2.5,1.9c-1.5,1.2-3.1,2.1-4.4,3
			s-2.5,1.6-3.4,2.1l-2.2,1.3c-0.2,0.2-0.5,0.3-0.8,0.4c0.2-0.2,0.5-0.4,0.7-0.5l2.1-1.4c0.9-0.6,2.1-1.3,3.3-2.2
			c1.2-0.9,2.8-1.9,4.3-3.1l2.4-1.8c0.9-0.6,1.7-1.4,2.6-2.1c1.8-1.5,3.6-3.1,5.5-4.9c4-3.9,7.8-8.1,11.2-12.6
			c3.4-4.5,6.4-9.3,9.1-14.2c1.2-2.3,2.3-4.5,3.2-6.6c0.4-1.1,1-2.1,1.3-3.1s0.8-2,1.1-2.9c0.8-1.8,1.2-3.5,1.7-5
			c0.2-0.8,0.5-1.4,0.7-2.1s0.3-1.2,0.5-1.8c0.3-1,0.5-1.8,0.7-2.4C111.7,381.2,111.8,380.9,111.9,380.6z"/>
		<path class="st3" d="M121.4,388.4c-0.1,0.3-0.1,0.6-0.2,0.9c-0.2,0.6-0.4,1.4-0.7,2.5c-0.2,0.5-0.3,1.1-0.5,1.8s-0.5,1.3-0.8,2.1
			c-0.6,1.5-1.1,3.2-2,5l-1.2,2.9c-0.4,1-0.9,2-1.5,3.1c-1,2.1-2.2,4.3-3.5,6.6c-2.8,4.9-6,9.7-9.5,14.2c-3.6,4.5-7.4,8.7-11.6,12.6
			c-2,1.8-3.8,3.5-5.6,4.9c-0.9,0.7-1.8,1.5-2.6,2.1l-2.5,1.9c-1.6,1.2-3.1,2.2-4.4,3c-0.7,0.4-1.3,0.9-1.8,1.2l-1.6,0.9l-2.2,1.3
			c-0.3,0.2-0.5,0.3-0.8,0.4c0.2-0.2,0.5-0.4,0.7-0.5l2.2-1.4l1.6-1c0.6-0.4,1.2-0.8,1.8-1.2c1.3-0.9,2.8-1.9,4.4-3.1
			c0.8-0.6,1.6-1.2,2.5-1.9s1.7-1.4,2.6-2.1c1.8-1.5,3.6-3.2,5.6-4.9c4.1-3.9,8-8.1,11.5-12.6s6.7-9.2,9.6-14.1
			c1.3-2.3,2.5-4.5,3.5-6.6c0.5-1,1-2,1.5-3s0.8-2,1.2-2.9c0.8-1.8,1.4-3.5,2-5c0.3-0.7,0.6-1.4,0.8-2s0.4-1.2,0.6-1.8
			c0.3-1,0.6-1.8,0.8-2.4C121.2,388.9,121.3,388.7,121.4,388.4z"/>
		<path class="st3" d="M132.8,429.5c-0.3-0.1-0.7-0.2-1-0.4c-0.6-0.3-1.5-0.7-2.5-1.3c-2.1-1.1-5-2.7-8.2-4.6s-5.9-3.7-7.9-5
			c-1-0.7-1.8-1.2-2.3-1.6c-0.3-0.2-0.6-0.4-0.8-0.7c0.3,0.1,0.6,0.3,0.9,0.5l2.4,1.5c2,1.3,4.8,3,7.9,4.9s6,3.5,8.1,4.7l2.4,1.4
			C132.2,429.1,132.5,429.3,132.8,429.5z"/>
		<path class="st3" d="M134.6,420.2c-1-0.6-2-1.2-2.9-1.9c-1.8-1.2-4.2-2.9-7-4.5s-5.4-3.1-7.3-4.2c-1-0.5-2-1.1-3-1.8
			c0.3,0.1,0.6,0.2,0.9,0.3c0.6,0.2,1.3,0.6,2.3,1.1c1.9,1,4.6,2.4,7.4,4s5.2,3.4,7,4.7c0.9,0.6,1.6,1.2,2,1.6
			C134.4,419.9,134.6,420.2,134.6,420.2z"/>
		<path class="st3" d="M107.9,457.5c-0.2,0-0.5-7.9-0.8-17.8s-0.4-17.8-0.2-17.8s0.5,7.9,0.8,17.8S108,457.5,107.9,457.5z"/>
		<path class="st3" d="M86.5,462.5c-0.3-3.3-0.4-6.6-0.3-9.9c-0.1-3.3,0-6.6,0.3-9.9c0.3,3.3,0.3,6.6,0.3,9.9
			C86.9,455.9,86.8,459.2,86.5,462.5z"/>
		<path class="st3" d="M97,461.3c-0.1,0-0.2-6.5-0.2-14.5s0.2-14.5,0.4-14.5s0.2,6.5,0.2,14.5S97.2,461.3,97,461.3z"/>
		<path class="st3" d="M74.9,426.1c-0.1,0.1-5.7-3.5-12.6-8.2s-12.4-8.5-12.3-8.6s5.7,3.5,12.6,8.2S74.9,426,74.9,426.1z"/>
		<path class="st3" d="M67.3,432.3c-0.3,0-0.6-0.1-0.9-0.3c-0.5-0.2-1.3-0.5-2.2-1c-2.4-1.2-4.7-2.5-7-3.9c-2.7-1.7-5-3.4-6.6-4.6
			c-0.9-0.6-1.8-1.3-2.6-2.1c1,0.5,1.9,1.2,2.8,1.8c1.7,1.2,4,2.8,6.7,4.5s5.1,3,6.9,4C65.4,431.2,66.4,431.7,67.3,432.3z"/>
		<path class="st3" d="M93.3,399.9c-0.5,0.2-1,0.4-1.5,0.6c-0.6,0.2-1.2,0.4-1.8,0.6c-0.7,0.2-1.5,0.4-2.5,0.6
			c-2.2,0.5-4.3,0.8-6.5,1c-2.7,0.2-5.4,0.3-8.1,0.2c-2.7-0.1-5.4-0.3-8.1-0.8c-2.2-0.3-4.3-0.8-6.5-1.4c-0.9-0.2-1.7-0.5-2.4-0.7
			s-1.3-0.4-1.8-0.6s-1-0.4-1.5-0.6c0.5,0.1,1.1,0.3,1.6,0.5s1.1,0.4,1.8,0.5s1.5,0.4,2.4,0.6c1.8,0.5,4,0.9,6.5,1.3
			c2.7,0.4,5.3,0.6,8,0.7s5.3,0,8-0.2c2.2-0.2,4.4-0.5,6.5-0.9c0.9-0.2,1.8-0.4,2.5-0.5s1.3-0.3,1.8-0.5
			C92.2,400.1,92.8,400,93.3,399.9z"/>
		<path class="st3" d="M98.1,388.7c-0.5,0.3-1,0.5-1.5,0.7s-1.1,0.4-1.8,0.7s-1.5,0.5-2.4,0.8c-2.1,0.6-4.2,1.2-6.4,1.6
			c-2.6,0.5-5.3,0.8-8,1s-5.4,0.2-8.1,0c-2.2-0.1-4.4-0.4-6.5-0.9c-0.9-0.2-1.8-0.4-2.5-0.6c-0.6-0.2-1.2-0.3-1.8-0.5
			c-0.5-0.2-1-0.3-1.5-0.6c0.5,0.1,1.1,0.2,1.6,0.4c0.5,0.1,1.1,0.3,1.8,0.5s1.5,0.4,2.5,0.5c2.1,0.4,4.3,0.6,6.5,0.7
			c2.7,0.1,5.3,0.1,8-0.1s5.3-0.5,7.9-1c2.4-0.5,4.6-0.9,6.4-1.5c0.9-0.2,1.7-0.5,2.4-0.7s1.3-0.4,1.8-0.6
			C97.1,388.9,97.6,388.8,98.1,388.7z"/>
		<path class="st3" d="M101.1,378.8c-0.4,0.2-0.9,0.4-1.3,0.5c-0.9,0.3-2.1,0.8-3.7,1.2c-4.1,1.3-8.3,2.2-12.6,2.8
			c-4.3,0.6-8.6,0.9-12.9,0.7c-1.7-0.1-3-0.2-3.9-0.3c-0.5,0-1-0.1-1.4-0.2c0.5,0,1,0,1.4,0c0.9,0,2.2,0.1,3.9,0.1
			c4.3,0,8.5-0.2,12.8-0.8c4.2-0.6,8.4-1.5,12.6-2.7c1.6-0.4,2.9-0.8,3.7-1.1C100.1,379,100.6,378.9,101.1,378.8z"/>
		<path class="st3" d="M118.6,421.4c-1.7,2.3-3.6,4.4-5.6,6.5c-1.9,2.2-3.8,4.2-5.9,6.1c1.7-2.3,3.6-4.4,5.6-6.5
			C114.5,425.4,116.5,423.4,118.6,421.4z"/>
		<path class="st3" d="M126.9,426.4c-0.1,0.3-0.3,0.6-0.4,0.8c-0.3,0.5-0.8,1.3-1.5,2.1c-3.4,4.6-7.8,8.5-12.8,11.3
			c-1,0.5-1.8,0.9-2.3,1.2c-0.3,0.2-0.6,0.3-0.9,0.3c0-0.1,1.2-0.7,3-1.8c2.4-1.5,4.7-3.1,6.8-5c2.1-1.9,4.1-3.9,5.8-6.1
			C126.1,427.4,126.8,426.3,126.9,426.4z"/>
		<path class="st3" d="M129.5,430.8c-0.4,4-2.4,7.6-5.6,10c1.3-1.5,2.4-3,3.4-4.7C128.1,434.4,128.9,432.6,129.5,430.8z"/>
		<path class="st3" d="M137.8,440c-0.3,1.6-1,3.1-2.1,4.3c-1,1.3-2.3,2.4-3.8,3c1.2-1,2.3-2.1,3.4-3.3
			C136.2,442.7,137.1,441.4,137.8,440z"/>
		<path class="st3" d="M151.4,448.3c0,1.7-0.4,3.4-1.3,4.9c-0.8,1.6-1.9,2.9-3.4,3.7c1.1-1.2,2.1-2.6,3-4
			C150.4,451.5,151,449.9,151.4,448.3z"/>
		<path class="st3" d="M166.9,455.8c0.4,1.6,0.2,3.3-0.5,4.8c-0.5,1.6-1.6,2.9-2.9,3.9C165.6,462,166.8,459,166.9,455.8z"/>
		<path class="st3" d="M181.3,468.5c-0.1,0,0.4-2,0.6-4.4s-0.2-4.5-0.1-4.5C182.8,462.6,182.6,465.8,181.3,468.5z"/>
		<path class="st3" d="M193,469.4c-0.1-0.1,0.6-1.8,0.8-4.1s-0.2-4.1,0-4.1C194.8,463.9,194.5,466.9,193,469.4L193,469.4z"/>
		<path class="st3" d="M209.5,469.3c-0.1,0,0.1-1.7-0.2-3.8s-0.9-3.6-0.8-3.7c0.8,1.1,1.2,2.3,1.3,3.6
			C210.1,466.8,209.9,468.1,209.5,469.3z"/>
		<path class="st3" d="M220.8,468.3c-0.2,0-0.2-1.6-0.7-3.5s-1.4-3.3-1.2-3.3C220.5,463.4,221.2,465.9,220.8,468.3z"/>
		<path class="st3" d="M234.2,465.4c-0.2,0-0.1-1.6-0.7-3.4s-1.5-3-1.4-3.1C233.9,460.5,234.7,463,234.2,465.4L234.2,465.4z"/>
		<path class="st3" d="M250.6,462c-0.2,0-0.2-1.8-0.9-3.7s-1.8-3.4-1.7-3.5C249.9,456.7,250.9,459.3,250.6,462L250.6,462z"/>
		<path class="st3" d="M264.4,456.6c-0.1,0-0.7-1.8-1.9-3.8c-1.2-2-2.5-3.3-2.4-3.5C262.4,451.2,264,453.8,264.4,456.6L264.4,456.6z
			"/>
		<path class="st3" d="M279.9,448.5c-0.1,0-0.6-1.9-1.9-3.9s-2.7-3.3-2.6-3.4C277.9,442.8,279.5,445.5,279.9,448.5L279.9,448.5z"/>
		<path class="st3" d="M295,437.7c-0.7-1.2-1.4-2.3-2.2-3.4c-0.9-1-1.9-1.8-3-2.7c1.4,0.4,2.6,1.2,3.4,2.3
			C294.2,435,294.8,436.3,295,437.7z"/>
		<path class="st3" d="M307.9,426.6c-0.1,0.1-1.3-1.5-3.1-3.2s-3.5-2.7-3.4-2.9c1.4,0.5,2.7,1.4,3.8,2.5
			C306.3,424.1,307.3,425.3,307.9,426.6z"/>
		<path class="st3" d="M319.5,412.2c-0.1,0.1-1.1-1.5-2.9-3s-3.5-2.2-3.5-2.4C316,407.6,318.3,409.6,319.5,412.2L319.5,412.2z"/>
		<path class="st3" d="M329.8,395.1c-1.2-0.9-2.4-1.8-3.6-2.6c-1.3-0.6-2.7-1.2-4.1-1.7c1.6,0,3.1,0.4,4.4,1.2
			C327.8,392.7,329,393.8,329.8,395.1z"/>
		<path class="st3" d="M336.1,376.5c-2.7-1.6-5.8-2.3-8.9-2.1C330.3,373.5,333.7,374.3,336.1,376.5z"/>
		<path class="st3" d="M338.9,356.7c0,0.1-1.7-0.4-3.8-0.6s-3.8,0-3.8-0.2C333.9,355.1,336.6,355.4,338.9,356.7L338.9,356.7z"/>
		<path class="st3" d="M337.9,336.7c-0.9,0.1-1.9,0.2-2.8,0.1c-0.9,0.1-1.9,0.2-2.8,0.1C334,336.2,336,336.1,337.9,336.7
			L337.9,336.7z"/>
		<path class="st3" d="M333.8,323c-1-0.2-2-0.3-3-0.3c-1,0.2-1.9,0.5-2.8,0.9c0,0,0.2-0.3,0.7-0.7c0.6-0.4,1.4-0.7,2.1-0.8
			c0.8-0.1,1.5,0,2.2,0.3C333.5,322.7,333.8,323,333.8,323z"/>
		<g class="st4">
			<path d="M266,390.3c4.9,9.2,16.2,13.9,26.5,12.7s19.5-7.7,26-15.9c4.8-6.1,8.3-13.9,6.3-21.4c-10.6,22.1-36.5,32.3-59.4,23.3"/>
		</g>
		<path class="st3" d="M326.5,311.1c-4.8-7.4-2.9-17.4,4.3-22.5c2.8-2,6.1-3.1,8.7-5.2c3.2-2.8,5.2-6.8,5.4-11.1
			c0.2-4.3-0.7-8.5-2.7-12.2l2.8-1.4l0.2,0.3c6.9,9.1,5.1,22-3.9,28.9c-1.1,0.8-2.2,1.5-3.4,2.1c-2.1,1-4,2.2-5.8,3.6
			c-3.5,3-2,6.4-2,6.4"/>
		<g class="st8">
			<path class="st5" d="M326.5,311.1c-4.8-7.4-2.9-17.4,4.3-22.5c2.8-2,6.1-3.1,8.7-5.2c3.2-2.8,5.2-6.8,5.4-11.1
				c0.2-4.3-0.7-8.5-2.7-12.2l2.8-1.4l0.2,0.3c6.9,9.1,5.1,22-3.9,28.9c-1.1,0.8-2.2,1.5-3.4,2.1c-2.1,1-4,2.2-5.8,3.6
				c-3.5,3-2,6.4-2,6.4"/>
		</g>
		<path class="st3" d="M330.4,300.1c-1.1-0.2-2.3-0.3-3.4-0.3c-1.1,0.2-2.3,0.5-3.3,0.9C325.5,299,328.3,298.7,330.4,300.1z"/>
		<path class="st3" d="M333,292.4c-0.1,0-0.6-0.8-1.4-1.6s-1.7-1.3-1.6-1.4s1.1,0.1,2,1S333.2,292.4,333,292.4z"/>
		<path class="st3" d="M342.8,286.6c-0.1,0-0.5-0.9-1.3-1.9s-1.6-1.5-1.6-1.6s1.1,0.3,2,1.3S343,286.6,342.8,286.6z"/>
		<path class="st3" d="M349.4,274.2c-0.8-0.1-1.5-0.2-2.3-0.4c-0.8,0-1.5-0.1-2.3-0.2C346.4,273,348.1,273.2,349.4,274.2z"/>
		<path class="st3" d="M347.2,262.2c0,0.1-0.9,0.1-1.8,0.4s-1.6,0.7-1.7,0.6s0.5-0.8,1.6-1.1S347.2,262,347.2,262.2z"/>
		<path class="st3" d="M254.6,336.2c3.5-2.3,8.2-1.5,12.3-0.2s8,3.2,12.3,2.8c4.6-0.4,8.5-3.5,11.5-7c3.7-4.3,6.5-9.3,8.2-14.8
			s2.5-12,7.3-15.3s11.4-1.6,15.5,2.2s6.1,9.5,7.4,15c3,12.7,3,26.3-1.1,38.7s-12.6,23.5-24.1,29.8s-26,7.1-37.7,1.3"/>
		<path class="st6" d="M266.1,388.7c0.2,0.1,0.4,0.1,0.5,0.2l1.6,0.7c0.7,0.3,1.6,0.6,2.6,1s2.2,0.7,3.6,1c3.4,0.7,6.8,1,10.3,0.9
			c2.1-0.1,4.3-0.3,6.4-0.7c2.4-0.4,4.7-1.1,7-1.9c5.2-1.9,10-4.8,14.1-8.5c4.8-4.2,8.7-9.2,11.7-14.9c3.3-6.2,5.4-12.9,6.3-19.9
			c1-7.5,0.8-15.1-0.5-22.5c-0.6-3.8-1.5-7.5-2.8-11.1c-1.2-3.5-3.2-6.7-5.9-9.2c-2.7-2.4-6.1-3.6-9.7-3.5c-1.7,0.1-3.4,0.6-4.8,1.5
			s-2.6,2.2-3.4,3.6c-1.7,2.8-2.5,6.1-3.3,9.1c-0.7,3-1.8,5.9-3.2,8.7c-1.3,2.6-2.8,5.1-4.7,7.3c-1.6,2.1-3.6,4-5.8,5.6
			c-2,1.5-4.3,2.4-6.7,2.7c-2.2,0.2-4.4,0-6.5-0.7c-3.9-1.1-7.1-2.6-9.9-3.1c-2.1-0.5-4.3-0.4-6.4,0.2c-0.5,0.2-1.1,0.4-1.6,0.6
			c-0.3,0.2-0.5,0.3-0.5,0.3l0.5-0.3c0.5-0.3,1-0.5,1.6-0.7c2.1-0.6,4.4-0.7,6.5-0.3c2.8,0.4,6.1,1.9,9.9,3c2,0.6,4.2,0.8,6.3,0.6
			c2.4-0.3,4.6-1.3,6.6-2.7c2.1-1.6,4-3.4,5.7-5.5c1.8-2.2,3.3-4.7,4.6-7.3c1.3-2.8,2.4-5.7,3.1-8.7c0.8-3,1.6-6.3,3.3-9.3
			c0.9-1.5,2.1-2.8,3.5-3.8c1.5-1,3.2-1.5,5-1.6s3.6,0.2,5.3,0.8c1.7,0.6,3.4,1.6,4.8,2.8c2.8,2.6,4.9,5.8,6.1,9.4
			c1.3,3.6,2.2,7.4,2.8,11.2c1.3,7.5,1.5,15.1,0.5,22.6c-0.9,7-3.1,13.8-6.4,20.1c-3,5.7-7,10.8-11.8,15c-4.2,3.7-9,6.6-14.3,8.5
			c-2.3,0.8-4.6,1.5-7,1.9c-2.1,0.4-4.3,0.6-6.5,0.7c-3.5,0.1-6.9-0.2-10.3-1c-1.4-0.3-2.6-0.7-3.6-1s-1.9-0.7-2.6-1l-1.5-0.7
			C266.3,388.8,266.1,388.7,266.1,388.7z"/>
		<path class="st6" d="M309.2,313.4c-0.5-0.4-0.9-1-1.2-1.6c-0.8-1.4-1.1-3-1.1-4.6s0.4-3.2,1.2-4.6c0.3-0.6,0.7-1.1,1.2-1.5
			c0.1,0.1-0.4,0.6-0.9,1.7c-1.3,2.8-1.4,6.1-0.1,8.9C308.8,312.8,309.3,313.4,309.2,313.4z"/>
		<path class="st6" d="M315.2,312.6c-0.5-0.5-0.8-1-1.1-1.6c-0.7-1.4-1.1-3-1.2-4.6s0.1-3.2,0.6-4.7c0.2-0.6,0.5-1.2,0.9-1.8
			C313,304,313.2,308.6,315.2,312.6L315.2,312.6z"/>
		<path class="st6" d="M320.1,314.3c-0.6-1.5-0.9-3.2-0.8-4.8c0-1.6,0.3-3.3,1-4.8c0.1,0-0.4,2.1-0.5,4.8S320.3,314.3,320.1,314.3z"
			/>
		<path class="st3" d="M403.6,326.8c-9.1,5.6-21.3,4.5-30.8-0.5s-16.7-13.4-22.6-22.2c-1.7-2.5-3.4-5.1-6.1-6.7
			c-5.2-3-12.4-0.1-15.3,5s-2.4,11.6-0.1,17.1c0,0,6.1,29.6,37.9,47.9"/>
		<path class="st6" d="M366.5,367.5c-0.1,0-0.2-0.1-0.3-0.1l-0.8-0.5c-0.7-0.4-1.7-1-3-1.8c-0.6-0.4-1.4-0.8-2.1-1.4l-2.5-1.8
			c-0.9-0.7-1.9-1.3-2.8-2.1l-3-2.6c-4.9-4.4-9.4-9.4-13.1-14.9c-2.3-3.3-4.3-6.8-6-10.4c-1.9-3.9-3.5-8-4.6-12.3l0,0
			c-1.5-3.5-2.2-7.3-1.9-11.1c0.2-2,0.8-3.9,1.7-5.7c2.4-4.6,7.3-7.3,12.4-6.9c1.5,0.2,2.9,0.7,4.1,1.5s2.2,1.8,3.1,2.9
			s1.7,2.3,2.4,3.4s1.5,2.2,2.3,3.3c1.6,2.2,3.2,4.2,4.9,6.2c3.1,3.7,6.7,7,10.6,9.8c3.4,2.5,7.2,4.4,11.3,5.6
			c5.8,1.9,12.1,2.1,18,0.6c0.5-0.1,1-0.3,1.5-0.5s0.9-0.3,1.3-0.5c0.8-0.3,1.4-0.6,1.9-0.9l1.1-0.6c0.1-0.1,0.3-0.1,0.4-0.2
			c-0.1,0.1-0.2,0.2-0.4,0.2l-1.1,0.6c-0.5,0.3-1.1,0.5-1.9,0.9c-0.4,0.2-0.8,0.3-1.3,0.5s-1,0.4-1.5,0.5c-6,1.6-12.3,1.5-18.2-0.4
			c-4.1-1.2-7.9-3.1-11.4-5.6c-4-2.8-7.6-6.1-10.7-9.9c-1.7-1.9-3.3-4-4.9-6.2c-0.8-1.1-1.6-2.2-2.3-3.3s-1.5-2.3-2.4-3.4
			s-1.9-2-3-2.8c-1.2-0.8-2.5-1.2-3.9-1.4c-2.9-0.3-5.7,0.5-8.1,2.2c-3.2,2.3-5.2,5.9-5.4,9.8c-0.3,3.7,0.3,7.4,1.8,10.8l0,0
			c1.1,4.2,2.6,8.3,4.5,12.2c1.7,3.6,3.7,7.1,6,10.3c3.7,5.5,8.1,10.5,13,14.9l3,2.6c0.9,0.8,1.9,1.5,2.8,2.1l2.4,1.8
			c0.7,0.6,1.5,1,2.1,1.4l2.9,1.9l0.8,0.5C366.4,367.4,366.5,367.5,366.5,367.5z"/>
		<path class="st6" d="M337.2,314.2c-0.8-2.4-1.8-4.7-3.2-6.9c-2.3-3.5-5.3-5.3-5.2-5.5c0.7,0.3,1.3,0.7,1.9,1.2
			c2.9,2.3,5,5.4,6.1,8.9C337.1,312.7,337.2,313.4,337.2,314.2z"/>
		<path class="st6" d="M343.4,310.2c-0.4-2.5-1.1-5-2.2-7.4c-1.2-2.3-2.7-4.4-4.4-6.3c0.7,0.4,1.2,0.9,1.8,1.5
			c1.3,1.3,2.3,2.9,3.1,4.6c0.8,1.7,1.4,3.5,1.6,5.3C343.5,308.6,343.5,309.4,343.4,310.2z"/>
		<g class="st4">
			<path class="st5" d="M322.7,368.9c2.5-3.8-7.8-4.7-12.3-4.2c-13.7,1.6-24,13.3-23.8,27.1C286.6,391.8,306.4,393.9,322.7,368.9z"
				/>
		</g>
		<g class="st4">
			<path d="M339.6,351.9c5.2,8,12.9,13.9,21.9,17c0.9,0.4,2,0.6,3,0.4s1.8-1,1.9-2.1c-10.7-5.8-19.9-14.1-26.7-24.1
				c-0.5,3.1-0.1,6.2,1.3,9.1"/>
		</g>
		<circle class="st2" cx="309.9" cy="268.4" r="22.5"/>
		<path class="st6" d="M332.4,269.4c0,10.9-5.7,20-12.1,20s-11.5-8.8-11.5-19.7S314,250,320.3,250S332.4,258.5,332.4,269.4z"/>
		<path class="st5" d="M314.7,278.7c-0.2-0.2-0.3-0.5-0.5-0.7c-0.4-0.7-0.7-1.4-0.9-2.2c-1.7-5-1.6-10.5,0.4-15.4
			c0.3-0.7,0.7-1.4,1.1-2.1c0.1-0.3,0.3-0.5,0.5-0.7c0.1,0-0.5,1.1-1.2,3c-0.9,2.4-1.4,5-1.4,7.6c-0.1,2.6,0.3,5.1,1,7.6
			C314.2,277.6,314.8,278.7,314.7,278.7z"/>
		<circle class="st5" cx="323.2" cy="257" r="3.9"/>
		<path class="st6" d="M324.5,240.6c-0.4,0.6-1.5,0.6-2.9,0.4s-3.1-0.6-5-0.9s-3.5-0.5-4.9-0.7s-2.4-0.5-2.7-1.1s0.4-1.6,1.9-2.5
			c0.9-0.5,1.9-0.8,2.9-0.9c1.2-0.2,2.4-0.2,3.7,0c2.2,0.3,4.2,1.3,5.8,2.8C324.5,238.9,324.9,240,324.5,240.6z"/>
		<path class="st3" d="M314.3,296.6c-4-8.2-0.6-18,7.6-21.9c6.7-3.2,14.7-1.6,19.5,3.9"/>
		<path class="st6" d="M341.4,278.6c0,0-0.5-0.5-1.4-1.2c-1.3-1.1-2.7-2-4.2-2.6c-2.3-1-4.7-1.4-7.2-1.4c-6.2-0.1-11.8,3.7-14.2,9.4
			c-1,2.3-1.5,4.7-1.5,7.2c0,1.7,0.3,3.3,0.8,4.9c0.4,1.1,0.6,1.7,0.6,1.7c-0.1-0.1-0.2-0.3-0.2-0.4c-0.2-0.4-0.4-0.8-0.5-1.3
			c-0.6-1.6-0.9-3.3-0.9-5c-0.1-2.5,0.4-5,1.4-7.4c2.4-5.9,8.2-9.8,14.6-9.7c2.5,0,5,0.5,7.3,1.5c1.6,0.7,3,1.6,4.2,2.8
			c0.3,0.3,0.7,0.6,1,1C341.2,278.3,341.3,278.4,341.4,278.6z"/>
		<path class="st6" d="M269.5,211.2c-0.2,0.1-0.3,0.1-0.5,0.2l-1.5,0.4c-0.6,0.2-1.4,0.4-2.4,0.7l-1.4,0.4l-1.6,0.6
			c-5.9,2.1-11.5,4.7-16.8,8s-10.4,6.9-15.2,10.9c-1.9,1.5-3.3,2.8-4.4,3.6l-1.2,1c-0.3,0.2-0.4,0.3-0.4,0.3
			c0.1-0.1,0.2-0.3,0.4-0.4l1.1-1.1c1-0.9,2.4-2.2,4.2-3.8c4.8-4.1,9.8-7.7,15.2-11c5.3-3.3,11-6,17-7.9l1.6-0.5l1.5-0.4
			c0.9-0.3,1.7-0.5,2.4-0.6l1.5-0.3C269.1,211.2,269.3,211.2,269.5,211.2z"/>
	</g>
	<g id="freepik--404-error--inject-2">
		<path class="st6" d="M124.8,91.6c-0.2-0.4-0.3-0.8-0.4-1.2c-0.1-0.4-0.2-0.9-0.4-1.4s-0.3-1.2-0.4-1.9c-0.3-1.7-0.4-3.3-0.5-5
			c0-2.1,0.1-4.1,0.4-6.2c0.3-2,0.8-4,1.5-6c0.6-1.6,1.2-3.1,2-4.6c0.3-0.7,0.7-1.2,0.9-1.7s0.6-0.9,0.8-1.2c0.2-0.4,0.5-0.7,0.8-1
			c0.1,0-0.9,1.5-2.1,4.1c-0.7,1.5-1.3,3-1.8,4.6c-0.6,1.9-1.1,3.9-1.4,5.9s-0.4,4-0.4,6.1c0,1.7,0.1,3.3,0.3,5
			C124.4,89.9,124.9,91.6,124.8,91.6z"/>
		
			<rect x="153.6" y="49.5" transform="matrix(0.9831 -0.1829 0.1829 0.9831 -15.9494 50.1536)" class="st5" width="220.6" height="124.1"/>
		<path class="st6" d="M383.6,152.3c0,0-0.2-0.7-0.4-2.2s-0.7-3.6-1.2-6.4c-1-5.6-2.6-13.8-4.6-24.4c-4-21.1-9.7-51.6-16.7-89
			l0.2,0.2L144.2,71l0,0l0.2-0.3c8,43.1,15.7,84.4,22.7,122l-0.3-0.2l156-28.9l44.8-8.3l11.9-2.2l3.1-0.6L383.6,152.3l-1,0.2l-3,0.6
			l-11.9,2.2l-44.7,8.4l-156.1,29.1l-0.2,0.1v-0.2c-7-37.6-14.7-78.8-22.7-122v-0.3h0.2l0,0L361,30.1h0.2v0.2l16.5,89.2
			c1.9,10.6,3.5,18.8,4.5,24.3l1.2,6.3C383.5,151.6,383.6,152.3,383.6,152.3z"/>
		<path class="st6" d="M237.4,117.5l-6.7,1.2l1.6,8.6l-12.3,2.3l-1.6-8.6l-23.7,4.4l-1.5-8.2l14.9-31.7l13.1-2.4l-13.4,29.5l9.1-1.7
			l-1.4-7.6l12-2.2l1.4,7.6l6.6-1.2L237.4,117.5z"/>
		<path class="st6" d="M237.4,103.2c-2.8-14.8,4-24.8,15.4-27s21.3,4.8,24,19.6s-4,24.8-15.4,26.9C250,124.8,240.1,118,237.4,103.2z
			 M264.1,98.2c-1.8-9.4-5.4-12.4-9.4-11.6c-4,0.8-6.4,4.8-4.6,14.2s5.3,12.4,9.4,11.6C263.6,111.6,265.8,107.6,264.1,98.2
			L264.1,98.2z"/>
		<path class="st6" d="M325.9,101l-6.6,1.2l1.6,8.6l-12.3,2.3l-1.6-8.6l-23.7,4.4l-1.5-8.2L296.7,69l13.1-2.4l-13.3,29.5l9.1-1.7
			l-1.4-7.6l12-2.2l1.4,7.6l6.6-1.2L325.9,101z"/>
		<path class="st6" d="M241.8,153.6l0.4,2.2l-12.7,2.4l-3.3-17.6l12.4-2.3l0.4,2.2l-9.9,1.8l1,5.4l8.8-1.6l0.4,2.1l-8.8,1.7l1.1,5.7
			L241.8,153.6z"/>
		<path class="st6" d="M258,152.8l-4.8-4.7c-0.3,0.1-0.7,0.2-1.1,0.3l-4.3,0.8l1,5.3l-2.5,0.5l-3.3-17.6l6.9-1.3
			c4.6-0.9,7.8,0.9,8.5,4.8c0.6,2.5-0.6,5.1-2.8,6.3l5.3,5.1L258,152.8z M255.8,141.4c-0.5-2.5-2.4-3.6-5.6-3l-4.3,0.8l1.5,7.9
			l4.3-0.8C254.8,145.6,256.3,143.9,255.8,141.4L255.8,141.4z"/>
		<path class="st6" d="M276.2,149.4l-4.8-4.7c-0.3,0.1-0.7,0.2-1.1,0.3l-4.3,0.8l1,5.4l-2.5,0.5l-3.3-17.6l6.8-1.3
			c4.6-0.9,7.8,1,8.5,4.8c0.6,2.5-0.6,5.1-2.8,6.3l5.3,5.1L276.2,149.4z M274,138c-0.5-2.5-2.4-3.6-5.6-3l-4.3,0.8l1.5,7.9l4.3-0.8
			C273.1,142.2,274.5,140.5,274,138L274,138z"/>
		<path class="st6" d="M279.6,139.7c-1-5.1,2.3-9.7,7.7-10.7s10,2.1,11,7.2s-2.3,9.7-7.6,10.7S280.6,144.8,279.6,139.7z
			 M295.8,136.7c-0.7-3.8-4.2-6.3-8-5.7s-6.3,4.2-5.7,8s4.2,6.3,8,5.7h0.1c3.7-0.6,6.2-4,5.6-7.6
			C295.8,136.9,295.8,136.8,295.8,136.7L295.8,136.7z"/>
		<path class="st6" d="M315.5,142.1l-4.8-4.7c-0.4,0.1-0.7,0.2-1.1,0.2l-4.3,0.8l1,5.3l-2.5,0.5l-3.3-17.6l6.9-1.3
			c4.6-0.8,7.8,0.9,8.5,4.8c0.6,2.5-0.6,5.1-2.8,6.3l5.3,5.1L315.5,142.1z M313.3,130.7c-0.5-2.5-2.4-3.6-5.6-3l-4.3,0.8l1.5,7.9
			l4.3-0.8C312.4,134.9,313.8,133.2,313.3,130.7L313.3,130.7z"/>
		<path class="st1" d="M356.4,43.6c0.1,2.5-1.8,4.6-4.3,4.7c-2.5,0.1-4.6-1.8-4.7-4.3s1.8-4.6,4.3-4.7l0,0
			C354.2,39.2,356.3,41.1,356.4,43.6z"/>
		<path class="st6" d="M353.8,40.4c0.2,1.2,0,2.5-0.6,3.5c-0.5,1.1-1.3,2.1-2.4,2.6c0.7-0.9,1.4-1.9,2-2.8
			C353.2,42.6,353.6,41.6,353.8,40.4z"/>
		<path class="st6" d="M354.7,45.2c-0.1,0.1-0.7-1.1-2.1-1.8c-0.9-0.3-1.8-0.6-2.7-0.7c0-0.1,0.3-0.2,0.9-0.2c0.7,0,1.4,0.1,2.1,0.5
			c0.6,0.3,1.2,0.8,1.6,1.4C354.7,44.9,354.8,45.2,354.7,45.2z"/>
		<path class="st6" d="M164.2,80.8c-0.1,0-0.1-0.4-0.3-1.1c-0.3-1-0.9-1.8-1.8-2.3c-2-1.4-4.7-0.8-6.1,1.1c-0.5,0.8-0.8,1.7-0.8,2.6
			c0.1,2.4,2.1,4.3,4.6,4.2c0.9,0,1.8-0.4,2.6-1s1.3-1.5,1.6-2.5C164.2,81.2,164.1,80.8,164.2,80.8s0,0.1,0.1,0.3
			c0,0.3,0,0.6-0.1,0.8c-0.2,1.1-0.7,2-1.5,2.7c-1.2,1.1-2.9,1.4-4.5,0.9c-2.5-0.8-3.9-3.5-3.1-6c0.4-1.3,1.4-2.4,2.7-3
			c1.5-0.6,3.2-0.4,4.6,0.6c0.9,0.6,1.5,1.5,1.8,2.6c0.1,0.3,0.1,0.6,0.1,0.8C164.2,80.7,164.2,80.8,164.2,80.8z"/>
		<path class="st6" d="M134.5,91.9c-0.2-0.4-0.3-0.8-0.4-1.2c-0.2-0.5-0.3-0.9-0.4-1.4c-0.1-0.6-0.3-1.2-0.4-1.9
			c-0.3-1.7-0.4-3.3-0.5-5c-0.1-4.1,0.6-8.2,1.9-12.2c0.6-1.6,1.2-3.1,2-4.6c0.3-0.7,0.7-1.2,0.9-1.7c0.2-0.4,0.5-0.8,0.8-1.2
			c0.2-0.4,0.5-0.7,0.8-1c0.1,0.1-0.9,1.5-2.1,4.1c-0.7,1.5-1.3,3-1.8,4.6c-0.6,1.9-1.1,3.9-1.4,5.9s-0.5,4-0.5,6.1
			c0,1.7,0.1,3.3,0.3,5C134.1,90.2,134.6,91.9,134.5,91.9z"/>
		<path class="st6" d="M398.2,135.8c0.2,0.4,0.3,0.8,0.4,1.2c0.1,0.5,0.3,0.9,0.4,1.4c0.1,0.6,0.3,1.2,0.4,1.9
			c0.3,1.7,0.4,3.3,0.5,5c0.1,4.1-0.6,8.2-1.9,12.1c-0.5,1.6-1.2,3.1-2,4.6c-0.3,0.6-0.6,1.2-0.9,1.7c-0.2,0.4-0.5,0.8-0.8,1.2
			c-0.2,0.4-0.5,0.7-0.7,1c-0.1-0.1,0.9-1.5,2.1-4.1c0.7-1.5,1.3-3,1.9-4.6c0.6-1.9,1.1-3.9,1.4-5.9s0.5-4,0.5-6.1
			c0-1.7-0.1-3.3-0.4-5C398.6,137.6,398.1,135.9,398.2,135.8z"/>
		<path class="st6" d="M404.7,137.6c0.2,0.4,0.3,0.8,0.4,1.2c0.1,0.5,0.3,0.9,0.4,1.4c0.1,0.6,0.3,1.2,0.4,1.9
			c0.3,1.7,0.4,3.3,0.5,5c0,2.1-0.1,4.1-0.4,6.1s-0.8,4-1.5,6c-0.6,1.6-1.2,3.1-2,4.6c-0.3,0.6-0.6,1.2-0.9,1.7
			c-0.2,0.4-0.5,0.9-0.8,1.3c-0.2,0.4-0.5,0.7-0.7,1c-0.1-0.1,0.9-1.5,2.1-4.1c0.7-1.5,1.3-3,1.9-4.6c0.6-1.9,1.1-3.9,1.4-5.9
			s0.5-4,0.5-6.1c0-1.7-0.1-3.3-0.4-5C405.1,139.3,404.6,137.6,404.7,137.6z"/>
	</g>
	<path class="st9" d="M204.1,184.7c0-1.9-0.2-4-0.6-5.9c-0.1-0.9-0.3-1.9-0.5-2.8c-0.1-0.9-0.5-1.8-0.7-2.7
		c-2.2-8.6-6.4-16.4-12.1-23c-2.6-3.1-5.6-5.9-9-8.4c-14.8-11-33.2-13.7-49.6-8.7c-5.1,1.4-9.9,3.6-14.4,6.6
		c-14.6,9.3-24.2,24.8-25.8,42.2c-0.2,2.5-0.2,5.1-0.1,7.7c0.1,1.4,0,2.6,0.2,4c0.2,1.4,0.3,2.6,0.6,4c1,5.5,2.7,10.7,5.2,15.6
		c2.7,5.1,6.2,9.9,10.3,14c4.3,4.2,9.3,7.9,14.7,10.6c5.6,2.8,11.6,4.8,17.9,5.5c1.6,0.2,3.2,0.3,4.8,0.5c1.6,0.1,3.2,0.1,4.8,0.1
		c3.3-0.1,6.5-0.6,9.7-1.3c6.7-1.5,13.2-4.1,18.9-8l19.4,7.9l1.1,0.5l-0.3-1.3l-5.6-20.8c5.2-7,8.7-15.1,10.3-23.8
		C204.1,192.9,204.3,188.8,204.1,184.7z"/>
	<g>
		<path class="st10" d="M143.2,147.9c0,0-18.1,15.9-24,25.4c-2.8,4.5,0.5,16.4,4.9,28.1c4.8,12.7,11.8,24,14.1,24.8
			c2.2,0.8,16.4-5.9,28.5-14.8c11.7-8.6,21.3-19.5,21.3-21.1c0.1-3.3-6.3-12.5-20.4-25.1C153.7,153,143.2,147.9,143.2,147.9z"/>
		<path class="st11" d="M132.6,150.8c0,0-16.4,17.5-21.5,27.6c-2.4,4.8,2.1,16.3,7.6,27.5c6.1,12.2,14.1,22.7,16.4,23.3
			c2.3,0.6,15.7-7.5,26.8-17.5c10.8-9.7,19.4-21.5,19.2-23.1c-0.2-3.3-7.5-11.9-22.7-23C143.5,154.8,132.6,150.8,132.6,150.8z"/>
		<g>
			<g>
				<g>
					<path class="st5" d="M128.6,171.8v35.6h-7.2v-35.6H128.6z"/>
					<path class="st5" d="M152.6,172.3v7.5c-2.6-1.2-4.8-1.7-6.9-1.7c-1.6,0-2.9,0.5-3.8,1.3c-0.8,0.8-1.3,1.7-1.3,2.8
						c0,1,0.3,1.9,1,2.4c0.7,0.6,1.9,1,3.7,1.5c2.3,0.6,4,1.2,4.9,1.5c0.9,0.5,1.7,1,2.6,1.9c1.9,2,2.8,4.4,2.8,7.3
						c0,3.6-1.3,6.4-4,8.6c-2.2,1.7-5.1,2.7-8.6,2.7c-2.4,0-5.5-0.6-9.1-1.7v-7.6c3.7,1.5,6.8,2.3,9.2,2.3c1.6,0,2.8-0.3,3.7-1.2
						c0.9-0.8,1.4-1.7,1.4-3c0-1.4-0.6-2.4-1.9-3c-0.5-0.2-1.7-0.7-3.8-1.2c-3.6-0.9-6.2-2.4-7.6-4.5c-1-1.7-1.6-3.6-1.6-5.7
						c0-2.6,0.8-5,2.4-7c1.2-1.5,2.4-2.6,4.1-3.3c1.5-0.7,3.5-1,5.8-1C147.8,171.2,150.2,171.6,152.6,172.3z"/>
					<path class="st5" d="M177.5,188.4c1,0.7,1.9,1.3,2.4,1.9c0.9,0.9,1.6,2,2.2,3.4c0.6,1.3,0.8,2.7,0.8,4c0,2.2-0.7,4.1-2,5.8
						c-1.4,2-3.3,3.3-5.6,3.7c-1,0.2-2.9,0.3-5.9,0.3c-2.2,0-3.7-0.1-4.7-0.3c-0.9-0.2-1.7-0.7-2.6-1.3c-0.7-0.7-1.3-1.5-1.5-2.4
						c-0.2-0.9-0.3-2.3-0.3-4.2v-19.6c0-1.7,0.1-3,0.3-4c0.2-0.9,0.7-1.6,1.4-2.2c0.7-0.6,1.5-1,2.3-1.3c0.8-0.2,2.1-0.3,3.7-0.3
						c3.6,0,6.2,0.3,7.7,0.9c1.6,0.7,2.9,1.9,3.8,3.3c0.9,1.5,1.4,3.1,1.4,4.9c0,1.4-0.2,2.7-0.8,3.7
						C179.7,185.9,178.8,187.1,177.5,188.4z M167.4,178.8v6.6h2.3c1.3,0,2.2-0.2,2.8-0.7c0.8-0.7,1.3-1.5,1.3-2.6c0-1-0.3-1.9-1-2.4
						c-0.7-0.6-1.7-0.9-2.9-0.9L167.4,178.8L167.4,178.8z M167.4,192.4v8.2h2.3c1.2,0,2,0,2.3-0.1c0.3-0.1,0.8-0.2,1.4-0.5
						c1.4-0.7,2.1-1.9,2.1-3.5c0-0.7-0.2-1.4-0.6-2.1c-0.3-0.7-0.9-1.2-1.5-1.5c-0.5-0.2-0.9-0.3-1.3-0.5c-0.3,0-1.2-0.1-2.4-0.1
						h-2.3V192.4z"/>
				</g>
			</g>
			<path class="st5" d="M121.4,168c1.3,0.9,2.7,1.4,4,1.5c1.4,0.1,2.7,0,3.6-0.8s1.3-2.2,0.8-3.8c-0.5-1.5-1.6-3.3-3.3-4.4
				c-1.6-1.2-3.1-1.5-4.5-1.3c-1.3,0.1-2.4,0.8-3,1.9C117.7,163.3,118.8,166.2,121.4,168z"/>
		</g>
	</g>
	<path class="st12" d="M125.8,298.5c-2.8,0-5.4,1.5-6.8,4c-1.4-2.5-4-4-6.8-4c-4.3,0-7.8,4-7.8,8.4c0,10.9,14.7,18.4,14.7,18.4
		s14.6-7.6,14.6-18.5C133.6,302.5,130.1,298.5,125.8,298.5L125.8,298.5z"/>
	<path class="st13" d="M404.5,188.6c-2.8,0-5.4,1.5-6.8,4c-1.4-2.5-4-4-6.8-4c-4.3,0-7.8,4-7.8,8.4c0,10.9,14.7,18.4,14.7,18.4
		s14.6-7.6,14.6-18.5C412.3,192.6,408.8,188.6,404.5,188.6L404.5,188.6z"/>
	<path class="st13" d="M144.3,277.9c-1.6,0-3.1,0.9-3.8,2.3c-0.8-1.4-2.3-2.2-3.8-2.2c-2.4,0-4.4,2.3-4.4,4.7
		c0,6.1,8.3,10.4,8.3,10.4s8.2-4.3,8.2-10.4C148.7,280.1,146.7,277.9,144.3,277.9L144.3,277.9z"/>
	<path class="st12" d="M378.6,216.9c-1.6,0-3.1,0.9-3.8,2.3c-0.8-1.4-2.3-2.2-3.8-2.2c-2.4,0-4.4,2.3-4.4,4.7
		c0,6.1,8.3,10.4,8.3,10.4s8.2-4.3,8.2-10.4C383,219.1,381.1,216.9,378.6,216.9L378.6,216.9z"/>
	<path class="st12" d="M429.1,267.3c-1.6,0-3.1,0.9-3.8,2.3c-0.8-1.4-2.3-2.2-3.8-2.2c-2.4,0-4.4,2.3-4.4,4.7
		c0,6.1,8.3,10.4,8.3,10.4s8.2-4.3,8.2-10.4C433.5,269.5,431.5,267.3,429.1,267.3L429.1,267.3z"/>
	<path class="st13" d="M146.1,322c-1.1,0-2.2,0.6-2.7,1.6c-0.6-1-1.6-1.6-2.7-1.6c-1.7,0-3.1,1.6-3.1,3.3c0,4.3,5.8,7.3,5.8,7.3
		s5.8-3,5.8-7.3C149.2,323.6,147.8,322,146.1,322L146.1,322z"/>
</g>
</svg>
