<?xml version="1.0" encoding="utf-8"?>
<!-- Generator: Adobe Illustrator 25.0.1, SVG Export Plug-In . SVG Version: 6.00 Build 0)  -->
<svg version="1.1" id="圖層_1" xmlns="http://www.w3.org/2000/svg" xmlns:xlink="http://www.w3.org/1999/xlink" x="0px" y="0px"
	 viewBox="0 0 500 500" style="enable-background:new 0 0 500 500;" xml:space="preserve">
<style type="text/css">
	.st0{fill:#EBEBEB;}
	.st1{fill:#F5F5F5;}
	.st2{fill:#E0E0E0;}
	.st3{fill:#263238;}
	.st4{fill:#FF725E;}
	.st5{opacity:0.3;}
	.st6{fill:var(--white-color-100)FFF;}
	.st7{opacity:0.7;}
	.st8{fill:#EFEFEF;}
	.st9{fill:#434C4F;}
	.st10{fill:#F0B31A;}
	.st11{fill:#29B5B2;}
</style>
<g id="freepik--background-complete--inject-2">
	<path class="st0" d="M93.2,309.1c0.2-2,0.9-4,2.2-5.5c1.2-1.6,2.9-2.8,4.8-3.4c3.4-1,6.9,0.5,8.7,3.5c1.5-3,4.8-4.7,8.1-4.2
		c2,0.4,3.8,1.3,5.2,2.8c1.5,1.4,2.5,3.2,2.9,5.2c0.5,2.6,0.1,5.2-1,7.5c-1.4,2.4-3.3,4.4-5.6,5.9c-3.7,2.5-8.6,5.8-8.6,5.8
		s-4.5-3-8.5-5c-2.5-1.2-4.6-3-6.2-5.2C93.7,314.3,93,311.7,93.2,309.1z"/>
	<path class="st0" d="M371.9,198.6c0.2-2,0.9-4,2.2-5.6c1.2-1.6,2.9-2.8,4.8-3.4c3.4-1,6.9,0.5,8.7,3.5c1.5-3,4.8-4.7,8.1-4.2
		c2,0.4,3.8,1.3,5.2,2.8c1.5,1.4,2.5,3.2,2.9,5.2c0.5,2.6,0.1,5.2-1.1,7.5c-1.4,2.4-3.3,4.4-5.6,5.9c-3.7,2.6-8.6,5.8-8.6,5.8
		s-4.5-3-8.5-5c-2.5-1.2-4.6-3-6.2-5.2C372.4,203.8,371.7,201.2,371.9,198.6z"/>
	<path class="st1" d="M120.2,284.2c0.1-1.3,0.6-2.5,1.4-3.6c0.8-1,1.9-1.8,3.1-2.2c1.3-0.4,2.7-0.2,3.9,0.5c0.7,0.4,1.3,1,1.7,1.7
		c1-1.9,3.1-3,5.2-2.7c1.3,0.2,2.4,0.8,3.3,1.8c0.9,0.9,1.6,2.1,1.8,3.4c0.3,1.6,0.1,3.3-0.7,4.8c-0.9,1.5-2.1,2.8-3.6,3.8
		c-2.4,1.6-5.5,3.7-5.5,3.7s-2.9-1.9-5.4-3.2c-1.6-0.8-3-1.9-4-3.3C120.6,287.6,120.1,285.9,120.2,284.2z"/>
	<path class="st1" d="M354.8,223.1c0.1-1.3,0.6-2.5,1.4-3.6c0.8-1,1.9-1.8,3.1-2.1c2.2-0.6,4.4,0.3,5.6,2.2c0.3-0.7,0.8-1.2,1.4-1.7
		c1.1-0.8,2.5-1.2,3.8-1c1.3,0.2,2.4,0.9,3.3,1.8c0.9,0.9,1.6,2.1,1.8,3.4c0.3,1.6,0.1,3.3-0.7,4.8c-0.9,1.5-2.1,2.8-3.6,3.8
		c-2.4,1.6-5.5,3.7-5.5,3.7s-2.9-1.9-5.4-3.2c-1.6-0.8-3-1.9-4-3.3C355.1,226.4,354.7,224.8,354.8,223.1z"/>
	<path class="st0" d="M405.3,273.6c0.1-1.3,0.6-2.5,1.4-3.6c0.8-1,1.9-1.8,3.1-2.2c1.3-0.4,2.7-0.2,3.9,0.5c0.7,0.4,1.3,1,1.7,1.7
		c1-1.9,3.1-3,5.2-2.7c1.3,0.2,2.4,0.9,3.3,1.8c0.9,0.9,1.6,2.1,1.8,3.4c0.3,1.6,0.1,3.3-0.7,4.8c-0.9,1.5-2.1,2.8-3.6,3.8
		c-2.4,1.6-5.5,3.7-5.5,3.7s-2.9-1.9-5.4-3.2c-1.6-0.8-3-1.9-4-3.3C405.7,277,405.2,275.3,405.3,273.6z"/>
	<path class="st1" d="M126.9,325.7c0.1-0.9,0.4-1.7,0.9-2.3c0.5-0.7,1.2-1.2,2-1.4c0.9-0.2,1.8-0.1,2.6,0.4c0.5,0.3,0.8,0.7,1.1,1.1
		c0.2-0.4,0.5-0.8,0.9-1.1c0.7-0.6,1.6-0.8,2.5-0.6c0.8,0.1,1.6,0.6,2.2,1.2c0.6,0.6,1.1,1.4,1.2,2.2c0.2,1.1,0,2.2-0.4,3.2
		c-0.6,1-1.4,1.9-2.4,2.5c-1.6,1.1-3.6,2.4-3.6,2.4s-1.9-1.2-3.6-2.1c-1-0.5-1.9-1.3-2.6-2.2C127.1,327.9,126.8,326.8,126.9,325.7z"
		/>
	<path class="st0" d="M72.8,83.7c0,0-4.6,4,5.4,13.2c5.1,4.8,10.4,9.3,16.1,13.4c0,0,2,2.3-0.1,3.5s-7.2,2.2-7.2,5.3s3,5.1,8.1,5.9
		s16,3,16.9,3.2s2.2,1.1,0.9,2.2s-11.9,6.3-9.1,11.1s17.1,4.8,18.7,4.8s2.1,0.5,2.3,1.3s-3.6,2.2-6.5,3.8s-6.1,4-4.3,6.7
		s11.6,6.1,30.5,1.2l8.6-2.9l2-8.9c3.1-19.2-1.3-28.6-4.2-30.2s-4.9,1.8-6.2,4.9s-2.4,6.9-3.2,6.9s-1.3-0.6-1.5-2.2
		s-1.5-15.8-6.6-18.1s-9.3,8.8-10.2,10.1s-2,0.2-2.3-0.7s-3.5-11.6-4.8-16.6s-3.5-7.7-6.7-7.4s-3.6,5.6-4.6,7.7s-3.5,0.4-3.5,0.4
		c-4.6-5.2-9.6-10.2-14.9-14.7C76.3,78.8,72.7,83.8,72.8,83.7"/>
	<path class="st2" d="M154.3,158.3c-7.4-6.7-20.5-18.8-31.7-29.1s-21.4-19.7-28.8-26.4l-8.8-7.9c-1-0.9-1.8-1.7-2.4-2.2l-0.6-0.6
		L81.7,92c0.1,0.1,0.2,0.1,0.2,0.2c0.2,0.1,0.4,0.3,0.6,0.6l2.4,2.1c2.1,1.8,5.1,4.5,8.8,7.9c7.4,6.7,17.7,16,28.9,26.3
		s24.3,22.4,31.7,29.2"/>
	<path class="st2" d="M94.3,118c0.2,0,0.5,0,0.7,0h1.8c1.5,0,3.6,0,5.9,0.1l5.9,0.3l1.8,0.1c0.2,0,0.4,0,0.7,0
		c-0.2,0-0.4,0.1-0.7,0.1c-0.4,0-1,0-1.8,0c-1.5,0-3.6-0.1-5.9-0.2l-5.9-0.2l-1.8-0.1C94.8,118.1,94.5,118.1,94.3,118z"/>
	<path class="st2" d="M111.3,117.7c-0.1,0-0.2-4.3-0.2-9.6s0-9.6,0.1-9.6s0.2,4.3,0.2,9.6S111.3,117.7,111.3,117.7z"/>
	<path class="st2" d="M127.8,134.3c0-0.2,0.1-0.4,0.2-0.6c0.1-0.5,0.3-1,0.5-1.7c0.4-1.5,1-3.5,1.5-5.8s1-4.3,1.3-5.8
		c0.1-0.7,0.3-1.3,0.4-1.8c0-0.2,0.1-0.4,0.2-0.7c0,0.2,0,0.4-0.1,0.7c-0.1,0.4-0.1,1-0.3,1.8c-0.2,1.5-0.6,3.6-1.2,5.9
		s-1.1,4.3-1.6,5.8c-0.2,0.7-0.4,1.3-0.6,1.7C128,133.9,127.9,134.1,127.8,134.3z"/>
	<path class="st2" d="M112.5,138c0.2-0.1,0.4-0.2,0.6-0.2l1.6-0.4c1.4-0.4,3.3-0.9,5.4-1.4s4-1,5.4-1.3l1.6-0.4
		c0.2,0,0.4-0.1,0.6-0.1c-0.2,0.1-0.4,0.2-0.6,0.2l-1.6,0.4c-1.4,0.4-3.3,0.9-5.4,1.4s-4,1-5.4,1.3l-1.6,0.4
		C112.9,138,112.7,138,112.5,138z"/>
	<path class="st2" d="M125.3,154.5c0.2-0.1,0.5-0.2,0.8-0.2l2.1-0.6c1.8-0.5,4.2-1.1,6.9-1.9s5.1-1.3,6.9-1.8l2.1-0.5
		c0.3-0.1,0.5-0.1,0.8-0.1c-0.2,0.1-0.5,0.2-0.7,0.3l-2.1,0.6c-1.8,0.5-4.2,1.1-6.9,1.8s-5.1,1.3-6.9,1.8l-2.1,0.5
		C125.8,154.4,125.5,154.5,125.3,154.5z"/>
	<path class="st2" d="M144.2,149.4c0-0.3,0.1-0.6,0.2-0.8c0.1-0.6,0.3-1.3,0.6-2.2c0.5-1.9,1.1-4.5,1.7-7.4s1.1-5.6,1.4-7.5
		c0.2-0.9,0.3-1.7,0.4-2.3c0-0.3,0.1-0.6,0.2-0.8c0,0.3,0,0.6-0.1,0.9c-0.1,0.5-0.2,1.3-0.3,2.3c-0.3,1.9-0.8,4.6-1.4,7.5
		s-1.3,5.5-1.8,7.4c-0.3,0.9-0.5,1.7-0.6,2.2C144.4,148.9,144.3,149.1,144.2,149.4z"/>
	<path class="st1" d="M355.3,139.4c-13.3-11.6-14.6-30.7-12.2-47.4c0.4-2.8,0.4-5.8,2-8.1s4.9-3.7,7.3-2.2c2,1.2,2.6,3.7,3.6,5.9
		c1.3,2.8,3.3,5.3,5.9,7c1.7,1.1,3.8,1.9,5.7,1.1c2.6-1.1,3.2-4.4,3.5-7.2c0.5-5.2,1.1-10.4,1.6-15.6c0.1-2.8,0.7-5.6,1.7-8.2
		c1.1-2.6,3.3-4.8,6.1-5.3s5.9,1.4,6.1,4.2c0,1.2-0.1,2.3-0.3,3.5c-0.2,1.2,0.4,2.4,1.4,3c1.1,0.4,2.3-0.2,3.2-1
		c3.2-2.5,5.5-5.9,7.8-9.3s4.4-7,7.4-9.8s6.8-4.8,10.8-4.6s8,3.1,8.6,7.2s-2.1,7.8-5,10.7c-4.2,4.3-9,8-14.3,11
		c-1,0.4-1.9,1.2-2.4,2.1c-0.8,1.8,0.8,3.8,2.5,4.6c2,0.9,4.3,0.9,6.4,1.4s4.4,1.7,5,3.8c0.8,3-1.9,5.7-4.4,7.4
		c-5.1,3.4-10.8,5.9-16.8,7.4c-2.1,0.5-4.4,1-6.2,2.2s-3.1,3.7-2.3,5.7s3.3,3,5.5,2.8s4.2-1.1,6.4-1.7c4-1,8.9-0.2,11,3.3
		c1.3,2.5,1.3,5.4,0.1,7.9c-1.2,2.5-2.9,4.7-5,6.4c-6.9,6.6-15.4,11.3-24.6,13.6C372.1,143.6,363.8,143.5,355.3,139.4"/>
	<path class="st2" d="M360.8,129.3c3.8-8.9,8.1-17.5,12.8-25.8c1.3-2.2,2.5-4.4,3.7-6.6s2.4-4.3,3.8-6.3c2.5-3.9,5.3-7.6,8.2-11.2
		c2.8-3.4,5.6-6.6,8.2-9.5s5.1-5.6,7.5-8c3.7-3.7,7.7-7.2,12-10.2c1.5-1.1,2.7-1.9,3.5-2.5l0.9-0.6c0.1-0.1,0.2-0.1,0.3-0.2
		c-0.1,0.1-0.2,0.2-0.3,0.2l-0.9,0.7c-0.8,0.6-2,1.4-3.5,2.5c-4.2,3.2-8.2,6.6-11.9,10.3c-2.4,2.4-4.8,5.1-7.4,8s-5.4,6.1-8.1,9.6
		c-2.9,3.6-5.7,7.3-8.2,11.2c-1.3,2-2.5,4.1-3.7,6.3l-3.7,6.6c-4.8,8.3-9,17-12.8,25.8"/>
	<path class="st2" d="M381.2,90.5c-0.1-0.4-0.1-0.8-0.1-1.2c-0.1-0.8-0.1-1.9-0.2-3.3c-0.1-2.8-0.1-6.7-0.1-11s0-8.2-0.2-11
		c-0.1-1.4-0.1-2.5-0.2-3.3c0-0.4,0-0.8,0-1.2c0.1,0.4,0.2,0.8,0.2,1.2c0.1,0.8,0.2,1.9,0.4,3.3c0.2,2.8,0.3,6.7,0.3,11
		s0,8.1-0.1,11v3.3C381.3,89.7,381.3,90.1,381.2,90.5z"/>
	<path class="st2" d="M417.8,87.7c-0.5,0-1,0-1.5,0c-0.9,0-2.3,0-3.9,0c-3.3,0-7.9,0.2-13,0.6s-9.6,1-12.9,1.5
		c-1.6,0.2-3,0.5-3.9,0.6c-0.5,0.1-1,0.2-1.4,0.2c0.5-0.2,0.9-0.3,1.4-0.4c0.9-0.2,2.2-0.5,3.9-0.8c3.3-0.6,7.9-1.2,12.9-1.6
		c4.3-0.4,8.7-0.5,13-0.4c1.7,0,3,0.1,3.9,0.2C416.8,87.5,417.3,87.6,417.8,87.7z"/>
	<path class="st2" d="M361.3,128.7c-0.1-0.1-0.2-0.3-0.2-0.5l-0.5-1.4c-0.4-1.2-1-2.9-1.6-5.1c-1.3-4.3-2.9-10.3-4.5-16.9
		s-3.2-12.6-4.4-17l-1.4-5.1c-0.1-0.6-0.3-1-0.4-1.4c-0.1-0.2-0.1-0.3-0.1-0.5c0.1,0.2,0.1,0.3,0.2,0.5c0.1,0.4,0.3,0.8,0.5,1.4
		c0.4,1.2,1,2.9,1.6,5.1c1.3,4.3,2.9,10.3,4.5,16.9s3.2,12.6,4.4,17l1.4,5.1c0.1,0.6,0.3,1,0.4,1.4
		C361.2,128.4,361.3,128.5,361.3,128.7z"/>
	<path class="st2" d="M410.6,118.5c-0.2,0.1-0.3,0.1-0.5,0.1l-1.4,0.3l-5.3,1.1c-4.5,0.9-10.6,2.3-17.4,3.8s-13,2.8-17.4,3.7
		c-2.2,0.4-4.1,0.7-5.3,1l-1.5,0.2c-0.2,0-0.3,0-0.5,0c0.2-0.1,0.3-0.1,0.5-0.1l1.4-0.3l5.3-1.1c4.5-0.9,10.6-2.3,17.4-3.8
		s13-2.8,17.4-3.7c2.2-0.4,4.1-0.7,5.3-0.9l1.5-0.2C410.2,118.5,410.4,118.5,410.6,118.5z"/>
</g>
<g id="freepik--Floor--inject-2">
	<path class="st3" d="M473.4,465.8c0,0.1-100,0.3-223.4,0.3S26.6,466,26.6,465.8s100-0.3,223.4-0.3S473.4,465.7,473.4,465.8z"/>
</g>
<g id="freepik--Character--inject-2">
	<path class="st4" d="M315.7,223.5c0.5-9.3,1.1-18.5,1.7-27.8c0.1-1.1,0.2-2.4,1.2-3c0.9-0.4,2-0.3,2.9,0.2
		c16.4,6.6,28.5,24.9,29.9,42.6"/>
	<g class="st5">
		<path class="st6" d="M321.3,202.3c7.8,5.1,12.8,13.6,13.4,22.9c0.2,1.1-0.1,2.2-0.7,3.2c-0.6,0.7-1.5,1.1-2.5,1.1
			c-0.9,0-1.8-0.2-2.7-0.4c-2.2-0.6-4.5-1.2-6.2-2.8c-1.5-1.6-2.4-3.7-2.4-5.9c0-2.2,0.2-4.3,0.7-6.4l2.8,4.8l-3-15.5
			c-0.1-0.3-0.1-0.6,0.1-0.8c0.2-0.2,0.6-0.1,0.6,0.1"/>
	</g>
	<path class="st4" d="M220.5,243.2c-8.6-10.2-13.5-22.9-14-36.2l9.1,4.3l-2.3-2.8c13.4,1.1,25.7,7.4,34.5,17.5"/>
	<g class="st5">
		<path class="st6" d="M225.6,239.1c-7.3-5.3-12-13.3-13.1-22.2c-0.1-0.6,0-1.4,0.6-1.6c0.4-0.1,0.9,0,1.2,0.3l16.5,10.8
			c-0.7-1-1.2-2.2-1.3-3.5l7,5.1c0.5,0.3,0.9,0.8,1.1,1.4c0,0.7-0.3,1.3-0.9,1.7c-2.4,2.1-5.7,2.9-8.8,1.9l3,2.6
			c-1.8,1.2-4,1.5-6.1,1.1c-0.2,1,0.2,2,1.1,2.6"/>
	</g>
	<path class="st4" d="M407,330.5c0,0,12.8,13.2,18.6,12.1c0,0-20.2-21.5-28.7-41.4c-4.1-9.4-8.9-18.4-14.5-27
		c3.8-6.6,7.2-14.1,8.8-21.6c-4.3,5-9.2,9.4-14.6,13.2c-0.4-0.6-0.9-1.2-1.4-1.9c4.5-4.1,7.5-9.6,8.6-15.6l-20.2-0.9
		c0.6-0.9,1.2-1.9,1.7-2.9c-9.9-8.5-21-15.6-33-20.9c-23.2-13.2-75-17.6-100.2,3.9c-22.6,13.2-28.6,30-46.4,34.2l-10.5-1.1
		c0,0-4.1,22,9.4,31.8l-10-2.3c0,0,1.8,8.8,11.7,18.4l-6.1-0.8c0,0,2.7,13.8,11.2,17.1c0,0-13.3,1.7-17-3.3c0,0-4.4,20.6,15.7,28.4
		c0,0-60.3,7.1-43.3,80.8c4,17.2,27.8,29.6,55.1,35.6l197-0.8c12-3.9,26.3-43.7,26.9-59.7s-7.4-46.9-7.4-46.9l7.5,9.9L407,330.5z"/>
	<path class="st4" d="M181.8,361.2c-11.3-0.7-22.4,8.1-24.4,19.3c7.4-4.9,15.8-8,24.5-9c-7.1,6.5-9.4,16.7-5.8,25.6
		c2.9-7.9,9-14.2,16.7-17.5c-5.3,6.4-6.9,15.1-4.2,23"/>
	<path class="st3" d="M188.8,402.6c-0.1-0.1-0.1-0.3-0.2-0.4c-0.1-0.3-0.2-0.7-0.4-1.2c-0.4-1.6-0.7-3.2-0.8-4.8
		c-0.2-2.6,0.1-5.2,0.8-7.7c0.9-3.3,2.4-6.4,4.6-9l0.2,0.3c-7.7,3.3-13.6,9.6-16.6,17.4l-0.2,0.6l-0.2-0.6c-2.4-6.2-2.2-13.1,0.7-19
		c1.3-2.6,3-4.9,5.2-6.9l0.2,0.5c-8.7,1-17.1,4.1-24.4,8.9l-0.4,0.3l0.1-0.5c0.4-2.4,1.3-4.7,2.5-6.9c1.1-1.9,2.4-3.7,4-5.2
		c2.5-2.6,5.6-4.5,8.9-5.8c2.2-0.8,4.4-1.3,6.7-1.4c0.8,0,1.4,0,1.8,0h0.5h0.1h-0.1h-0.5c-0.4,0-1,0-1.8,0c-2.3,0.2-4.5,0.7-6.6,1.5
		c-3.3,1.3-6.3,3.2-8.8,5.8c-1.5,1.5-2.8,3.3-3.9,5.2c-1.2,2.1-2,4.4-2.4,6.8l-0.4-0.2c7.4-4.9,15.8-8,24.6-9l0.8-0.1l-0.6,0.5
		c-2.1,1.9-3.8,4.2-5,6.7c-2.9,5.8-3.1,12.6-0.7,18.6H176c1.6-4.2,4.1-8,7.2-11.1c2.8-2.7,6-4.9,9.6-6.5l0.8-0.3l-0.5,0.6
		c-2.2,2.6-3.7,5.6-4.6,8.8c-0.7,2.5-1,5-0.9,7.6c0.1,1.6,0.3,3.2,0.7,4.8c0.1,0.5,0.3,1,0.3,1.2
		C188.7,402.3,188.7,402.5,188.8,402.6z"/>
	<path class="st4" d="M388.3,392.2c12.6-2.7,25.3,3.9,30.5,15.6"/>
	<path class="st3" d="M418.8,407.9c-0.1,0-0.9-1.9-2.8-4.6c-5.2-7.2-13.4-11.4-22.3-11.4c-3.3,0-5.4,0.5-5.4,0.4
		c0.5-0.2,0.9-0.3,1.4-0.4c1.3-0.2,2.7-0.4,4-0.4c9-0.2,17.5,4.2,22.6,11.6c0.8,1.1,1.4,2.3,2,3.5
		C418.5,406.9,418.7,407.4,418.8,407.9z"/>
	<g class="st5">
		<path d="M318.9,408.8c-7.3,1.2-16.5,6.6-19.9,13.2c-0.7,1.4-0.1,1.6,0,3.1c0,1.6,0.9,3.1,2.4,3.8c1.4,0.6,3-0.1,3.6-1.5
			c0-0.1,0.1-0.2,0.1-0.3c-0.9,5.3,0.3,10.8,3.3,15.3c2-1.2,3.7-2.9,4.7-5c-0.4,7.9,2.5,15.6,8,21.3l-3.5-13.8
			c-1.3-5-2.5-9.2-2.2-14.4c0.4-5.5,3.6-10.1,6.1-14.6c-3.5,1.5-7.5,8.4-10.9,12.5c-0.4-7.4,2.6-14.5,8.1-19.4"/>
	</g>
	<path class="st3" d="M317.5,445.1c-0.1-0.2-0.2-0.4-0.3-0.6c-0.1-0.4-0.4-1-0.7-1.8c-0.8-2.2-1.2-4.6-1.4-6.9
		c-0.2-3.6,0.2-7.2,1.2-10.6c1.3-4.4,3.6-8.4,6.8-11.7l0.4,0.4c-2.9,2.6-5.7,5.4-8.3,8.3c-1.7,1.9-3.2,4-4.5,6.2l-0.4,0.7l-0.1-0.8
		c-0.4-4.1,0.3-8.3,2.2-12c1.5-3.1,3.8-5.9,6.6-7.9l0.2,0.3c-2,0.7-3.8,1.9-5.4,3.3c-1.2,1.1-2.2,2.3-3,3.7c-0.5,0.9-1,1.8-1.3,2.7
		c-0.1,0.3-0.2,0.7-0.4,1c0-0.1,0-0.2,0-0.3c0-0.2,0.1-0.4,0.2-0.8c0.3-1,0.8-1.9,1.3-2.8c0.8-1.4,1.8-2.7,3-3.8
		c1.6-1.5,3.4-2.7,5.4-3.4l1.3-0.5l-1.2,0.9c-2.7,2.1-4.9,4.7-6.4,7.8c-1.8,3.6-2.5,7.7-2.1,11.7l-0.5-0.1c1.3-2.3,2.8-4.4,4.5-6.3
		c2.6-2.9,5.4-5.7,8.4-8.4l0.4,0.4c-3.1,3.2-5.4,7.1-6.8,11.4c-1.1,3.4-1.5,7-1.3,10.5c0.1,2.3,0.5,4.7,1.2,6.9
		c0.2,0.8,0.5,1.4,0.6,1.8C317.4,444.6,317.5,444.8,317.5,445.1z"/>
	<path class="st4" d="M198.9,444c3.9,4.4,9.1,7.4,14.8,8.7c0.6,0.3,1.3,0.2,1.9-0.3c0.6-0.6,0.1-1.6-0.4-2.4l-6.4-9.4
		c4.5,3.6,9.9,5.9,15.6,6.8c0.9,0.1,2.1,0.1,2.6-0.7c0.3-0.7,0.2-1.6-0.2-2.2c-1-2.1-2-4.2-3.2-6.3"/>
	<path class="st3" d="M223.6,438.4c0.1,0.2,0.2,0.3,0.3,0.5l0.8,1.5c0.4,0.7,0.8,1.5,1.2,2.4c0.3,0.5,0.5,1,0.8,1.5
		c0.3,0.6,0.5,1.2,0.6,1.8c0,0.4-0.1,0.8-0.3,1.1c-0.3,0.3-0.6,0.5-1,0.6c-0.8,0.1-1.6,0.1-2.3-0.1c-1.7-0.3-3.3-0.7-4.9-1.2
		c-3.7-1.2-7.1-3.1-10.2-5.5l0.4-0.4l1.1,1.6l3.5,5.2l1.7,2.5c0.3,0.4,0.5,0.9,0.6,1.4c0.2,0.6-0.1,1.2-0.6,1.5
		c-0.5,0.2-1,0.3-1.5,0.2c-0.5-0.1-0.9-0.2-1.3-0.3c-0.9-0.2-1.7-0.5-2.5-0.8c-1.5-0.5-2.9-1.2-4.2-2c-2-1.1-3.8-2.5-5.4-4
		c-0.6-0.6-1-1-1.3-1.3c-0.2-0.2-0.3-0.3-0.4-0.5c0.2,0.1,0.3,0.3,0.5,0.4c0.3,0.3,0.7,0.7,1.3,1.3c1.7,1.5,3.5,2.8,5.4,3.9
		c1.3,0.8,2.7,1.4,4.2,1.9c0.8,0.3,1.6,0.5,2.4,0.8s1.8,0.6,2.5,0.2c0.3-0.2,0.5-0.6,0.3-1c-0.1-0.4-0.3-0.9-0.6-1.2
		c-0.6-0.8-1.1-1.6-1.7-2.5c-1.1-1.7-2.3-3.4-3.6-5.2l-1.1-1.6l-1-1.4l1.4,1c4.3,3.4,9.4,5.7,14.8,6.7c0.7,0.2,1.4,0.2,2.2,0.1
		c0.6-0.1,1.1-0.6,1.1-1.3c-0.1-0.6-0.3-1.2-0.6-1.7c-0.3-0.5-0.5-1-0.7-1.5l-1.2-2.4l-0.7-1.5C223.7,438.7,223.6,438.5,223.6,438.4
		z"/>
	<g class="st5">
		<path d="M223.5,381.8c2.2,3.7,5.4,6.7,9.3,8.7c-0.2-2.1-1.1-4-2.4-5.5c4.2,4,9.2,7.1,14.7,9.1c-8.1,3.6-17.6,0-21.2-8.2
			c-0.7-1.6-1.1-3.3-1.3-5"/>
	</g>
	<g class="st5">
		<path d="M196.8,316.6c7.9,15.3,33.6,22.8,53.8,23.1c6.2,0.1,15,4.7,21.2,4.1c13.8-1.3,25.1-8.8,38.9-10c8.6-0.7,17.3-1,25.8-2.5
			s8.1-2.5,14.9-7.9s14.1-10.7,14-19.4c-12.7,15.6-25.3,20.4-44.9,25s-40,4.5-60.1,3.5C238.2,331.7,215,329.2,196.8,316.6"/>
	</g>
	<path class="st4" d="M265.1,199.5c0.1,0,0.2,1.1,0.5,2.9c0.4,2.3,1,4.6,1.9,6.8c0.9,2.2,2,4.3,3.3,6.3c0.6,0.8,1.2,1.6,1.7,2.4
		c0,0-0.2-0.2-0.6-0.6c-0.5-0.5-1-1.1-1.4-1.7c-1.4-1.9-2.6-4-3.5-6.3c-0.9-2.2-1.5-4.6-1.8-7c-0.1-0.7-0.1-1.4-0.2-2.2
		C265,200,265,199.7,265.1,199.5z"/>
	<path class="st4" d="M271.6,197c0.1,0-0.3,1-0.7,2.7c-0.5,2.2-0.7,4.4-0.5,6.6c0.2,2.2,0.7,4.4,1.5,6.4c0.6,1.6,1.2,2.5,1.1,2.5
		s-0.2-0.2-0.5-0.6c-0.4-0.6-0.7-1.2-1-1.8c-1.9-4.1-2.3-8.8-1-13.2c0.2-0.7,0.4-1.3,0.7-1.9C271.5,197.2,271.6,196.9,271.6,197z"/>
	<path class="st4" d="M149.2,363.2c0.1-0.1,0.3-0.3,0.4-0.4c0.3-0.2,0.7-0.6,1.2-1c1.5-1.2,3.2-2.3,4.9-3.3
		c5.6-3.2,11.8-5.4,18.2-6.6c6.4-1.2,12.8-1.8,19.3-1.9c2.5-0.1,4.5-0.1,5.9-0.1h1.6c0.2,0,0.4,0,0.6,0c-0.2,0-0.4,0.1-0.6,0.1
		l-1.6,0.1l-5.9,0.2c-6.4,0.2-12.8,0.9-19.2,2c-6.3,1.2-12.4,3.3-18.1,6.4c-1.7,1-3.3,2-4.9,3.2
		C149.9,362.8,149.3,363.2,149.2,363.2z"/>
	<path class="st4" d="M292.6,201.3c0,0.1-1.7-0.5-4.5-1.2c-1.6-0.4-3.3-0.6-4.9-0.6c-2,0-4,0.6-5.7,1.6c-0.9,0.5-1.6,1.3-2.2,2.1
		c-0.5,0.8-0.9,1.7-1.1,2.6c-0.3,1.6-0.2,3.3,0.2,4.9c0.7,2.8,1.4,4.4,1.3,4.4c-0.2-0.4-0.4-0.7-0.5-1.1c-0.5-1-0.8-2.1-1.1-3.2
		c-0.5-1.6-0.6-3.4-0.3-5.1c0.2-1,0.6-2,1.2-2.8c0.6-0.9,1.5-1.7,2.4-2.2c1.8-1.1,3.9-1.7,6-1.7c1.7,0,3.4,0.3,5,0.7
		c1.4,0.4,2.5,0.8,3.2,1C291.8,201,292.2,201.1,292.6,201.3z"/>
	<path class="st4" d="M442.6,451.9c-1.1-7.2-4.6-14.2-10.6-18.3s-14.7-4.6-20.4-0.1l-23.7,32.1l50.5,0.2
		C441.2,463.2,443.2,455.7,442.6,451.9z"/>
	<g class="st5">
		<path d="M409,465.2c4.3-1.8,7.4-5.6,9.4-9.8s2.8-8.8,3.6-13.4c0.7-3.8,1.4-7.8-0.3-11.3c-0.8,0-1.6,0.3-2,1
			c-0.4,0.7-0.8,1.4-1,2.2c-3.9,12.3-9.9,23-19.8,31.4"/>
	</g>
	<g class="st5">
		<path class="st6" d="M258.9,214.4c5,14.4,5.6,30,5.1,45.2c-0.3,7.6-0.8,15.2-3.2,22.5s-6.7,14-13.2,18c-6.1,3.8-13.6,4.8-20.8,3.8
			s-13.9-3.7-20.3-6.9c-7.3-3.7-14.4-8.1-20.1-14s-10.3-14.2-11.3-22.3l10.5,1.1c0,0,8.1-0.9,20.7-13.1
			c13.8-13.3,16.3-14.9,26.6-21.9C241.1,221.6,249.8,217.4,258.9,214.4z"/>
	</g>
	<g class="st5">
		<path d="M302.4,303.2c4.1-2.3,9.2-1.6,12.6,1.7c3.3-4.3,8.7-6.3,14-5.1c-3.1,1.2-6,2.9-8.6,5.1c-2.5,2.3-4.2,5.5-3.9,8.9
			c-3.1-3.3-6.6-6.2-10.5-8.5c-1.6-1-3.8-1.8-5.3-0.7"/>
	</g>
	<path class="st4" d="M336.9,415.9c-11.9,8.6-16.7,24-11.6,37.8"/>
	<path class="st3" d="M325.3,453.7c-0.1-0.1-0.1-0.3-0.2-0.4c-0.1-0.3-0.3-0.6-0.4-1.2c-0.5-1.4-0.9-2.9-1.1-4.4
		c-1.8-10.1,1.4-20.5,8.5-27.9c1.1-1.1,2.2-2.1,3.4-3c0.4-0.3,0.8-0.6,1-0.7s0.4-0.2,0.4-0.2c-0.4,0.4-0.8,0.7-1.3,1.1
		c-1.2,1-2.2,2-3.3,3.1c-6.9,7.4-10,17.6-8.5,27.6c0.2,1.5,0.5,3,1,4.4C325,452.6,325.2,453.2,325.3,453.7z"/>
	<path class="st4" d="M356.8,381.3c4.1-3.1,9.4-6.4,14-4.2c2.6,1.4,4.4,4,4.8,6.9c0.4,2.9,0.2,5.8-0.5,8.7
		c-3.4,16.5-10.7,32-21.3,45.1c-3.9,4.8-9.3,9.6-15.3,8.3c-5.6-1.2-8.8-7.6-8.4-13.3s3.2-10.9,5.9-16
		C342.2,404.8,348.4,391.6,356.8,381.3"/>
	<path class="st3" d="M356.8,381.3c-0.1,0.1-0.2,0.3-0.3,0.4l-0.8,1.1c-0.7,0.9-1.7,2.4-3,4.2c-3.5,5.3-6.7,10.7-9.6,16.4l-6,11.6
		c-2.1,4.2-4.8,8.5-6.2,13.6c-0.7,2.6-0.9,5.3-0.4,7.9c0.5,2.8,1.9,5.3,3.9,7.2c1,0.9,2.3,1.6,3.7,2c1.4,0.4,2.9,0.4,4.3,0.1
		c2.9-0.7,5.5-2.3,7.6-4.4c2.2-2.1,4.1-4.4,5.9-6.8c1.8-2.4,3.4-4.8,5-7.2c5.6-8.9,9.8-18.7,12.6-28.9c0.6-2.3,1.1-4.5,1.5-6.6
		c0.5-2,0.7-4.1,0.6-6.2c-0.1-3.9-2.2-7.5-5.1-8.7c-1.3-0.6-2.8-0.7-4.3-0.5c-1.2,0.2-2.4,0.6-3.5,1.1c-1.6,0.7-3,1.6-4.4,2.6
		l-1.1,0.8C357,381.2,356.8,381.2,356.8,381.3l0.4-0.3c0.2-0.2,0.6-0.5,1.1-0.8c1.4-1,2.8-1.9,4.4-2.7c1.1-0.6,2.3-0.9,3.6-1.1
		c3.3-0.6,6.6,1,8.2,3.9c1,1.7,1.5,3.6,1.6,5.5c0.1,2.1-0.1,4.2-0.6,6.3c-0.4,2.2-0.9,4.4-1.5,6.7c-2.7,10.2-6.9,20-12.5,29
		c-1.6,2.4-3.2,4.9-5,7.3c-1.8,2.5-3.8,4.8-5.9,6.9c-2.2,2.2-4.9,3.7-7.9,4.5c-1.5,0.3-3,0.3-4.5-0.1c-1.4-0.4-2.8-1.1-3.9-2.1
		c-2.1-2-3.5-4.6-4-7.5c-0.5-2.7-0.3-5.5,0.4-8.2c1.4-5.2,4.1-9.5,6.2-13.7s4.2-8.1,6.1-11.6c2.9-5.6,6.2-11.1,9.7-16.3
		c1.3-1.8,2.3-3.2,3.1-4.1l0.9-1C356.6,381.5,356.7,381.4,356.8,381.3z"/>
	<g class="st5">
		<path d="M357.3,395.5L357.3,395.5c1-2.8,3.1-3.6,5.4-4.4s5.1-0.7,6.9,0.9c2.1,1.8,2.4,5.1,1.8,7.8c-0.1,1-0.5,1.9-1.1,2.6
			c-0.7,0.8-1.7,1-2.6,0.6c-1-0.5-1.3-2-2.4-2.4s-2.5,0.5-3.7,0.9c-1.8,0.3-3.6-0.6-4.3-2.3C356.7,398,356.8,396.7,357.3,395.5z"/>
	</g>
	<g class="st5">
		<path d="M361.6,381.5c1.1,0.5,1.7,1.6,1.6,2.7c0,1.3-0.3,2.5-0.8,3.6c-0.4,1-0.9,2.1-2,2.1c-0.6,0-1.2-0.3-1.5-0.9
			c-0.3-0.5-0.4-1.1-0.5-1.7c-0.1-1.4,0.1-2.7,0.6-4c0.2-0.7,0.6-1.2,1.2-1.7c0.6-0.4,1.4-0.4,1.9,0"/>
	</g>
	<g class="st5">
		<path d="M373.6,383.9c1.1,0.5,1.7,1.6,1.6,2.7c-0.1,1.3-0.3,2.5-0.8,3.6c-0.4,1-1,2.1-2,2.1c-0.6,0-1.2-0.3-1.5-0.9
			c-0.3-0.5-0.5-1.1-0.5-1.7c-0.1-1.4,0.1-2.7,0.6-4c0.2-0.7,0.6-1.2,1.2-1.7c0.6-0.4,1.4-0.4,1.9,0"/>
	</g>
	<g class="st5">
		<path d="M368.5,379.3c1,0.5,1.7,1.6,1.6,2.7c-0.1,1.3-0.3,2.5-0.8,3.6c-0.4,1-1,2.1-2,2.1c-0.6,0-1.2-0.3-1.5-0.9
			c-0.3-0.5-0.4-1.1-0.5-1.7c-0.1-1.4,0.1-2.7,0.6-4c0.2-0.7,0.6-1.2,1.2-1.7c0.6-0.4,1.4-0.4,1.9,0"/>
	</g>
	<g class="st5">
		<path d="M364.7,420.2c-0.8,6.1-2.4,12-4.9,17.5c-2.5,5.6-6.2,10.6-11,14.4c-2.2,1.7-4.8,3.2-7.6,3.3c-4,0.1-7.5-2.7-9.3-6.3
			s-2-7.6-1.8-11.6c1.9,3.2,4.1,6.6,7.5,8c3.1,1,6.5,0.7,9.3-1c2.8-1.7,5.2-3.9,7.1-6.4c4.3-5.2,7.8-11,10.5-17.3"/>
	</g>
	<path class="st4" d="M140.7,382.1c-4.9-1.5-11-2.8-14.6,0.9c-1.9,2.3-2.7,5.3-2,8.2c0.7,2.8,1.9,5.5,3.5,8
		c8.9,14.3,21.2,26.3,35.7,34.9c5.3,3.1,12.1,5.7,17.2,2.4c4.8-3.1,5.5-10.2,3.2-15.4s-6.8-9.1-11.1-12.9
		C162.6,399,152.2,388.8,140.7,382.1"/>
	<path class="st3" d="M140.7,382.1c0,0,0.1,0.1,0.4,0.2l1.1,0.7c1,0.6,2.5,1.5,4.3,2.8c5.2,3.7,10.1,7.6,14.8,11.9l9.8,8.7
		c3.4,3.2,7.5,6.3,10.6,10.6c1.7,2.2,2.8,4.8,3.3,7.5c0.5,2.9,0.1,5.8-1.1,8.4c-0.7,1.3-1.7,2.5-2.9,3.4c-1.2,0.9-2.7,1.5-4.2,1.7
		c-3.1,0.3-6.2-0.2-9-1.4c-2.8-1.2-5.5-2.7-8-4.4c-2.5-1.6-4.9-3.3-7.2-5c-4.4-3.4-8.5-7.1-12.3-11.1c-3.5-3.6-6.7-7.5-9.6-11.6
		c-1.4-1.9-2.6-3.8-3.8-5.7c-1.1-1.8-2.1-3.7-2.8-5.7c-0.6-1.8-0.8-3.8-0.5-5.7c0.5-3.3,3-5.9,6.3-6.5c1.2-0.2,2.5-0.3,3.8-0.2
		c1.7,0.2,3.4,0.5,5.1,1c0.6,0.2,1,0.3,1.3,0.4L140.7,382.1l-0.4-0.1l-1.3-0.3c-1.7-0.4-3.4-0.7-5.1-0.9c-1.2-0.1-2.5,0-3.7,0.2
		c-1.4,0.3-2.8,1-3.8,2c-2.3,2.1-3,6.2-1.7,9.9c0.7,2,1.6,3.8,2.7,5.6c1.2,1.9,2.4,3.8,3.8,5.7c6.1,8.6,13.5,16.2,21.9,22.6
		c2.3,1.7,4.7,3.4,7.2,5c2.5,1.7,5.1,3.1,7.9,4.3c2.7,1.2,5.7,1.7,8.7,1.4c1.4-0.2,2.8-0.8,4-1.6c1.1-0.8,2.1-1.9,2.7-3.2
		c1.2-2.5,1.6-5.3,1.1-8.1c-0.5-2.6-1.6-5.1-3.2-7.3c-3.1-4.3-7.1-7.4-10.6-10.6l-9.7-8.8c-4.7-4.3-9.6-8.3-14.7-12
		c-1.8-1.3-3.3-2.2-4.3-2.9l-1.1-0.7L140.7,382.1z"/>
	<g class="st5">
		<path d="M145.2,395.6L145.2,395.6c-1.9-2.3-4.2-2.3-6.6-2.3s-5,1.1-6.2,3.2c-1.3,2.5-0.5,5.6,1,8c0.5,0.9,1.2,1.6,2,2.1
			c0.9,0.5,2,0.3,2.7-0.4c0.8-0.9,0.5-2.3,1.4-3.1s2.5-0.4,3.8-0.5c1.8-0.3,3.2-1.8,3.2-3.7C146.6,397.7,146.1,396.5,145.2,395.6z"
			/>
	</g>
	<g class="st5">
		<path d="M136.2,383.9c-0.8,0.8-1,2.1-0.5,3.1c0.5,1.2,1.2,2.2,2,3.1c0.7,0.8,1.6,1.6,2.6,1.3c0.6-0.2,1-0.7,1.1-1.3
			c0.1-0.6,0-1.2-0.1-1.8c-0.4-1.3-1.1-2.5-2-3.5c-0.4-0.5-1-0.9-1.7-1.1c-0.7-0.2-1.4,0.1-1.8,0.7"/>
	</g>
	<g class="st5">
		<path d="M125.9,390.4c-0.8,0.8-1,2.1-0.5,3.1c0.5,1.2,1.2,2.2,2,3.1c0.7,0.8,1.6,1.6,2.6,1.3c0.6-0.2,1-0.7,1.1-1.3
			c0.1-0.6,0-1.2-0.2-1.8c-0.4-1.3-1.1-2.5-2-3.5c-0.4-0.5-1-0.9-1.7-1.1c-0.7-0.2-1.4,0.1-1.8,0.7"/>
	</g>
	<g class="st5">
		<path d="M129,384.4c-0.8,0.8-1,2.1-0.5,3.1c0.5,1.2,1.2,2.2,2,3.1c0.7,0.8,1.6,1.6,2.6,1.3c0.6-0.2,1-0.7,1.1-1.3
			c0.1-0.6,0-1.2-0.2-1.8c-0.4-1.3-1.1-2.5-2-3.5c-0.4-0.5-1-0.9-1.7-1.1c-0.7-0.2-1.4,0.1-1.8,0.7"/>
	</g>
	<g class="st5">
		<path d="M147,421.3c2.9,5.4,6.5,10.3,10.7,14.7c4.3,4.4,9.5,7.7,15.3,9.7c2.7,0.9,5.6,1.3,8.2,0.4c3.7-1.3,6.1-5.2,6.5-9.1
			s-0.8-7.9-2.4-11.5c-0.7,3.7-1.5,7.6-4.2,10.1c-2.5,2.1-5.8,2.9-9,2.3c-3.2-0.6-6.2-1.8-8.9-3.5c-5.8-3.4-11.2-7.6-15.8-12.5"/>
	</g>
	<g class="st5">
		<path class="st6" d="M143.3,415.9c-0.3,0.4-0.6,0.8-0.9,1.2c5-8.1,15.7-10.6,23.9-5.6c8.1,5,10.6,15.7,5.6,23.9
			c-0.3,0.4-0.6,0.9-0.9,1.3c-11.2-4.6-21.4-11.5-29.9-20.1"/>
	</g>
	<path class="st3" d="M425.6,406c0,0.2,0,0.4,0,0.7c-0.1,0.5-0.2,1.1-0.3,1.9c-0.2,1.7-0.6,4.1-1.2,7c-1.4,7.7-3.4,15.3-6.1,22.7
		c-1.6,4-3.4,8-5.6,11.7c-0.5,0.9-1.1,1.7-1.6,2.5l-0.8,1.2l-0.8,1.1l-1.5,2c-0.5,0.6-1.1,1.2-1.6,1.8s-1,1.1-1.5,1.6l-1.4,1.3
		l-1.2,1.1l-1.1,0.9l-1.5,1.2c-0.2,0.2-0.4,0.3-0.6,0.4c0.2-0.2,0.3-0.3,0.5-0.5l1.5-1.3l1.1-0.9l1.2-1.2l1.4-1.3
		c0.5-0.5,0.9-1,1.4-1.6l1.5-1.8l1.5-2.1l0.8-1.1c0.2-0.4,0.5-0.8,0.7-1.2c0.5-0.8,1-1.6,1.5-2.5c2.1-3.7,4-7.6,5.5-11.6
		c2.7-7.3,4.8-14.9,6.3-22.6c0.6-2.9,1-5.3,1.3-7c0.1-0.8,0.3-1.4,0.4-1.9C425.5,406.4,425.5,406.2,425.6,406z"/>
	<path class="st3" d="M195.5,345.3c0.1-0.2,0.3-0.3,0.5-0.5l1.4-1.3c0.6-0.6,1.4-1.2,2.3-2s1.9-1.7,3.1-2.6c2.3-1.9,5.1-4,8.3-6.3
		s6.8-4.6,10.8-6.9s7.8-4.2,11.3-5.9s6.8-3,9.6-4.1c1.4-0.5,2.6-1,3.8-1.4s2.1-0.7,2.9-1l1.8-0.6c0.2-0.1,0.4-0.1,0.6-0.2
		c-0.2,0.1-0.4,0.2-0.6,0.3l-1.8,0.6c-0.8,0.3-1.7,0.6-2.8,1s-2.4,0.9-3.7,1.4c-2.8,1.1-6,2.5-9.5,4.2s-7.3,3.7-11.3,5.9
		s-7.5,4.6-10.8,6.8s-6,4.3-8.4,6.2c-1.2,0.9-2.2,1.8-3.1,2.5s-1.7,1.4-2.3,1.9l-1.5,1.2C195.9,345.1,195.7,345.2,195.5,345.3z"/>
	<path class="st3" d="M167.4,328.6c0,0,0.1,0,0.2-0.1l0.6-0.4l2.2-1.4c0.9-0.6,2.1-1.3,3.5-2.1s3-1.8,4.8-2.7l2.8-1.5
		c1-0.5,2-1,3.1-1.5c2.1-1.1,4.5-2.1,6.9-3.2c4.9-2.1,10.4-4.2,16.3-6s11.6-3.2,16.9-4.2c2.6-0.5,5.1-1,7.5-1.3
		c1.2-0.2,2.3-0.4,3.4-0.5l3.2-0.4c2-0.2,3.8-0.3,5.4-0.5s3-0.2,4.1-0.2l2.6-0.1h0.7c0.1,0,0.2,0,0.2,0h-0.2l-0.7,0.1l-2.6,0.2
		c-1.1,0.1-2.5,0.1-4.1,0.3s-3.4,0.3-5.4,0.5l-3.1,0.4c-1.1,0.1-2.2,0.3-3.4,0.5c-2.4,0.3-4.8,0.8-7.5,1.3
		c-5.2,1.1-10.9,2.5-16.8,4.2s-11.4,3.9-16.3,5.9c-2.4,1.1-4.8,2.1-6.9,3.1c-1.1,0.5-2.1,1-3.1,1.5l-2.8,1.5
		c-1.8,0.9-3.4,1.8-4.8,2.6s-2.6,1.5-3.6,2l-2.2,1.3l-0.6,0.3C167.5,328.6,167.4,328.6,167.4,328.6z"/>
	<path class="st3" d="M286.6,295.7c0.1,0.1-2.5,1.2-5.4,3.1s-4.9,3.9-5,3.7C278.9,299.3,282.5,297,286.6,295.7L286.6,295.7z"/>
	<path class="st3" d="M303.5,301.1c0,0.1-1.5-0.6-3.9-1.2c-3.2-0.8-6.5-1.1-9.8-0.9c-3.3,0.1-6.5,1-9.4,2.5
		c-1.2,0.7-2.2,1.6-2.9,2.8c0.1-0.4,0.3-0.7,0.5-1c0.6-0.8,1.4-1.5,2.2-2.1c2.2-1.4,5.7-2.4,9.6-2.7c3.3-0.2,6.7,0.1,9.9,1.1
		c1,0.3,1.9,0.6,2.9,1C302.8,300.7,303.2,300.9,303.5,301.1z"/>
	<path class="st1" d="M270.6,309.5l1.2,2.8c0.3,0.7,0.6,1.5,0.7,2.3c0.1,0.8-0.1,1.6-0.7,2.2c-0.9,0.8-2.3,0.9-3.3,0.2
		c-0.9-0.7-1.6-1.7-2-2.8c-0.4-1.1-0.7-2.3-1.2-3.3c1.3-1.2,1.9-3,1.6-4.8C267,306.1,268,309.3,270.6,309.5z"/>
	<path class="st3" d="M254.3,299.2c1.8-3.6,5-6.3,8.9-7.4c6.4-1.7,13,5,13,5s-7.7-2.3-7.6,1.6s2.4,3.7-0.2,6.3s-7-0.1-8-3.1
		l-2.1-2.9L254.3,299.2z"/>
	<path class="st3" d="M280.7,303c0,0,0,0.1,0,0.4c0,0.3,0,0.7,0,1c-0.2,1.3-0.7,2.5-1.5,3.5c-1.2,1.6-2.9,2.6-4.9,2.8
		c-2.4,0.2-4.8-0.8-6.3-2.6c-0.8-0.9-1.3-1.9-1.6-3.1l0.5-0.1c0.6,1.9,0.3,4-0.8,5.6c-1.6,2.2-4.3,3.1-6.9,2.3
		c-0.3-0.1-0.5-0.2-0.8-0.3c-0.2-0.1-0.2-0.1-0.2-0.2s0.4,0.1,1,0.3c1,0.2,2,0.2,2.9,0c1.4-0.3,2.7-1.2,3.5-2.4
		c1-1.5,1.3-3.5,0.7-5.2l0.5-0.1c0.3,1.1,0.8,2,1.5,2.8c1.5,1.7,3.6,2.6,5.9,2.5c1.8-0.2,3.5-1.1,4.6-2.6c0.8-1,1.3-2.1,1.6-3.3
		C280.7,303.5,280.7,303,280.7,303z"/>
	<path class="st6" d="M268.4,292.8c-0.7,0.1-1.3,0.1-2,0.1c-1.6,0-3.2,0.2-4.8,0.6c-1.5,0.4-2.9,1.3-4.1,2.4
		c-0.8,0.9-1.1,1.6-1.2,1.6c0.1-0.7,0.5-1.3,0.9-1.9c1.1-1.3,2.5-2.2,4.2-2.7c1.6-0.4,3.3-0.6,5-0.5
		C267,292.5,267.7,292.6,268.4,292.8z"/>
	<path class="st3" d="M270.3,317.6c-1-1.6-1.7-3.4-2.2-5.2c-0.6-1.8-1-3.6-1.1-5.5c0.1,0,0.7,2.4,1.6,5.4S270.4,317.6,270.3,317.6z"
		/>
	<path class="st3" d="M199.1,328.9c0.1-0.1,0.3-0.2,0.4-0.4l1.2-0.9c1-0.8,2.6-1.9,4.6-3.2s4.4-2.8,7.2-4.3s5.9-3,9.2-4.4
		s6.6-2.5,9.6-3.4s5.8-1.6,8.1-2s4.2-0.8,5.6-1l1.5-0.2c0.2,0,0.4,0,0.5,0c-0.2,0.1-0.3,0.1-0.5,0.1l-1.5,0.3
		c-1.3,0.2-3.2,0.6-5.5,1.1s-5,1.2-8,2.1s-6.2,2.1-9.6,3.4s-6.4,2.9-9.2,4.3s-5.2,2.9-7.2,4.1s-3.6,2.3-4.7,3.1l-1.3,0.9
		C199.2,328.8,199.1,328.9,199.1,328.9z"/>
	
		<ellipse transform="matrix(0.2319 -0.9727 0.9727 0.2319 -97.4046 435.7783)" class="st1" cx="227.2" cy="279.6" rx="22.6" ry="22.5"/>
	<path class="st3" d="M249.8,279.6c0,10.9-7.4,19.7-13.6,19.7s-11.2-8.8-11.2-19.7s5-19.7,11.3-19.7S249.8,268.7,249.8,279.6z"/>
	<circle class="st6" cx="241.2" cy="268.5" r="3.9"/>
	<path class="st6" d="M231.3,293.9c-0.2-0.3-0.4-0.6-0.6-0.9c-0.5-0.9-0.9-1.8-1.2-2.8c-0.5-1.4-0.9-2.8-1.2-4.3
		c-0.3-1.8-0.5-3.6-0.6-5.4c0-1.8,0.1-3.7,0.4-5.5c0.3-1.5,0.6-2.9,1.1-4.3c0.3-1,0.7-1.9,1.1-2.8c0.1-0.4,0.3-0.7,0.5-1
		c0.1,0-0.6,1.5-1.3,3.9c-0.4,1.4-0.8,2.8-1,4.3c-0.3,1.8-0.4,3.6-0.4,5.4c0,1.8,0.2,3.6,0.5,5.4c0.3,1.4,0.6,2.9,1.1,4.3
		C230.6,292.5,231.4,293.9,231.3,293.9z"/>
	<path class="st3" d="M221.5,250.9c-0.1,0.7-0.9,1.3-2,1.8s-2.6,1-4.1,1.7s-2.8,1.2-3.9,1.7c-1.1,0.5-2,0.8-2.6,0.4s-0.7-1.5,0-2.9
		c1-1.8,2.6-3.2,4.5-4c1.9-0.8,3.9-1,5.9-0.5C220.8,249.4,221.6,250.2,221.5,250.9z"/>
	<path class="st4" d="M113.9,443l5.1-7.9c24.1,26.5,103.9,58.1,175.3-13.2c30.7-30.6,28.2-82.4,28.2-82.4l-6.1-19.2h6.1
		c0,0,17.7,32.6-0.8,75.3c0,0-19,50.6-77.2,69C152.7,493.6,113.9,443,113.9,443z"/>
	<g class="st7">
		<path class="st6" d="M113.9,443l5.1-7.9c24.1,26.5,103.9,58.1,175.3-13.2c30.7-30.6,28.2-82.4,28.2-82.4l-6.1-19.2h6.1
			c0,0,17.7,32.6-0.8,75.3c0,0-19,50.6-77.2,69C152.7,493.6,113.9,443,113.9,443z"/>
	</g>
	<circle class="st4" cx="81.9" cy="422" r="43.4"/>
	<g class="st7">
		<circle class="st6" cx="81.9" cy="422" r="43.4"/>
	</g>
	<path class="st4" d="M92.3,379.9c0,0.3-0.1,0.6-0.2,0.8c-0.1,0.6-0.3,1.4-0.5,2.4c-0.1,0.5-0.2,1.1-0.4,1.7s-0.4,1.3-0.6,2
		c-0.4,1.4-0.8,3.1-1.5,4.8l-1,2.8c-0.3,1-0.8,1.9-1.2,3c-0.8,2-1.8,4.2-2.9,6.4c-2.4,4.8-5.2,9.4-8.2,13.8
		c-3.1,4.4-6.6,8.5-10.3,12.3c-1.8,1.7-3.4,3.4-5.1,4.8c-0.8,0.7-1.6,1.5-2.4,2.1l-2.3,1.8c-1.4,1.2-2.8,2.1-4,3
		c-0.6,0.4-1.2,0.8-1.7,1.2l-1.5,0.9l-2,1.3c-0.2,0.2-0.5,0.3-0.7,0.4c0.2-0.2,0.4-0.3,0.7-0.5l2-1.3l1.4-1c0.5-0.4,1.1-0.8,1.7-1.2
		c1.2-0.9,2.6-1.9,4-3.1l2.3-1.8c0.8-0.6,1.5-1.4,2.4-2.1c1.7-1.4,3.3-3.1,5-4.8c3.7-3.8,7.1-7.9,10.2-12.3
		c3.1-4.4,5.8-8.9,8.2-13.7c1.1-2.2,2.1-4.3,2.9-6.3c0.4-1,0.9-2,1.2-2.9s0.7-1.9,1-2.7c0.7-1.7,1.1-3.4,1.6-4.8
		c0.2-0.7,0.4-1.4,0.6-2s0.3-1.2,0.4-1.7c0.3-1,0.5-1.8,0.6-2.3C92.1,380.4,92.2,380.2,92.3,379.9z"/>
	<path class="st4" d="M102.5,384.3c0,0.3-0.1,0.6-0.2,0.9c-0.1,0.6-0.3,1.4-0.6,2.5c-0.1,0.5-0.3,1.1-0.4,1.8s-0.4,1.3-0.6,2.1
		c-0.5,1.5-0.9,3.2-1.7,5.1l-1.1,2.9c-0.4,1-0.9,2-1.3,3.1c-0.9,2.1-2,4.4-3.2,6.7c-2.7,5-5.7,9.8-9.1,14.3
		c-3.5,4.5-7.2,8.7-11.3,12.6c-1.9,1.8-3.7,3.5-5.6,4.9c-0.9,0.7-1.7,1.5-2.6,2.1l-2.5,1.9c-1.5,1.2-3.1,2.1-4.4,3s-2.5,1.6-3.4,2.1
		l-2.2,1.3c-0.2,0.2-0.5,0.3-0.8,0.4c0.2-0.2,0.5-0.4,0.7-0.5l2.1-1.4c0.9-0.6,2.1-1.3,3.3-2.2s2.8-1.9,4.3-3.1l2.4-1.8
		c0.9-0.6,1.7-1.4,2.6-2.1c1.8-1.5,3.6-3.1,5.5-4.9c4-3.9,7.8-8.1,11.2-12.6c3.4-4.5,6.4-9.3,9.1-14.2c1.2-2.3,2.3-4.5,3.2-6.6
		c0.4-1.1,1-2.1,1.3-3.1s0.8-2,1.1-2.9c0.8-1.8,1.2-3.5,1.7-5c0.2-0.8,0.5-1.4,0.7-2.1s0.3-1.2,0.5-1.8c0.3-1,0.5-1.8,0.7-2.4
		C102.3,384.9,102.4,384.6,102.5,384.3z"/>
	<path class="st4" d="M112,392.1c-0.1,0.3-0.1,0.6-0.2,0.9c-0.2,0.6-0.4,1.4-0.7,2.5c-0.2,0.5-0.3,1.1-0.5,1.8s-0.5,1.3-0.8,2.1
		c-0.6,1.5-1.1,3.2-2,5l-1.2,2.9c-0.4,1-0.9,2-1.5,3.1c-1,2.1-2.2,4.3-3.5,6.6c-2.8,4.9-6,9.7-9.5,14.2c-3.6,4.5-7.4,8.7-11.6,12.6
		c-2,1.8-3.8,3.5-5.6,4.9c-0.9,0.7-1.8,1.5-2.6,2.1l-2.5,1.9c-1.6,1.2-3.1,2.2-4.4,3c-0.7,0.4-1.3,0.9-1.8,1.2l-1.6,0.9l-2.2,1.3
		c-0.3,0.2-0.5,0.3-0.8,0.4c0.2-0.2,0.5-0.4,0.7-0.5l2.2-1.4l1.6-1c0.6-0.4,1.2-0.8,1.8-1.2c1.3-0.9,2.8-1.9,4.4-3.1
		c0.8-0.6,1.6-1.2,2.5-1.9s1.7-1.4,2.6-2.1c1.8-1.5,3.6-3.2,5.6-4.9c4.1-3.9,8-8.1,11.5-12.6c3.5-4.5,6.7-9.2,9.6-14.1
		c1.3-2.3,2.5-4.5,3.5-6.6c0.5-1,1-2,1.5-3s0.8-2,1.2-2.9c0.8-1.8,1.4-3.5,2-5c0.3-0.7,0.6-1.4,0.8-2s0.4-1.2,0.6-1.8
		c0.3-1,0.6-1.8,0.8-2.4C111.8,392.6,111.9,392.4,112,392.1z"/>
	<path class="st4" d="M123.4,433.2c-0.3-0.1-0.7-0.2-1-0.4c-0.6-0.3-1.5-0.7-2.5-1.3c-2.1-1.1-5-2.7-8.2-4.6s-5.9-3.7-7.9-5
		c-1-0.7-1.8-1.2-2.3-1.6c-0.3-0.2-0.6-0.4-0.8-0.7c0.3,0.1,0.6,0.3,0.9,0.5l2.4,1.5c2,1.3,4.8,3,7.9,4.9s6,3.5,8.1,4.7l2.4,1.4
		C122.8,432.8,123.1,433,123.4,433.2z"/>
	<path class="st4" d="M125.2,423.9c-1-0.6-2-1.2-2.9-1.9c-1.8-1.2-4.2-2.9-7-4.5s-5.4-3.1-7.3-4.2c-1-0.5-2-1.1-3-1.8
		c0.3,0.1,0.6,0.2,0.9,0.3c0.6,0.2,1.3,0.6,2.3,1.1c1.9,1,4.6,2.4,7.4,4s5.2,3.4,7,4.7c0.9,0.6,1.6,1.2,2,1.6
		S125.2,423.9,125.2,423.9z"/>
	<path class="st4" d="M98.5,461.2c-0.2,0-0.5-7.9-0.8-17.8s-0.4-17.8-0.2-17.8s0.5,7.9,0.8,17.8S98.6,461.2,98.5,461.2z"/>
	<path class="st4" d="M77.1,466.2c-0.3-3.3-0.4-6.6-0.3-9.9c-0.1-3.3,0-6.6,0.3-9.9c0.3,3.3,0.3,6.6,0.3,9.9
		C77.5,459.6,77.4,462.9,77.1,466.2z"/>
	<path class="st4" d="M87.6,465c-0.1,0-0.2-6.5-0.2-14.5s0.2-14.5,0.4-14.5s0.2,6.5,0.2,14.5S87.8,465,87.6,465z"/>
	<path class="st4" d="M65.5,429.8c-0.1,0.1-5.7-3.5-12.6-8.2s-12.4-8.5-12.3-8.6s5.7,3.5,12.6,8.2S65.5,429.7,65.5,429.8z"/>
	<path class="st4" d="M57.9,436c-0.3,0-0.6-0.1-0.9-0.3c-0.5-0.2-1.3-0.5-2.2-1c-2.4-1.2-4.7-2.5-7-3.9c-2.7-1.7-5-3.4-6.6-4.6
		c-0.9-0.6-1.8-1.3-2.6-2.1c1,0.5,1.9,1.2,2.8,1.8c1.7,1.2,4,2.8,6.7,4.5s5.1,3,6.9,4C56,434.9,57,435.4,57.9,436z"/>
	<path class="st4" d="M83.9,403.6c-0.5,0.2-1,0.4-1.5,0.6c-0.6,0.2-1.2,0.4-1.8,0.6c-0.7,0.2-1.5,0.4-2.5,0.6
		c-2.2,0.5-4.3,0.8-6.5,1c-2.7,0.2-5.4,0.3-8.1,0.2c-2.7-0.1-5.4-0.3-8.1-0.8c-2.2-0.3-4.3-0.8-6.5-1.4c-0.9-0.2-1.7-0.5-2.4-0.7
		s-1.3-0.4-1.8-0.6c-0.5-0.2-1-0.4-1.5-0.6c0.5,0.1,1.1,0.3,1.6,0.5c0.5,0.2,1.1,0.4,1.8,0.5s1.5,0.4,2.4,0.6c1.8,0.5,4,0.9,6.5,1.3
		c2.7,0.4,5.3,0.6,8,0.7c2.7,0.1,5.3,0,8-0.2c2.2-0.2,4.4-0.5,6.5-0.9c0.9-0.2,1.8-0.4,2.5-0.5s1.3-0.3,1.8-0.5
		C82.8,403.8,83.4,403.7,83.9,403.6z"/>
	<path class="st4" d="M88.7,392.4c-0.5,0.3-1,0.5-1.5,0.7c-0.5,0.2-1.1,0.4-1.8,0.7s-1.5,0.5-2.4,0.8c-2.1,0.6-4.2,1.2-6.4,1.6
		c-2.6,0.5-5.3,0.8-8,1c-2.7,0.2-5.4,0.2-8.1,0c-2.2-0.1-4.4-0.4-6.5-0.9c-0.9-0.2-1.8-0.4-2.5-0.6c-0.6-0.2-1.2-0.3-1.8-0.5
		c-0.5-0.2-1-0.3-1.5-0.6c0.5,0.1,1.1,0.2,1.6,0.4c0.5,0.1,1.1,0.3,1.8,0.5s1.5,0.4,2.5,0.5c2.1,0.4,4.3,0.6,6.5,0.7
		c2.7,0.1,5.3,0.1,8-0.1c2.7-0.2,5.3-0.5,7.9-1c2.4-0.5,4.6-0.9,6.4-1.5c0.9-0.2,1.7-0.5,2.4-0.7s1.3-0.4,1.8-0.6
		C87.7,392.6,88.2,392.5,88.7,392.4z"/>
	<path class="st4" d="M91.7,382.5c-0.4,0.2-0.9,0.4-1.3,0.5c-0.9,0.3-2.1,0.8-3.7,1.2c-4.1,1.3-8.3,2.2-12.6,2.8
		c-4.3,0.6-8.6,0.9-12.9,0.7c-1.7-0.1-3-0.2-3.9-0.3c-0.5,0-1-0.1-1.4-0.2c0.5,0,1,0,1.4,0c0.9,0,2.2,0.1,3.9,0.1
		c4.3,0,8.5-0.2,12.8-0.8c4.2-0.6,8.4-1.5,12.6-2.7c1.6-0.4,2.9-0.8,3.7-1.1C90.7,382.7,91.2,382.6,91.7,382.5z"/>
	<path class="st4" d="M109.2,425.1c-1.7,2.3-3.6,4.4-5.6,6.5c-1.9,2.2-3.8,4.2-5.9,6.1c1.7-2.3,3.6-4.4,5.6-6.5
		C105.1,429.1,107.1,427.1,109.2,425.1z"/>
	<path class="st4" d="M117.5,430.1c-0.1,0.3-0.3,0.6-0.4,0.8c-0.3,0.5-0.8,1.3-1.5,2.1c-3.4,4.6-7.8,8.5-12.8,11.3
		c-1,0.5-1.8,0.9-2.3,1.2c-0.3,0.2-0.6,0.3-0.9,0.3c0-0.1,1.2-0.7,3-1.8c2.4-1.5,4.7-3.1,6.8-5c2.1-1.9,4.1-3.9,5.8-6.1
		C116.7,431.1,117.4,430,117.5,430.1z"/>
	<path class="st4" d="M120.1,434.5c-0.4,4-2.4,7.6-5.6,10c1.3-1.5,2.4-3,3.4-4.7C118.7,438.1,119.5,436.3,120.1,434.5z"/>
	<path class="st4" d="M128.4,443.7c-0.3,1.6-1,3.1-2.1,4.3c-1,1.3-2.3,2.4-3.8,3c1.2-1,2.3-2.1,3.4-3.3
		C126.8,446.4,127.7,445.1,128.4,443.7z"/>
	<path class="st4" d="M142,452c0,1.7-0.4,3.4-1.3,4.9c-0.8,1.6-1.9,2.9-3.4,3.7c1.1-1.2,2.1-2.6,3-4C141,455.2,141.6,453.6,142,452z
		"/>
	<path class="st4" d="M157.5,459.5c0.4,1.6,0.2,3.3-0.5,4.8c-0.5,1.6-1.6,2.9-2.9,3.9C156.2,465.7,157.4,462.7,157.5,459.5z"/>
	<path class="st4" d="M171.9,472.2c-0.1,0,0.4-2,0.6-4.4s-0.2-4.5-0.1-4.5C173.4,466.3,173.2,469.5,171.9,472.2z"/>
	<path class="st4" d="M183.6,473.1c-0.1-0.1,0.6-1.8,0.8-4.1s-0.2-4.1,0-4.1C185.4,467.6,185.1,470.6,183.6,473.1L183.6,473.1z"/>
	<path class="st4" d="M200.1,473c-0.1,0,0.1-1.7-0.2-3.8s-0.9-3.6-0.8-3.7c0.8,1.1,1.2,2.3,1.3,3.6
		C200.7,470.5,200.5,471.8,200.1,473z"/>
	<path class="st4" d="M211.4,472c-0.2,0-0.2-1.6-0.7-3.5s-1.4-3.3-1.2-3.3C211.1,467.1,211.8,469.6,211.4,472z"/>
	<path class="st4" d="M224.8,469.1c-0.2,0-0.1-1.6-0.7-3.4s-1.5-3-1.4-3.1C224.5,464.2,225.3,466.7,224.8,469.1L224.8,469.1z"/>
	<path class="st4" d="M241.2,465.7c-0.2,0-0.2-1.8-0.9-3.7s-1.8-3.4-1.7-3.5C240.5,460.4,241.5,463,241.2,465.7L241.2,465.7z"/>
	<path class="st4" d="M255,460.3c-0.1,0-0.7-1.8-1.9-3.8s-2.5-3.3-2.4-3.5C253,454.9,254.6,457.5,255,460.3L255,460.3z"/>
	<path class="st4" d="M270.5,452.2c-0.1,0-0.6-1.9-1.9-3.9s-2.7-3.3-2.6-3.4C268.5,446.5,270.1,449.2,270.5,452.2L270.5,452.2z"/>
	<path class="st4" d="M285.6,441.4c-0.7-1.2-1.4-2.3-2.2-3.4c-0.9-1-1.9-1.8-3-2.7c1.4,0.4,2.6,1.2,3.4,2.3
		C284.8,438.7,285.4,440,285.6,441.4z"/>
	<path class="st4" d="M298.5,430.3c-0.1,0.1-1.3-1.5-3.1-3.2s-3.5-2.7-3.4-2.9c1.4,0.5,2.7,1.4,3.8,2.5
		C296.9,427.8,297.9,429,298.5,430.3z"/>
	<path class="st4" d="M310.1,415.9c-0.1,0.1-1.1-1.5-2.9-3s-3.5-2.2-3.5-2.4C306.6,411.3,308.9,413.3,310.1,415.9L310.1,415.9z"/>
	<path class="st4" d="M320.4,398.8c-1.2-0.9-2.4-1.8-3.6-2.6c-1.3-0.6-2.7-1.2-4.1-1.7c1.6,0,3.1,0.4,4.4,1.2
		C318.4,396.4,319.6,397.5,320.4,398.8z"/>
	<path class="st4" d="M326.7,380.2c-2.7-1.6-5.8-2.3-8.9-2.1C320.9,377.2,324.3,378,326.7,380.2z"/>
	<path class="st4" d="M329.5,360.4c0,0.1-1.7-0.4-3.8-0.6s-3.8,0-3.8-0.2C324.5,358.8,327.2,359.1,329.5,360.4L329.5,360.4z"/>
	<path class="st4" d="M328.5,340.4c-0.9,0.1-1.9,0.2-2.8,0.1c-0.9,0.1-1.9,0.2-2.8,0.1C324.6,339.9,326.6,339.8,328.5,340.4
		L328.5,340.4z"/>
	<path class="st4" d="M324.4,326.7c-1-0.2-2-0.3-3-0.3c-1,0.2-1.9,0.5-2.8,0.9c0,0,0.2-0.3,0.7-0.7c0.6-0.4,1.4-0.7,2.1-0.8
		c0.8-0.1,1.5,0,2.2,0.3C324.1,326.4,324.4,326.7,324.4,326.7z"/>
	<g class="st5">
		<path d="M256.6,394c4.9,9.2,16.2,13.9,26.5,12.7s19.5-7.7,26-15.9c4.8-6.1,8.3-13.9,6.3-21.4c-10.6,22.1-36.5,32.3-59.4,23.3"/>
	</g>
	<path class="st4" d="M317.1,314.8c-4.8-7.4-2.9-17.4,4.3-22.5c2.8-2,6.1-3.1,8.7-5.2c3.2-2.8,5.2-6.8,5.4-11.1
		c0.2-4.3-0.7-8.5-2.7-12.2l2.8-1.4l0.2,0.3c6.9,9.1,5.1,22-3.9,28.9c-1.1,0.8-2.2,1.5-3.4,2.1c-2.1,1-4,2.2-5.8,3.6
		c-3.5,3-2,6.4-2,6.4"/>
	<g class="st7">
		<path class="st6" d="M317.1,314.8c-4.8-7.4-2.9-17.4,4.3-22.5c2.8-2,6.1-3.1,8.7-5.2c3.2-2.8,5.2-6.8,5.4-11.1
			c0.2-4.3-0.7-8.5-2.7-12.2l2.8-1.4l0.2,0.3c6.9,9.1,5.1,22-3.9,28.9c-1.1,0.8-2.2,1.5-3.4,2.1c-2.1,1-4,2.2-5.8,3.6
			c-3.5,3-2,6.4-2,6.4"/>
	</g>
	<path class="st4" d="M321,303.8c-1.1-0.2-2.3-0.3-3.4-0.3c-1.1,0.2-2.3,0.5-3.3,0.9C316.1,302.7,318.9,302.4,321,303.8z"/>
	<path class="st4" d="M323.6,296.1c-0.1,0-0.6-0.8-1.4-1.6s-1.7-1.3-1.6-1.4s1.1,0.1,2,1S323.8,296.1,323.6,296.1z"/>
	<path class="st4" d="M333.4,290.3c-0.1,0-0.5-0.9-1.3-1.9s-1.6-1.5-1.6-1.6s1.1,0.3,2,1.3S333.6,290.3,333.4,290.3z"/>
	<path class="st4" d="M340,277.9c-0.8-0.1-1.5-0.2-2.3-0.4c-0.8,0-1.5-0.1-2.3-0.2C337,276.7,338.7,276.9,340,277.9z"/>
	<path class="st4" d="M337.8,265.9c0,0.1-0.9,0.1-1.8,0.4s-1.6,0.7-1.7,0.6s0.5-0.8,1.6-1.1S337.8,265.7,337.8,265.9z"/>
	<path class="st4" d="M245.2,339.9c3.5-2.3,8.2-1.5,12.3-0.2s8,3.2,12.3,2.8c4.6-0.4,8.5-3.5,11.5-7c3.7-4.3,6.5-9.3,8.2-14.8
		c1.7-5.5,2.5-12,7.3-15.3s11.4-1.6,15.5,2.2s6.1,9.5,7.4,15c3,12.7,3,26.3-1.1,38.7s-12.6,23.5-24.1,29.8s-26,7.1-37.7,1.3"/>
	<path class="st3" d="M256.7,392.4c0.2,0.1,0.4,0.1,0.5,0.2l1.6,0.7c0.7,0.3,1.6,0.6,2.6,1s2.2,0.7,3.6,1c3.4,0.7,6.8,1,10.3,0.9
		c2.1-0.1,4.3-0.3,6.4-0.7c2.4-0.4,4.7-1.1,7-1.9c5.2-1.9,10-4.8,14.1-8.5c4.8-4.2,8.7-9.2,11.7-14.9c3.3-6.2,5.4-12.9,6.3-19.9
		c1-7.5,0.8-15.1-0.5-22.5c-0.6-3.8-1.5-7.5-2.8-11.1c-1.2-3.5-3.2-6.7-5.9-9.2c-2.7-2.4-6.1-3.6-9.7-3.5c-1.7,0.1-3.4,0.6-4.8,1.5
		c-1.4,0.9-2.6,2.2-3.4,3.6c-1.7,2.8-2.5,6.1-3.3,9.1c-0.7,3-1.8,5.9-3.2,8.7c-1.3,2.6-2.8,5.1-4.7,7.3c-1.6,2.1-3.6,4-5.8,5.6
		c-2,1.5-4.3,2.4-6.7,2.7c-2.2,0.2-4.4,0-6.5-0.7c-3.9-1.1-7.1-2.6-9.9-3.1c-2.1-0.5-4.3-0.4-6.4,0.2c-0.5,0.2-1.1,0.4-1.6,0.6
		c-0.3,0.2-0.5,0.3-0.5,0.3l0.5-0.3c0.5-0.3,1-0.5,1.6-0.7c2.1-0.6,4.4-0.7,6.5-0.3c2.8,0.4,6.1,1.9,9.9,3c2,0.6,4.2,0.8,6.3,0.6
		c2.4-0.3,4.6-1.3,6.6-2.7c2.1-1.6,4-3.4,5.7-5.5c1.8-2.2,3.3-4.7,4.6-7.3c1.3-2.8,2.4-5.7,3.1-8.7c0.8-3,1.6-6.3,3.3-9.3
		c0.9-1.5,2.1-2.8,3.5-3.8c1.5-1,3.2-1.5,5-1.6c1.8-0.1,3.6,0.2,5.3,0.8c1.7,0.6,3.4,1.6,4.8,2.8c2.8,2.6,4.9,5.8,6.1,9.4
		c1.3,3.6,2.2,7.4,2.8,11.2c1.3,7.5,1.5,15.1,0.5,22.6c-0.9,7-3.1,13.8-6.4,20.1c-3,5.7-7,10.8-11.8,15c-4.2,3.7-9,6.6-14.3,8.5
		c-2.3,0.8-4.6,1.5-7,1.9c-2.1,0.4-4.3,0.6-6.5,0.7c-3.5,0.1-6.9-0.2-10.3-1c-1.4-0.3-2.6-0.7-3.6-1s-1.9-0.7-2.6-1l-1.5-0.7
		C256.9,392.5,256.7,392.4,256.7,392.4z"/>
	<path class="st3" d="M299.8,317.1c-0.5-0.4-0.9-1-1.2-1.6c-0.8-1.4-1.1-3-1.1-4.6c0-1.6,0.4-3.2,1.2-4.6c0.3-0.6,0.7-1.1,1.2-1.5
		c0.1,0.1-0.4,0.6-0.9,1.7c-1.3,2.8-1.4,6.1-0.1,8.9C299.4,316.5,299.9,317.1,299.8,317.1z"/>
	<path class="st3" d="M305.8,316.3c-0.5-0.5-0.8-1-1.1-1.6c-0.7-1.4-1.1-3-1.2-4.6c-0.1-1.6,0.1-3.2,0.6-4.7
		c0.2-0.6,0.5-1.2,0.9-1.8C303.6,307.7,303.8,312.3,305.8,316.3L305.8,316.3z"/>
	<path class="st3" d="M310.7,318c-0.6-1.5-0.9-3.2-0.8-4.8c0-1.6,0.3-3.3,1-4.8c0.1,0-0.4,2.1-0.5,4.8S310.9,318,310.7,318z"/>
	<path class="st4" d="M394.2,330.5c-9.1,5.6-21.3,4.5-30.8-0.5s-16.7-13.4-22.6-22.2c-1.7-2.5-3.4-5.1-6.1-6.7
		c-5.2-3-12.4-0.1-15.3,5s-2.4,11.6-0.1,17.1c0,0,6.1,29.6,37.9,47.9"/>
	<path class="st3" d="M357.1,371.2c-0.1,0-0.2-0.1-0.3-0.1l-0.8-0.5c-0.7-0.4-1.7-1-3-1.8c-0.6-0.4-1.4-0.8-2.1-1.4l-2.5-1.8
		c-0.9-0.7-1.9-1.3-2.8-2.1l-3-2.6c-4.9-4.4-9.4-9.4-13.1-14.9c-2.3-3.3-4.3-6.8-6-10.4c-1.9-3.9-3.5-8-4.6-12.3v0
		c-1.5-3.5-2.2-7.3-1.9-11.1c0.2-2,0.8-3.9,1.7-5.7c2.4-4.6,7.3-7.3,12.4-6.9c1.5,0.2,2.9,0.7,4.1,1.5c1.2,0.8,2.2,1.8,3.1,2.9
		c0.9,1.1,1.7,2.3,2.4,3.4s1.5,2.2,2.3,3.3c1.6,2.2,3.2,4.2,4.9,6.2c3.1,3.7,6.7,7,10.6,9.8c3.4,2.5,7.2,4.4,11.3,5.6
		c5.8,1.9,12.1,2.1,18,0.6c0.5-0.1,1-0.3,1.5-0.5c0.5-0.2,0.9-0.3,1.3-0.5c0.8-0.3,1.4-0.6,1.9-0.9l1.1-0.6c0.1-0.1,0.3-0.1,0.4-0.2
		c-0.1,0.1-0.2,0.2-0.4,0.2l-1.1,0.6c-0.5,0.3-1.1,0.5-1.9,0.9c-0.4,0.2-0.8,0.3-1.3,0.5c-0.5,0.2-1,0.4-1.5,0.5
		c-6,1.6-12.3,1.5-18.2-0.4c-4.1-1.2-7.9-3.1-11.4-5.6c-4-2.8-7.6-6.1-10.7-9.9c-1.7-1.9-3.3-4-4.9-6.2c-0.8-1.1-1.6-2.2-2.3-3.3
		s-1.5-2.3-2.4-3.4c-0.9-1.1-1.9-2-3-2.8c-1.2-0.8-2.5-1.2-3.9-1.4c-2.9-0.3-5.7,0.5-8.1,2.2c-3.2,2.3-5.2,5.9-5.4,9.8
		c-0.3,3.7,0.3,7.4,1.8,10.8v0c1.1,4.2,2.6,8.3,4.5,12.2c1.7,3.6,3.7,7.1,6,10.3c3.7,5.5,8.1,10.5,13,14.9l3,2.6
		c0.9,0.8,1.9,1.5,2.8,2.1l2.4,1.8c0.7,0.6,1.5,1,2.1,1.4l2.9,1.9l0.8,0.5C357,371.1,357.1,371.2,357.1,371.2z"/>
	<path class="st3" d="M327.8,317.9c-0.8-2.4-1.8-4.7-3.2-6.9c-2.3-3.5-5.3-5.3-5.2-5.5c0.7,0.3,1.3,0.7,1.9,1.2
		c2.9,2.3,5,5.4,6.1,8.9C327.7,316.4,327.8,317.1,327.8,317.9z"/>
	<path class="st3" d="M334,313.9c-0.4-2.5-1.1-5-2.2-7.4c-1.2-2.3-2.7-4.4-4.4-6.3c0.7,0.4,1.2,0.9,1.8,1.5c1.3,1.3,2.3,2.9,3.1,4.6
		c0.8,1.7,1.4,3.5,1.6,5.3C334.1,312.3,334.1,313.1,334,313.9z"/>
	<g class="st5">
		<path class="st6" d="M313.3,372.6c2.5-3.8-7.8-4.7-12.3-4.2c-13.7,1.6-24,13.3-23.8,27.1C277.2,395.5,297,397.6,313.3,372.6z"/>
	</g>
	<g class="st5">
		<path d="M330.2,355.6c5.2,8,12.9,13.9,21.9,17c0.9,0.4,2,0.6,3,0.4c1-0.2,1.8-1,1.9-2.1c-10.7-5.8-19.9-14.1-26.7-24.1
			c-0.5,3.1-0.1,6.2,1.3,9.1"/>
	</g>
	<circle class="st1" cx="300.5" cy="272.1" r="22.5"/>
	<path class="st3" d="M323,273.1c0,10.9-5.7,20-12.1,20s-11.5-8.8-11.5-19.7s5.2-19.7,11.5-19.7S323,262.2,323,273.1z"/>
	<path class="st6" d="M305.3,282.4c-0.2-0.2-0.3-0.5-0.5-0.7c-0.4-0.7-0.7-1.4-0.9-2.2c-1.7-5-1.6-10.5,0.4-15.4
		c0.3-0.7,0.7-1.4,1.1-2.1c0.1-0.3,0.3-0.5,0.5-0.7c0.1,0-0.5,1.1-1.2,3c-0.9,2.4-1.4,5-1.4,7.6c-0.1,2.6,0.3,5.1,1,7.6
		C304.8,281.3,305.4,282.4,305.3,282.4z"/>
	<circle class="st6" cx="313.8" cy="260.7" r="3.9"/>
	<path class="st3" d="M315.1,244.3c-0.4,0.6-1.5,0.6-2.9,0.4s-3.1-0.6-5-0.9s-3.5-0.5-4.9-0.7s-2.4-0.5-2.7-1.1s0.4-1.6,1.9-2.5
		c0.9-0.5,1.9-0.8,2.9-0.9c1.2-0.2,2.4-0.2,3.7,0c2.2,0.3,4.2,1.3,5.8,2.8C315.1,242.6,315.5,243.7,315.1,244.3z"/>
	<path class="st4" d="M304.9,300.3c-4-8.2-0.6-18,7.6-21.9c6.7-3.2,14.7-1.6,19.5,3.9"/>
	<path class="st3" d="M332,282.3c0,0-0.5-0.5-1.4-1.2c-1.3-1.1-2.7-2-4.2-2.6c-2.3-1-4.7-1.4-7.2-1.4c-6.2-0.1-11.8,3.7-14.2,9.4
		c-1,2.3-1.5,4.7-1.5,7.2c0,1.7,0.3,3.3,0.8,4.9c0.4,1.1,0.6,1.7,0.6,1.7c-0.1-0.1-0.2-0.3-0.2-0.4c-0.2-0.4-0.4-0.8-0.5-1.3
		c-0.6-1.6-0.9-3.3-0.9-5c-0.1-2.5,0.4-5,1.4-7.4c2.4-5.9,8.2-9.8,14.6-9.7c2.5,0,5,0.5,7.3,1.5c1.6,0.7,3,1.6,4.2,2.8
		c0.3,0.3,0.7,0.6,1,1C331.8,282,331.9,282.1,332,282.3z"/>
	<path class="st3" d="M260.1,214.9c-0.2,0.1-0.3,0.1-0.5,0.2l-1.5,0.4c-0.6,0.2-1.4,0.4-2.4,0.7l-1.4,0.4l-1.6,0.6
		c-5.9,2.1-11.5,4.7-16.8,8c-5.3,3.3-10.4,6.9-15.2,10.9c-1.9,1.5-3.3,2.8-4.4,3.6l-1.2,1c-0.3,0.2-0.4,0.3-0.4,0.3
		c0.1-0.1,0.2-0.3,0.4-0.4l1.1-1.1c1-0.9,2.4-2.2,4.2-3.8c4.8-4.1,9.8-7.7,15.2-11c5.3-3.3,11-6,17-7.9l1.6-0.5l1.5-0.4
		c0.9-0.3,1.7-0.5,2.4-0.6l1.5-0.3C259.7,214.9,259.9,214.9,260.1,214.9z"/>
</g>
<g id="freepik--404-error--inject-2">
	<path class="st3" d="M115.1,92.8c-0.2-0.4-0.3-0.8-0.4-1.2c-0.1-0.4-0.2-0.9-0.4-1.4s-0.3-1.2-0.4-1.9c-0.3-1.7-0.4-3.3-0.5-5
		c0-2.1,0.1-4.1,0.4-6.2c0.3-2,0.8-4,1.5-6c0.6-1.6,1.2-3.1,2-4.6c0.3-0.7,0.7-1.2,0.9-1.7s0.6-0.9,0.8-1.2c0.2-0.4,0.5-0.7,0.8-1
		c0.1,0-0.9,1.5-2.1,4.1c-0.7,1.5-1.3,3-1.8,4.6c-0.6,1.9-1.1,3.9-1.4,5.9c-0.3,2-0.4,4-0.4,6.1c0,1.7,0.1,3.3,0.3,5
		C114.7,91.1,115.2,92.8,115.1,92.8z"/>
	
		<rect x="143.9" y="50.7" transform="matrix(0.9831 -0.1829 0.1829 0.9831 -16.3331 48.3958)" class="st6" width="220.6" height="124.1"/>
	<path class="st3" d="M373.9,153.5c0,0-0.2-0.7-0.4-2.2s-0.7-3.6-1.2-6.4c-1-5.6-2.6-13.8-4.6-24.4c-4-21.1-9.7-51.6-16.7-89
		l0.2,0.2L134.5,72.2l0,0l0.2-0.3c8,43.1,15.7,84.4,22.7,122l-0.3-0.2l156-28.9l44.8-8.3l11.9-2.2l3.1-0.6L373.9,153.5l-1,0.2
		l-3,0.6l-11.9,2.2l-44.7,8.4l-156.1,29.1l-0.2,0.1v-0.2c-7-37.6-14.7-78.8-22.7-122v-0.3h0.2l0,0l216.8-40.3h0.2v0.2l16.5,89.2
		c1.9,10.6,3.5,18.8,4.5,24.3l1.2,6.3C373.8,152.8,373.9,153.5,373.9,153.5z"/>
	<path class="st3" d="M227.7,118.7l-6.7,1.2l1.6,8.6l-12.3,2.3l-1.6-8.6l-23.7,4.4l-1.5-8.2l14.9-31.7l13.1-2.4l-13.4,29.5l9.1-1.7
		l-1.4-7.6l12-2.2l1.4,7.6l6.6-1.2L227.7,118.7z"/>
	<path class="st3" d="M227.7,104.4c-2.8-14.8,4-24.8,15.4-27s21.3,4.8,24,19.6s-4,24.8-15.4,26.9S230.4,119.2,227.7,104.4z
		 M254.4,99.4C252.6,90,249,87,245,87.8s-6.4,4.8-4.6,14.2s5.3,12.4,9.4,11.6S256.1,108.8,254.4,99.4L254.4,99.4z"/>
	<path class="st3" d="M316.2,102.2l-6.6,1.2l1.6,8.6l-12.3,2.3l-1.6-8.6l-23.7,4.4l-1.5-8.2l14.9-31.7l13.1-2.4l-13.3,29.5l9.1-1.7
		l-1.4-7.6l12-2.2l1.4,7.6l6.6-1.2L316.2,102.2z"/>
	<path class="st3" d="M232.1,154.8l0.4,2.2l-12.7,2.4l-3.3-17.6l12.4-2.3l0.4,2.2l-9.9,1.8l1,5.4l8.8-1.6l0.4,2.1l-8.8,1.7l1.1,5.7
		L232.1,154.8z"/>
	<path class="st3" d="M248.3,154l-4.8-4.7c-0.3,0.1-0.7,0.2-1.1,0.3l-4.3,0.8l1,5.3l-2.5,0.5l-3.3-17.6l6.9-1.3
		c4.6-0.9,7.8,0.9,8.5,4.8c0.6,2.5-0.6,5.1-2.8,6.3l5.3,5.1L248.3,154z M246.1,142.6c-0.5-2.5-2.4-3.6-5.6-3l-4.3,0.8l1.5,7.9
		l4.3-0.8C245.1,146.8,246.6,145.1,246.1,142.6L246.1,142.6z"/>
	<path class="st3" d="M266.5,150.6l-4.8-4.7c-0.3,0.1-0.7,0.2-1.1,0.3l-4.3,0.8l1,5.4l-2.5,0.5l-3.3-17.6l6.8-1.3
		c4.6-0.9,7.8,1,8.5,4.8c0.6,2.5-0.6,5.1-2.8,6.3l5.3,5.1L266.5,150.6z M264.3,139.2c-0.5-2.5-2.4-3.6-5.6-3l-4.3,0.8l1.5,7.9
		l4.3-0.8C263.4,143.4,264.8,141.7,264.3,139.2L264.3,139.2z"/>
	<path class="st3" d="M269.9,140.9c-1-5.1,2.3-9.7,7.7-10.7s10,2.1,11,7.2s-2.3,9.7-7.6,10.7S270.9,146,269.9,140.9z M286.1,137.9
		c-0.7-3.8-4.2-6.3-8-5.7s-6.3,4.2-5.7,8s4.2,6.3,8,5.7c0,0,0.1,0,0.1,0c3.7-0.6,6.2-4,5.6-7.6C286.1,138.1,286.1,138,286.1,137.9
		L286.1,137.9z"/>
	<path class="st3" d="M305.8,143.3l-4.8-4.7c-0.4,0.1-0.7,0.2-1.1,0.2l-4.3,0.8l1,5.3l-2.5,0.5l-3.3-17.6l6.9-1.3
		c4.6-0.8,7.8,0.9,8.5,4.8c0.6,2.5-0.6,5.1-2.8,6.3l5.3,5.1L305.8,143.3z M303.6,131.9c-0.5-2.5-2.4-3.6-5.6-3l-4.3,0.8l1.5,7.9
		l4.3-0.8C302.7,136.1,304.1,134.4,303.6,131.9L303.6,131.9z"/>
	<path class="st2" d="M346.7,44.8c0.1,2.5-1.8,4.6-4.3,4.7c-2.5,0.1-4.6-1.8-4.7-4.3c-0.1-2.5,1.8-4.6,4.3-4.7c0,0,0,0,0,0
		C344.5,40.4,346.6,42.3,346.7,44.8z"/>
	<path class="st3" d="M346.7,44.8c0,0-0.1-0.4-0.3-1.1c-0.3-0.9-0.9-1.7-1.8-2.3c-2-1.3-4.7-0.8-6,1.2c-0.5,0.8-0.8,1.7-0.7,2.6
		c0.1,2.4,2.1,4.2,4.5,4.1c0.9,0,1.8-0.4,2.5-0.9c0.8-0.6,1.3-1.5,1.6-2.4C346.6,45.2,346.6,44.8,346.7,44.8c0,0,0,0.1,0,0.3
		c0,0.3,0,0.6,0,0.8c-0.2,1-0.7,2-1.5,2.7c-1.2,1-2.9,1.4-4.4,0.9c-2.5-0.8-3.9-3.4-3.1-5.9c0.4-1.4,1.4-2.5,2.8-3
		c1.5-0.6,3.2-0.4,4.5,0.5c0.9,0.6,1.5,1.5,1.7,2.5c0.1,0.3,0.1,0.5,0.1,0.8C346.7,44.7,346.7,44.8,346.7,44.8z"/>
	<path class="st3" d="M344.1,41.6c0.2,1.2,0,2.5-0.6,3.5c-0.5,1.1-1.3,2.1-2.4,2.6c0.7-0.9,1.4-1.9,2-2.8
		C343.5,43.8,343.9,42.8,344.1,41.6z"/>
	<path class="st3" d="M345,46.4c-0.1,0.1-0.7-1.1-2.1-1.8c-0.9-0.3-1.8-0.6-2.7-0.7c0-0.1,0.3-0.2,0.9-0.2c0.7,0,1.4,0.1,2.1,0.5
		c0.6,0.3,1.2,0.8,1.6,1.4C345,46.1,345.1,46.4,345,46.4z"/>
	
		<rect x="133.1" y="108.2" transform="matrix(0.7818 -0.6235 0.6235 0.7818 -38.9055 111.8495)" class="st2" width="14.6" height="6.6"/>
	<path class="st3" d="M148.1,109.6c0,0-0.5-0.5-1.2-1.4l-3-3.7h0.3c-2.9,2.4-6.9,5.6-11.3,9.1c0,0.3,0-0.4,0-0.4l0,0l0,0l0,0
		l0.1,0.1l0.1,0.2l0.3,0.3l0.5,0.7l1,1.3l2,2.5h-0.4c3.3-2.6,6.1-4.8,8.2-6.4l2.4-1.8C147.4,109.9,147.7,109.7,148.1,109.6
		c-0.3,0.2-0.6,0.4-0.8,0.6l-2.3,1.9c-2,1.6-4.8,4-8.2,6.7l-0.2,0.2l-0.2-0.2l-2-2.5c-0.4-0.4-0.7-0.9-1.1-1.3l-0.5-0.7l-0.3-0.3
		l-0.1-0.2l-0.1-0.1l0,0l0,0l0,0c0,0.1,0.1-0.7,0-0.4c4.4-3.5,8.4-6.7,11.4-9l0.1-0.1l0.1,0.1c1.3,1.6,2.3,3,3,3.9
		C147.5,108.6,147.8,109.1,148.1,109.6z"/>
	<path class="st2" d="M130.1,120c2.1,2.6,5.9,3.1,8.5,1c0,0,0,0,0,0l-7.6-9.5C128.4,113.6,128,117.4,130.1,120z"/>
	<path class="st3" d="M130.1,120c-0.2-0.2-0.3-0.3-0.5-0.5c-0.4-0.6-0.7-1.2-0.8-1.8c-0.3-1-0.3-2.1,0-3.1c0.3-1.3,1.1-2.5,2.1-3.3
		l0.2-0.2l0.1,0.2l3.8,4.7c1.3,1.7,2.6,3.3,3.8,4.8l0.1,0.2l-0.2,0.2c-1.1,0.8-2.3,1.3-3.7,1.3c-1,0-2.1-0.2-3-0.7
		c-0.6-0.3-1.1-0.7-1.6-1.2C130.3,120.4,130.2,120.2,130.1,120c0.6,0.6,1.4,1.1,2.1,1.5c2.1,1,4.5,0.7,6.2-0.8v0.3l-3.8-4.7
		l-3.8-4.8h0.3c-1.8,1.4-2.6,3.7-2.1,5.9C129.3,118.4,129.6,119.2,130.1,120z"/>
	<path class="st2" d="M131.5,116.8c-1,1.1-1.2,2.7-0.6,4"/>
	<path class="st3" d="M130.9,120.9c-0.5-0.6-0.7-1.4-0.5-2.2c0.2-1.3,1.1-2,1.1-1.9s-0.5,0.8-0.6,2S131,120.8,130.9,120.9z"/>
	<path class="st3" d="M138.6,117.5c-0.8-0.8-1.5-1.7-2.2-2.7c-0.8-0.8-1.5-1.7-2.2-2.7c1,0.6,1.9,1.4,2.6,2.3
		C137.6,115.4,138.3,116.4,138.6,117.5z"/>
	<path class="st3" d="M140,116.4c-0.8-0.8-1.5-1.7-2.2-2.7c-0.8-0.8-1.5-1.7-2.2-2.7C137.6,112.4,139.1,114.3,140,116.4z"/>
	<path class="st3" d="M141.3,115.4c-0.8-0.8-1.5-1.7-2.2-2.7c-0.8-0.8-1.5-1.7-2.2-2.7c1,0.6,1.9,1.4,2.6,2.3
		C140.3,113.2,140.9,114.3,141.3,115.4z"/>
	<path class="st3" d="M142.6,114.3c-0.8-0.8-1.5-1.7-2.2-2.7c-0.8-0.8-1.5-1.7-2.2-2.7c1,0.6,1.9,1.4,2.6,2.3
		C141.6,112.2,142.3,113.2,142.6,114.3z"/>
	<path class="st3" d="M144,113.2c-0.8-0.8-1.5-1.7-2.2-2.7c-0.8-0.8-1.5-1.7-2.2-2.7c1,0.6,1.9,1.4,2.6,2.3
		C143,111.1,143.6,112.1,144,113.2z"/>
	<path class="st3" d="M145.3,112.2c-0.8-0.8-1.5-1.7-2.2-2.7c-0.8-0.8-1.5-1.7-2.2-2.7c1,0.6,1.9,1.4,2.6,2.3
		C144.3,110,144.9,111.1,145.3,112.2z"/>
	<path class="st3" d="M146.6,111.1c-0.8-0.8-1.5-1.7-2.2-2.7c-0.8-0.8-1.5-1.7-2.2-2.7c1,0.6,1.9,1.4,2.6,2.3
		C145.6,109,146.3,110,146.6,111.1z"/>
	<path class="st3" d="M154.5,82c-0.1,0-0.1-0.4-0.3-1.1c-0.3-1-0.9-1.8-1.8-2.3c-2-1.4-4.7-0.8-6.1,1.1c-0.5,0.8-0.8,1.7-0.8,2.6
		c0.1,2.4,2.1,4.3,4.6,4.2c0.9,0,1.8-0.4,2.6-1c0.8-0.6,1.3-1.5,1.6-2.5C154.5,82.4,154.4,82,154.5,82s0,0.1,0.1,0.3
		c0,0.3,0,0.6-0.1,0.8c-0.2,1.1-0.7,2-1.5,2.7c-1.2,1.1-2.9,1.4-4.5,0.9c-2.5-0.8-3.9-3.5-3.1-6c0.4-1.3,1.4-2.4,2.7-3
		c1.5-0.6,3.2-0.4,4.6,0.6c0.9,0.6,1.5,1.5,1.8,2.6c0.1,0.3,0.1,0.6,0.1,0.8C154.5,81.9,154.5,82,154.5,82z"/>
	<path class="st3" d="M124.8,93.1c-0.2-0.4-0.3-0.8-0.4-1.2c-0.2-0.5-0.3-0.9-0.4-1.4c-0.1-0.6-0.3-1.2-0.4-1.9
		c-0.3-1.7-0.4-3.3-0.5-5c-0.1-4.1,0.6-8.2,1.9-12.2c0.6-1.6,1.2-3.1,2-4.6c0.3-0.7,0.7-1.2,0.9-1.7c0.2-0.4,0.5-0.8,0.8-1.2
		c0.2-0.4,0.5-0.7,0.8-1c0.1,0.1-0.9,1.5-2.1,4.1c-0.7,1.5-1.3,3-1.8,4.6c-0.6,1.9-1.1,3.9-1.4,5.9c-0.3,2-0.5,4-0.5,6.1
		c0,1.7,0.1,3.3,0.3,5C124.4,91.4,124.9,93.1,124.8,93.1z"/>
	<path class="st3" d="M388.5,137c0.2,0.4,0.3,0.8,0.4,1.2c0.1,0.5,0.3,0.9,0.4,1.4c0.1,0.6,0.3,1.2,0.4,1.9c0.3,1.7,0.4,3.3,0.5,5
		c0.1,4.1-0.6,8.2-1.9,12.1c-0.5,1.6-1.2,3.1-2,4.6c-0.3,0.6-0.6,1.2-0.9,1.7c-0.2,0.4-0.5,0.8-0.8,1.2c-0.2,0.4-0.5,0.7-0.7,1
		c-0.1-0.1,0.9-1.5,2.1-4.1c0.7-1.5,1.3-3,1.9-4.6c0.6-1.9,1.1-3.9,1.4-5.9c0.3-2,0.5-4,0.5-6.1c0-1.7-0.1-3.3-0.4-5
		C388.9,138.8,388.4,137.1,388.5,137z"/>
	<path class="st3" d="M395,138.8c0.2,0.4,0.3,0.8,0.4,1.2c0.1,0.5,0.3,0.9,0.4,1.4c0.1,0.6,0.3,1.2,0.4,1.9c0.3,1.7,0.4,3.3,0.5,5
		c0,2.1-0.1,4.1-0.4,6.1c-0.3,2-0.8,4-1.5,6c-0.6,1.6-1.2,3.1-2,4.6c-0.3,0.6-0.6,1.2-0.9,1.7c-0.2,0.4-0.5,0.9-0.8,1.3
		c-0.2,0.4-0.5,0.7-0.7,1c-0.1-0.1,0.9-1.5,2.1-4.1c0.7-1.5,1.3-3,1.9-4.6c0.6-1.9,1.1-3.9,1.4-5.9c0.3-2,0.5-4,0.5-6.1
		c0-1.7-0.1-3.3-0.4-5C395.4,140.5,394.9,138.8,395,138.8z"/>
</g>
<path class="st8" d="M179.5,220.6c16.2-21.7,11.8-52.4-9.9-68.6s-52.4-11.8-68.6,9.9c-16.2,21.7-11.8,52.4,9.9,68.6
	c16.5,12.4,39,13.1,56.2,1.7l16.8,7.5L179.5,220.6z"/>
<path class="st9" d="M140.2,142.4c-0.3,0-0.6,0-0.9,0l-2.5,0.1c-0.6,0-1.2,0-1.8,0.1l-2.2,0.3l-2.6,0.4l-2.9,0.7
	c-4.9,1.2-9.6,3.3-13.9,6.1c-12.8,8.2-21.2,21.8-22.6,37c-0.2,2.2-0.2,4.5-0.1,6.8c0.1,1.2,0,2.3,0.2,3.5c0.2,1.2,0.3,2.3,0.5,3.5
	c0.9,4.8,2.4,9.4,4.6,13.7c2.4,4.5,5.4,8.7,9,12.3c3.8,3.7,8.2,6.9,12.9,9.3c4.9,2.5,10.2,4.2,15.7,4.8c1.4,0.2,2.8,0.3,4.2,0.4
	c1.4,0.1,2.8,0.1,4.2,0.1c2.9-0.1,5.7-0.5,8.5-1.1c6-1.3,11.8-3.7,16.9-7.2l-0.5,0.1l17.2,7l1,0.4l-0.3-1.1l-5-18.5l-0.1,0.5
	c4.7-6.2,7.8-13.4,9.2-21.1c0.7-3.6,0.9-7.2,0.7-10.8c0-1.7-0.2-3.5-0.5-5.2c-0.1-0.8-0.3-1.7-0.4-2.5c-0.1-0.8-0.4-1.6-0.6-2.4
	c-2.9-11.3-9.7-21.3-19.2-28c-3.5-2.5-7.4-4.6-11.4-6l-2.6-0.9l-2.4-0.6l-2.2-0.6c-0.7-0.1-1.4-0.2-2.1-0.3
	c-1.3-0.2-2.4-0.4-3.5-0.4l-2.5-0.1h-1.5C140.6,142.4,140.4,142.4,140.2,142.4c0.2,0,0.4,0,0.5,0.1l1.5,0.1l2.5,0.2
	c1,0.1,2.1,0.3,3.4,0.5c19.1,3.3,34.5,17.5,39.2,36.3c0.2,0.8,0.4,1.6,0.6,2.4s0.2,1.6,0.4,2.5c0.3,1.7,0.4,3.4,0.5,5.1
	c0.2,3.5,0,7.1-0.7,10.6c-1.4,7.5-4.5,14.5-9.1,20.6l-0.2,0.2l0.1,0.3c1.6,5.9,3.3,12.1,5,18.4l0.7-0.6l-17.2-7l-0.3-0.1l-0.3,0.2
	c-5,3.3-10.6,5.7-16.5,7c-2.7,0.6-5.5,0.9-8.3,1.1c-1.4,0-2.8,0-4.2-0.1c-1.4,0-2.7-0.1-4.1-0.3c-5.4-0.6-10.6-2.2-15.4-4.7
	c-4.7-2.3-9-5.4-12.7-9c-3.5-3.6-6.5-7.6-8.8-12.1c-2.2-4.2-3.8-8.7-4.6-13.4c-0.2-1.2-0.3-2.3-0.5-3.4c-0.2-1.1-0.2-2.3-0.2-3.4
	c-0.9-17.3,7.6-33.7,22.1-43.2c4.2-2.8,8.8-4.9,13.7-6.2l2.8-0.8l2.6-0.4l2.2-0.4c0.7-0.1,1.3-0.1,1.8-0.1l2.5-0.2
	C139.6,142.5,139.9,142.5,140.2,142.4z"/>
<g>
	<path class="st10" d="M136.8,156.3c0,0-15.5,13.6-20.6,21.8c-2.4,3.9,0.4,14.1,4.2,24.1c4.1,10.9,10.1,20.6,12.1,21.3
		c1.9,0.7,14.1-5.1,24.4-12.7c10-7.4,18.3-16.7,18.3-18.1c0.1-2.8-5.4-10.7-17.5-21.5C145.8,160.7,136.8,156.3,136.8,156.3z"/>
	<path class="st11" d="M127.7,158.8c0,0-14.1,15-18.4,23.7c-2.1,4.1,1.8,14,6.5,23.6c5.2,10.5,12.1,19.5,14.1,20
		c2,0.5,13.5-6.4,23-15c9.3-8.3,16.6-18.4,16.5-19.8c-0.2-2.8-6.4-10.2-19.5-19.7C137.1,162.2,127.7,158.8,127.7,158.8z"/>
	<g>
		<g>
			<g>
				<path class="st6" d="M124.3,176.8v30.5h-6.2v-30.5H124.3z"/>
				<path class="st6" d="M144.9,177.2v6.4c-2.2-1-4.1-1.5-5.9-1.5c-1.4,0-2.5,0.4-3.3,1.1c-0.7,0.7-1.1,1.5-1.1,2.4
					c0,0.9,0.3,1.6,0.9,2.1c0.6,0.5,1.6,0.9,3.2,1.3c2,0.5,3.4,1,4.2,1.3c0.8,0.4,1.5,0.9,2.2,1.6c1.6,1.7,2.4,3.8,2.4,6.3
					c0,3.1-1.1,5.5-3.4,7.4c-1.9,1.5-4.4,2.3-7.4,2.3c-2.1,0-4.7-0.5-7.8-1.5v-6.5c3.2,1.3,5.8,2,7.9,2c1.4,0,2.4-0.3,3.2-1
					c0.8-0.7,1.2-1.5,1.2-2.6c0-1.2-0.5-2.1-1.6-2.6c-0.4-0.2-1.5-0.6-3.3-1c-3.1-0.8-5.3-2.1-6.5-3.9c-0.9-1.5-1.4-3.1-1.4-4.9
					c0-2.2,0.7-4.3,2.1-6c1-1.3,2.1-2.2,3.5-2.8c1.3-0.6,3-0.9,5-0.9C140.8,176.3,142.8,176.6,144.9,177.2z"/>
				<path class="st6" d="M166.2,191c0.9,0.6,1.6,1.1,2.1,1.6c0.8,0.8,1.4,1.7,1.9,2.9c0.5,1.1,0.7,2.3,0.7,3.4c0,1.9-0.6,3.5-1.7,5
					c-1.2,1.7-2.8,2.8-4.8,3.2c-0.9,0.2-2.5,0.3-5.1,0.3c-1.9,0-3.2-0.1-4-0.3c-0.8-0.2-1.5-0.6-2.2-1.1c-0.6-0.6-1.1-1.3-1.3-2.1
					c-0.2-0.8-0.3-2-0.3-3.6v-16.8c0-1.5,0.1-2.6,0.3-3.4c0.2-0.8,0.6-1.4,1.2-1.9c0.6-0.5,1.3-0.9,2-1.1c0.7-0.2,1.8-0.3,3.2-0.3
					c3.1,0,5.3,0.3,6.6,0.8c1.4,0.6,2.5,1.6,3.3,2.8c0.8,1.3,1.2,2.7,1.2,4.2c0,1.2-0.2,2.3-0.7,3.2
					C168.1,188.9,167.3,189.9,166.2,191z M157.6,182.8v5.7h2c1.1,0,1.9-0.2,2.4-0.6c0.7-0.6,1.1-1.3,1.1-2.2c0-0.9-0.3-1.6-0.9-2.1
					c-0.6-0.5-1.5-0.8-2.5-0.8H157.6z M157.6,194.4v7h2c1,0,1.7,0,2-0.1c0.3-0.1,0.7-0.2,1.2-0.4c1.2-0.6,1.8-1.6,1.8-3
					c0-0.6-0.2-1.2-0.5-1.8c-0.3-0.6-0.8-1-1.3-1.3c-0.4-0.2-0.8-0.3-1.1-0.4c-0.3,0-1-0.1-2.1-0.1H157.6z"/>
			</g>
		</g>
		<path class="st6" d="M118.1,173.5c1.1,0.8,2.3,1.2,3.4,1.3c1.2,0.1,2.3,0,3.1-0.7c0.8-0.7,1.1-1.9,0.7-3.3
			c-0.4-1.3-1.4-2.8-2.8-3.8c-1.4-1-2.7-1.3-3.9-1.1c-1.1,0.1-2.1,0.7-2.6,1.6C115,169.5,115.9,172,118.1,173.5z"/>
	</g>
</g>
</svg>
